<svg
   version="1.1"
   id="dislike"
   width="800px"
   height="800px"
   viewBox="0 0 256 256"
   xml:space="preserve"
   fill="#000000"
   transform="rotate(180)matrix(-1, 0, 0, 1, 0, 0)"
   sodipodi:docname="dislike-svgrepo-com.svg"
   inkscape:version="1.1.2 (0a00cf5339, 2022-02-04)"
   xmlns:inkscape="http://www.inkscape.org/namespaces/inkscape"
   xmlns:sodipodi="http://sodipodi.sourceforge.net/DTD/sodipodi-0.dtd"
   xmlns="http://www.w3.org/2000/svg"
   xmlns:svg="http://www.w3.org/2000/svg"><defs
   id="defs16" /><sodipodi:namedview
   id="namedview14"
   pagecolor="#ffffff"
   bordercolor="#666666"
   borderopacity="1.0"
   inkscape:pageshadow="2"
   inkscape:pageopacity="0.0"
   inkscape:pagecheckerboard="0"
   showgrid="false"
   inkscape:zoom="0.28461048"
   inkscape:cx="96.623287"
   inkscape:cy="585.01008"
   inkscape:window-width="1600"
   inkscape:window-height="839"
   inkscape:window-x="0"
   inkscape:window-y="124"
   inkscape:window-maximized="1"
   inkscape:current-layer="dislike" />

<g
   id="SVGRepo_bgCarrier"
   stroke-width="0" />

<g
   id="SVGRepo_tracerCarrier"
   stroke-linecap="round"
   stroke-linejoin="round" />

<g
   id="SVGRepo_iconCarrier"
   transform="matrix(1,0,0,-1,-9.3946237e-6,276.522)"> <style
   type="text/css"
   id="style4">  .st0{fill:#ffffff;} .st1{fill:#ffffff;}  </style> <path
   class="st1"
   d="m 226.611,123.787 c 4.519,-10.136 2.854,-22.892 -4.2,-32.14 1.36,-11.072 -3.466,-22.275 -12.435,-29.038 -0.064,-10.859 -5.914,-16.928 -18.83,-19.925 -6.082,-1.41 -12.361,-2.096 -19.196,-2.096 -1.753,0 -3.578,0.046 -5.446,0.139 -12.225,0.604 -21.879,1.082 -35.013,3.174 -0.735,0.117 -1.56,0.237 -2.448,0.367 -7.982,1.164 -21.033,3.074 -29.485,10.435 -1.542,-2.028 -4.375,-4.376 -9.39,-4.941 -0.063,-0.007 -18.353,-1.714 -18.353,-1.714 -1.76,-0.23 -3.52,-0.465 -5.279,-0.7 -4.123,-0.55 -8.386,-1.119 -12.615,-1.624 -0.968,-0.116 -1.938,-0.175 -2.881,-0.175 -10.245,0 -18.099,6.792 -20.007,17.297 -4.566,25.061 -4.227,51.376 1.009,78.214 2.416,12.401 11.936,20.416 24.253,20.416 10e-4,0 10e-4,0 0.002,0 1.063,0 2.154,-0.062 3.235,-0.182 6.229,-0.688 12.455,-1.396 18.682,-2.104 l 9.978,-1.131 c 2.764,-0.312 7.39,-0.832 10.514,-4.998 0.177,-0.236 0.338,-0.475 0.49,-0.713 0.936,0.506 1.895,0.893 2.831,1.129 2.731,0.703 3.682,1.66 4.306,2.598 0.884,1.324 1.779,2.574 2.645,3.783 0.563,0.787 1.127,1.574 1.688,2.386 4.648,6.7 10.428,12.293 17.674,17.097 10.908,7.229 18.956,17.631 24.803,26.068 0.055,0.26 0.117,0.591 0.168,0.859 0.082,0.43 0.164,0.855 0.254,1.28 0.488,2.272 0.891,4.554 1.195,6.793 2.061,14.915 12.75,21.593 22.43,21.593 3.83,0 7.711,-1.009 11.22,-2.914 9.202,-4.996 10.797,-11.791 12.202,-17.785 0.111,-0.475 0.228,-0.967 0.352,-1.48 3.352,-13.887 0.482,-32.131 -6.82,-43.382 -1.271,-1.955 -2.486,-3.947 -3.703,-5.993 1.053,-0.222 2.08,-0.428 3.084,-0.613 1.525,-0.281 3.154,-0.455 4.879,-0.642 3.412,-0.366 7.279,-0.782 11.357,-2.149 8.387,-2.813 14.627,-8.326 17.571,-15.523 2.708,-6.635 2.445,-14.234 -0.721,-21.666 z"
   id="path6" /> <path
   class="st0"
   d="m 213.259,96.272 c 6.287,6.889 7.775,17.433 3.429,25 -1.039,1.817 -0.924,3.067 -0.025,4.825 5.643,11.086 1.688,21.449 -10.084,25.397 -4.855,1.629 -9.779,1.501 -14.867,2.438 -5.229,0.965 -10.813,2.416 -16.465,3.459 0.729,1.633 1.079,2.692 1.636,3.639 2.923,4.953 5.744,9.977 8.872,14.791 5.969,9.193 8.066,24.893 5.486,35.59 -1.508,6.234 -1.85,9.697 -7.604,12.822 -7.762,4.218 -17.325,0.647 -18.971,-11.258 -0.345,-2.521 -0.79,-5.039 -1.324,-7.524 -0.371,-1.735 -0.571,-3.695 -1.532,-5.089 -7.75,-11.262 -16.428,-21.725 -27.945,-29.355 -5.928,-3.931 -10.947,-8.646 -14.98,-14.46 -1.397,-2.021 -2.871,-3.983 -4.233,-6.022 -2.447,-3.67 -5.932,-5.647 -10.131,-6.729 -0.919,-0.232 -2.175,-1.331 -2.297,-2.176 -1.342,-9.051 -2.96,-18.087 -3.582,-27.192 -1.063,-15.608 -0.712,-33.678 3.57,-46.445 3.771,-11.245 22.555,-12.882 30.858,-14.206 12.603,-2.007 21.858,-2.464 33.953,-3.062 7.34,-0.364 14.567,0.019 21.869,1.712 10.592,2.458 11.854,5.838 10.854,13.809 0.104,1.032 1.033,2.348 1.958,2.873 7.987,4.555 12.452,14.134 10.466,23.188 -0.373,1.675 -0.057,2.72 1.089,3.975 z"
   id="path8" /> <path
   class="st0"
   d="M 89.05,59.698 70.702,57.986 C 64.713,57.203 58.728,56.368 52.728,55.652 46.431,54.896 42.02,58.308 40.87,64.638 c -4.537,24.9 -3.846,49.737 0.987,74.51 1.651,8.478 8.05,13.154 16.577,12.207 9.548,-1.057 19.092,-2.155 28.639,-3.231 4.09,-0.461 4.345,-0.739 3.65,-4.747 -4.625,-26.732 -5.602,-53.416 1.081,-79.995 0.618,-2.465 -0.323,-3.41 -2.754,-3.684 z m -19.031,79.461 c -3.727,0.079 -6.813,-2.877 -6.893,-6.604 -0.08,-3.727 2.877,-6.813 6.604,-6.893 3.727,-0.08 6.813,2.876 6.893,6.604 0.08,3.728 -2.877,6.813 -6.604,6.893 z"
   id="path10" /> </g>

</svg>
