<svg width="20" height="15" viewBox="0 0 28 22" fill="none" xmlns="http://www.w3.org/2000/svg">
<path d="M27.8201 4.85763C27.8201 2.27957 26.0097 0.205671 23.7727 0.205671C20.7426 0.0572899 17.6524 0 14.4943 0H13.5098C10.3595 0 7.26375 0.05729 4.23368 0.206244C2.00215 0.206244 0.191763 2.2916 0.191763 4.86966C0.055027 6.90861 -0.00294906 8.94814 0.000332601 10.9877C-0.00513684 13.0272 0.0568502 15.0686 0.186294 17.112C0.186294 19.69 1.99668 21.7811 4.22821 21.7811C7.41142 21.9358 10.6767 22.0046 13.9966 21.9988C17.322 22.0103 20.5782 21.9377 23.765 21.7811C26.0021 21.7811 27.8124 19.69 27.8124 17.112C27.9437 15.0667 28.0039 13.0272 27.9984 10.9819C28.0108 8.94241 27.9514 6.90098 27.8201 4.85763ZM11.3221 16.6078V5.35032L19.2528 10.9762L11.3221 16.6078Z" fill="#8BAA36"/>
</svg>
