<?xml version="1.0" encoding="UTF-8"?>
<svg xmlns="http://www.w3.org/2000/svg" xmlns:xlink="http://www.w3.org/1999/xlink" width="22px" height="22px" viewBox="0 0 22 22" version="1.1">
<defs>
<radialGradient id="radial0" gradientUnits="userSpaceOnUse" cx="63.6247" cy="97.5684" fx="63.6247" fy="97.5684" r="46.4079" gradientTransform="matrix(0.171875,0,0,0.171875,0,0)">
<stop offset="0" style="stop-color:rgb(100%,100%,100%);stop-opacity:1;"/>
<stop offset="0.4795" style="stop-color:rgb(98.039216%,98.039216%,98.039216%);stop-opacity:1;"/>
<stop offset="1" style="stop-color:rgb(92.941176%,92.941176%,92.941176%);stop-opacity:1;"/>
</radialGradient>
<filter id="alpha" filterUnits="objectBoundingBox" x="0%" y="0%" width="100%" height="100%">
  <feColorMatrix type="matrix" in="SourceGraphic" values="0 0 0 0 1 0 0 0 0 1 0 0 0 0 1 0 0 0 1 0"/>
</filter>
<mask id="mask0">
  <g filter="url(#alpha)">
<rect x="0" y="0" width="22" height="22" style="fill:rgb(0%,0%,0%);fill-opacity:0.2;stroke:none;"/>
  </g>
</mask>
<clipPath id="clip1">
  <rect x="0" y="0" width="22" height="22"/>
</clipPath>
<g id="surface5" clip-path="url(#clip1)">
<path style=" stroke:none;fill-rule:nonzero;fill:rgb(25.882353%,25.882353%,25.882353%);fill-opacity:1;" d="M 10.933594 12.714844 C 13.621094 12.714844 16.132812 13.175781 18.019531 14.007812 C 19.742188 14.773438 20.730469 15.777344 20.730469 16.769531 C 20.730469 17.757812 19.742188 18.765625 18.019531 19.527344 C 16.132812 20.363281 13.621094 20.824219 10.933594 20.824219 C 8.25 20.824219 5.734375 20.363281 3.851562 19.527344 C 2.128906 18.761719 1.136719 17.757812 1.136719 16.769531 C 1.136719 15.777344 2.125 14.769531 3.851562 14.007812 C 5.734375 13.175781 8.25 12.714844 10.933594 12.714844 M 10.933594 12.199219 C 5.238281 12.199219 0.621094 14.246094 0.621094 16.769531 C 0.621094 19.292969 5.238281 21.339844 10.933594 21.339844 C 16.628906 21.339844 21.246094 19.292969 21.246094 16.769531 C 21.246094 14.246094 16.628906 12.199219 10.933594 12.199219 Z M 10.933594 12.199219 "/>
</g>
<linearGradient id="linear0" gradientUnits="userSpaceOnUse" x1="13.4785" y1="100.1715" x2="114.6915" y2="100.1715" gradientTransform="matrix(0.171875,0,0,0.171875,0,0)">
<stop offset="0" style="stop-color:rgb(89.019608%,76.470588%,52.54902%);stop-opacity:1;"/>
<stop offset="0.1473" style="stop-color:rgb(91.764706%,80.784314%,58.039216%);stop-opacity:1;"/>
<stop offset="0.4648" style="stop-color:rgb(96.078431%,88.235294%,67.45098%);stop-opacity:1;"/>
<stop offset="0.7576" style="stop-color:rgb(99.215686%,92.941176%,73.333333%);stop-opacity:1;"/>
<stop offset="1" style="stop-color:rgb(100%,94.509804%,75.294118%);stop-opacity:1;"/>
</linearGradient>
<linearGradient id="linear1" gradientUnits="userSpaceOnUse" x1="13.5332" y1="88.8902" x2="114.3411" y2="88.8902" gradientTransform="matrix(0.171875,0,0,0.171875,0,0)">
<stop offset="0" style="stop-color:rgb(64.705882%,33.333333%,10.588235%);stop-opacity:1;"/>
<stop offset="1" style="stop-color:rgb(90.588235%,59.215686%,10.980392%);stop-opacity:1;"/>
</linearGradient>
<linearGradient id="linear2" gradientUnits="userSpaceOnUse" x1="11.0819" y1="78.1041" x2="112.0447" y2="78.1041" gradientTransform="matrix(0.171875,0,0,0.171875,0,0)">
<stop offset="0" style="stop-color:rgb(100%,94.509804%,75.294118%);stop-opacity:1;"/>
<stop offset="0.2424" style="stop-color:rgb(99.215686%,92.941176%,73.333333%);stop-opacity:1;"/>
<stop offset="0.5352" style="stop-color:rgb(96.078431%,88.235294%,67.45098%);stop-opacity:1;"/>
<stop offset="0.8527" style="stop-color:rgb(91.764706%,80.784314%,58.039216%);stop-opacity:1;"/>
<stop offset="1" style="stop-color:rgb(89.019608%,76.470588%,52.54902%);stop-opacity:1;"/>
</linearGradient>
<linearGradient id="linear3" gradientUnits="userSpaceOnUse" x1="11.4574" y1="66.9734" x2="111.6131" y2="66.9734" gradientTransform="matrix(0.171875,0,0,0.171875,0,0)">
<stop offset="0" style="stop-color:rgb(90.588235%,59.215686%,10.980392%);stop-opacity:1;"/>
<stop offset="1" style="stop-color:rgb(64.705882%,33.333333%,10.588235%);stop-opacity:1;"/>
</linearGradient>
<linearGradient id="linear4" gradientUnits="userSpaceOnUse" x1="16.266" y1="50.1716" x2="113.7004" y2="50.1716" gradientTransform="matrix(0.171875,0,0,0.171875,0,0)">
<stop offset="0" style="stop-color:rgb(90.588235%,59.215686%,10.980392%);stop-opacity:1;"/>
<stop offset="1" style="stop-color:rgb(64.705882%,33.333333%,10.588235%);stop-opacity:1;"/>
</linearGradient>
<linearGradient id="linear5" gradientUnits="userSpaceOnUse" x1="16.0639" y1="63.0333" x2="114.2165" y2="63.0333" gradientTransform="matrix(0.171875,0,0,0.171875,0,0)">
<stop offset="0" style="stop-color:rgb(100%,94.509804%,75.294118%);stop-opacity:1;"/>
<stop offset="0.2424" style="stop-color:rgb(99.215686%,92.941176%,73.333333%);stop-opacity:1;"/>
<stop offset="0.5352" style="stop-color:rgb(96.078431%,88.235294%,67.45098%);stop-opacity:1;"/>
<stop offset="0.8527" style="stop-color:rgb(91.764706%,80.784314%,58.039216%);stop-opacity:1;"/>
<stop offset="1" style="stop-color:rgb(89.019608%,76.470588%,52.54902%);stop-opacity:1;"/>
</linearGradient>
<mask id="mask1">
  <g filter="url(#alpha)">
<rect x="0" y="0" width="22" height="22" style="fill:rgb(0%,0%,0%);fill-opacity:0.729412;stroke:none;"/>
  </g>
</mask>
<radialGradient id="radial1" gradientUnits="userSpaceOnUse" cx="79.9944" cy="46.4545" fx="79.9944" fy="46.4545" r="38.2453" gradientTransform="matrix(0.171875,0,0,0.171875,0,0)">
<stop offset="0.133" style="stop-color:rgb(78.823529%,32.156863%,0.784314%);stop-opacity:1;"/>
<stop offset="0.1536" style="stop-color:rgb(78.039216%,31.764706%,0.784314%);stop-opacity:1;"/>
<stop offset="0.4248" style="stop-color:rgb(70.588235%,28.627451%,0.784314%);stop-opacity:1;"/>
<stop offset="0.6992" style="stop-color:rgb(65.882353%,27.058824%,0.784314%);stop-opacity:1;"/>
<stop offset="0.9803" style="stop-color:rgb(64.313725%,26.27451%,0.784314%);stop-opacity:1;"/>
</radialGradient>
<clipPath id="clip2">
  <rect x="0" y="0" width="22" height="22"/>
</clipPath>
<g id="surface8" clip-path="url(#clip2)">
<path style=" stroke:none;fill-rule:nonzero;fill:url(#radial1);" d="M 6.433594 7.625 C 6.203125 7.738281 5.9375 7.734375 5.679688 7.734375 C 5.113281 7.734375 4.53125 7.785156 4.03125 8.050781 C 3.527344 8.3125 3.121094 8.824219 3.125 9.398438 C 3.125 9.96875 3.648438 10.527344 4.207031 10.441406 C 4.464844 10.398438 4.6875 10.242188 4.910156 10.101562 C 5.859375 9.511719 7.039062 9.246094 8.117188 9.542969 C 9.191406 9.84375 10.117188 10.761719 10.285156 11.878906 C 10.355469 12.359375 10.3125 12.902344 10.632812 13.261719 C 10.996094 13.667969 11.625 13.625 12.15625 13.550781 C 12.46875 13.503906 12.863281 13.367188 12.863281 13.046875 C 12.859375 12.789062 12.578125 12.628906 12.453125 12.402344 C 12.246094 12.019531 12.542969 11.523438 12.9375 11.351562 C 13.332031 11.179688 13.777344 11.230469 14.207031 11.253906 C 15.914062 11.328125 17.636719 10.832031 19.050781 9.859375 C 19.398438 9.621094 19.757812 9.296875 19.773438 8.871094 C 19.785156 8.535156 19.574219 8.234375 19.3125 8.027344 C 19.054688 7.820312 18.75 7.6875 18.464844 7.515625 C 17.902344 7.175781 17.445312 6.683594 16.882812 6.34375 C 16.214844 5.941406 15.4375 5.773438 14.671875 5.644531 C 13.144531 5.390625 11.589844 5.285156 10.039062 5.328125 C 9.253906 5.351562 8.464844 5.410156 7.683594 5.507812 C 7.28125 5.558594 6.167969 5.605469 6.082031 6.1875 C 6.015625 6.65625 7.433594 7.136719 6.433594 7.625 Z M 6.433594 7.625 "/>
</g>
<mask id="mask2">
  <g filter="url(#alpha)">
<rect x="0" y="0" width="22" height="22" style="fill:rgb(0%,0%,0%);fill-opacity:0.780392;stroke:none;"/>
  </g>
</mask>
<linearGradient id="linear6" gradientUnits="userSpaceOnUse" x1="67.9635" y1="118.2436" x2="88.6578" y2="89.1646" gradientTransform="matrix(0.171875,0,0,0.171875,0,0)">
<stop offset="0" style="stop-color:rgb(93.333333%,54.509804%,24.705882%);stop-opacity:1;"/>
<stop offset="0.0642" style="stop-color:rgb(89.019608%,50.196078%,21.176471%);stop-opacity:1;"/>
<stop offset="0.249" style="stop-color:rgb(78.039216%,39.607843%,12.156863%);stop-opacity:1;"/>
<stop offset="0.4359" style="stop-color:rgb(70.588235%,32.156863%,5.882353%);stop-opacity:1;"/>
<stop offset="0.6246" style="stop-color:rgb(65.882353%,27.843137%,1.960784%);stop-opacity:1;"/>
<stop offset="0.8178" style="stop-color:rgb(64.313725%,26.27451%,0.784314%);stop-opacity:1;"/>
</linearGradient>
<clipPath id="clip3">
  <rect x="0" y="0" width="22" height="22"/>
</clipPath>
<g id="surface11" clip-path="url(#clip3)">
<path style=" stroke:none;fill-rule:nonzero;fill:url(#linear6);" d="M 10.316406 15.574219 C 10.410156 15.765625 10.628906 15.859375 10.84375 15.894531 C 11.128906 15.941406 11.421875 15.90625 11.714844 15.902344 C 12.007812 15.902344 12.316406 15.945312 12.542969 16.125 C 12.773438 16.304688 12.878906 16.65625 12.710938 16.890625 C 12.574219 17.074219 12.332031 17.128906 12.117188 17.210938 C 11.902344 17.289062 11.667969 17.449219 11.679688 17.675781 C 11.691406 17.917969 11.96875 18.054688 12.207031 18.09375 C 12.449219 18.136719 12.707031 18.132812 12.925781 18.246094 C 13.144531 18.359375 13.300781 18.644531 13.164062 18.847656 C 13.046875 19.027344 12.789062 19.035156 12.574219 19.027344 C 12.238281 19.011719 11.90625 18.996094 11.574219 18.980469 C 11.386719 18.972656 11.199219 18.964844 11.027344 19.023438 C 10.851562 19.082031 10.695312 19.222656 10.671875 19.40625 C 10.648438 19.597656 10.789062 19.785156 10.964844 19.875 C 11.144531 19.964844 11.347656 19.976562 11.542969 19.988281 C 13.550781 20.085938 15.625 19.867188 17.40625 18.957031 C 17.5625 18.878906 17.71875 18.792969 17.828125 18.660156 C 17.9375 18.527344 18 18.339844 17.933594 18.179688 C 17.8125 17.871094 17.375 17.867188 17.042969 17.933594 C 16.140625 18.109375 15.257812 18.375 14.410156 18.726562 C 14.25 18.789062 14.089844 18.859375 13.921875 18.855469 C 13.75 18.855469 13.570312 18.761719 13.523438 18.601562 C 13.476562 18.433594 13.597656 18.25 13.75 18.167969 C 13.90625 18.082031 14.089844 18.066406 14.265625 18.046875 C 14.617188 18.003906 14.964844 17.925781 15.304688 17.816406 C 15.476562 17.761719 15.660156 17.6875 15.742188 17.527344 C 15.875 17.273438 15.644531 16.949219 15.363281 16.871094 C 15.082031 16.796875 14.785156 16.890625 14.507812 16.976562 C 14.226562 17.066406 13.925781 17.148438 13.648438 17.058594 C 13.378906 16.96875 13.179688 16.703125 13.167969 16.425781 C 13.152344 16.144531 13.328125 15.863281 13.589844 15.75 C 13.875 15.625 14.207031 15.699219 14.519531 15.675781 C 14.832031 15.65625 15.195312 15.441406 15.152344 15.132812 C 15.128906 14.957031 14.976562 14.820312 14.808594 14.765625 C 14.636719 14.710938 14.453125 14.71875 14.277344 14.726562 C 13.480469 14.773438 12.6875 14.839844 11.894531 14.929688 C 11.574219 14.960938 9.996094 14.921875 10.316406 15.574219 Z M 10.316406 15.574219 "/>
</g>
<mask id="mask3">
  <g filter="url(#alpha)">
<rect x="0" y="0" width="22" height="22" style="fill:rgb(0%,0%,0%);fill-opacity:0.2;stroke:none;"/>
  </g>
</mask>
<clipPath id="clip4">
  <rect x="0" y="0" width="22" height="22"/>
</clipPath>
<g id="surface14" clip-path="url(#clip4)">
<path style=" stroke:none;fill-rule:nonzero;fill:rgb(25.882353%,25.882353%,25.882353%);fill-opacity:1;" d="M 10.683594 3.507812 C 10.671875 3.566406 10.671875 3.628906 10.671875 3.691406 C 10.679688 3.878906 10.761719 4.230469 11.226562 4.476562 C 11.550781 4.652344 11.972656 4.792969 12.421875 4.941406 C 12.839844 5.085938 13.707031 5.375 13.839844 5.578125 C 13.84375 5.601562 13.84375 5.625 13.84375 5.65625 C 13.835938 5.894531 13.992188 6.105469 14.222656 6.171875 L 14.285156 6.1875 L 14.425781 6.226562 C 15.019531 6.386719 15.628906 6.550781 16.097656 6.847656 C 16.339844 6.996094 16.570312 7.125 16.8125 7.261719 C 17.238281 7.5 17.71875 7.773438 18.402344 8.246094 C 18.878906 8.578125 19.003906 8.816406 19.054688 8.964844 C 19.136719 9.199219 19.117188 9.476562 19.089844 9.832031 L 19.078125 9.984375 C 19.054688 10.285156 18.902344 10.621094 18.640625 10.925781 C 18.515625 11.070312 18.484375 11.277344 18.558594 11.457031 C 18.640625 11.65625 18.667969 11.777344 18.675781 11.820312 C 18.679688 11.832031 18.683594 11.84375 18.683594 11.851562 C 18.765625 12.472656 18.804688 12.949219 18.503906 13.390625 C 18.445312 13.480469 18.34375 13.59375 18.222656 13.714844 C 18.101562 13.832031 18.046875 14.003906 18.074219 14.171875 C 18.105469 14.335938 18.214844 14.480469 18.371094 14.550781 C 18.792969 14.742188 18.953125 14.851562 19.003906 14.890625 C 19.078125 14.949219 19.132812 15.019531 19.167969 15.113281 C 19.34375 15.582031 18.695312 16.867188 18.175781 17.253906 C 17.800781 17.535156 17.125 17.742188 16.273438 17.996094 C 15.683594 18.175781 15.011719 18.375 14.261719 18.65625 C 13.660156 18.878906 13.039062 18.980469 12.3125 18.980469 C 11.742188 18.980469 11.15625 18.921875 10.539062 18.855469 C 10.003906 18.800781 9.453125 18.742188 8.851562 18.714844 C 7.359375 18.648438 6.503906 18.355469 5.601562 18.042969 C 5.285156 17.933594 4.960938 17.820312 4.617188 17.722656 C 3.941406 17.53125 3.859375 17.398438 3.730469 17.199219 C 3.640625 17.054688 3.515625 16.859375 3.273438 16.65625 C 3.183594 16.582031 3.109375 16.519531 3.050781 16.457031 C 3.058594 16.453125 3.070312 16.441406 3.078125 16.433594 C 3.277344 16.261719 3.3125 15.96875 3.164062 15.753906 C 3.136719 15.714844 3.105469 15.667969 3.070312 15.617188 C 3 15.515625 2.90625 15.382812 2.847656 15.285156 C 2.878906 14.953125 3.023438 14.667969 3.277344 14.441406 C 3.386719 14.34375 3.449219 14.207031 3.449219 14.058594 C 3.449219 13.910156 3.386719 13.769531 3.277344 13.671875 C 3.070312 13.488281 2.894531 13.304688 2.753906 13.125 C 2.675781 13.007812 2.621094 12.535156 2.59375 12.308594 C 2.570312 12.097656 2.546875 11.898438 2.507812 11.738281 C 2.457031 11.550781 2.429688 11.355469 2.417969 11.167969 C 2.417969 11.152344 2.421875 11.113281 2.425781 11.074219 C 2.488281 10.980469 2.515625 10.859375 2.5 10.742188 L 2.496094 10.710938 C 2.496094 10.707031 2.496094 10.699219 2.496094 10.699219 C 2.621094 10.496094 2.839844 10.292969 3.125 10.121094 C 3.191406 10.082031 3.242188 10.03125 3.285156 9.972656 C 3.363281 9.96875 3.441406 9.941406 3.507812 9.898438 L 3.550781 9.875 C 3.671875 9.800781 3.757812 9.679688 3.789062 9.539062 C 3.816406 9.394531 3.785156 9.25 3.699219 9.132812 C 3.550781 8.925781 3.433594 8.722656 3.332031 8.507812 C 3.398438 8.261719 3.515625 8.0625 3.664062 7.945312 C 4.277344 7.460938 5.042969 7.105469 5.65625 6.816406 C 6.40625 6.464844 7.207031 6.199219 8.03125 6.019531 C 8.09375 6.003906 8.148438 5.980469 8.203125 5.945312 C 8.417969 5.804688 8.648438 5.664062 8.859375 5.597656 C 8.949219 5.566406 9.03125 5.511719 9.09375 5.4375 C 9.207031 5.339844 9.273438 5.195312 9.273438 5.042969 C 9.394531 4.171875 10.039062 3.730469 10.683594 3.507812 M 11.789062 2.777344 C 9.257812 2.929688 8.828125 4.441406 8.757812 5.035156 C 8.757812 5.039062 8.761719 5.046875 8.761719 5.050781 C 8.761719 5.046875 8.761719 5.046875 8.757812 5.042969 C 8.738281 5.074219 8.707031 5.097656 8.707031 5.097656 C 8.707031 5.097656 8.707031 5.105469 8.703125 5.109375 C 8.4375 5.195312 8.175781 5.355469 7.925781 5.515625 C 7.070312 5.703125 6.234375 5.980469 5.441406 6.351562 C 4.71875 6.691406 3.984375 7.042969 3.351562 7.539062 C 3.058594 7.769531 2.871094 8.144531 2.796875 8.566406 C 2.929688 8.886719 3.097656 9.171875 3.289062 9.4375 C 3.273438 9.445312 3.261719 9.453125 3.246094 9.464844 C 3.085938 9.195312 2.9375 8.902344 2.796875 8.566406 C 2.734375 8.925781 2.757812 9.3125 2.867188 9.683594 C 2.597656 9.84375 2.167969 10.148438 1.972656 10.601562 C 1.976562 10.671875 1.984375 10.738281 1.992188 10.808594 C 1.976562 10.742188 1.953125 10.671875 1.925781 10.609375 C 1.980469 10.734375 1.898438 11.046875 1.90625 11.195312 C 1.917969 11.421875 1.953125 11.648438 2.007812 11.871094 C 2.105469 12.25 2.105469 13.128906 2.351562 13.445312 C 2.519531 13.660156 2.722656 13.867188 2.9375 14.0625 C 2.6875 14.289062 2.371094 14.691406 2.332031 15.308594 C 2.332031 15.339844 2.328125 15.367188 2.328125 15.398438 C 2.277344 16.363281 2.410156 16.613281 2.945312 17.058594 C 3.496094 17.515625 3.191406 17.855469 4.476562 18.222656 C 5.765625 18.589844 6.714844 19.140625 8.832031 19.234375 C 10.117188 19.292969 11.222656 19.5 12.316406 19.5 C 13.015625 19.5 13.710938 19.414062 14.441406 19.140625 C 16.34375 18.4375 17.753906 18.222656 18.492188 17.671875 C 19.09375 17.21875 19.949219 15.722656 19.652344 14.933594 C 19.589844 14.757812 19.480469 14.605469 19.320312 14.480469 C 19.179688 14.375 18.925781 14.238281 18.585938 14.082031 C 18.738281 13.933594 18.855469 13.796875 18.933594 13.679688 C 19.335938 13.085938 19.289062 12.46875 19.195312 11.785156 C 19.191406 11.765625 19.191406 11.746094 19.183594 11.71875 C 19.160156 11.601562 19.113281 11.445312 19.035156 11.257812 C 19.355469 10.882812 19.5625 10.453125 19.59375 10.023438 C 19.628906 9.5625 19.679688 9.175781 19.542969 8.792969 C 19.429688 8.480469 19.1875 8.167969 18.695312 7.824219 C 17.613281 7.074219 17.023438 6.820312 16.375 6.414062 C 15.796875 6.050781 15.070312 5.871094 14.421875 5.691406 C 14.402344 5.6875 14.378906 5.679688 14.355469 5.675781 C 14.359375 5.617188 14.355469 5.558594 14.351562 5.496094 C 14.257812 4.792969 12.328125 4.484375 11.46875 4.023438 C 10.75 3.640625 11.597656 3.023438 11.890625 2.828125 C 11.777344 2.832031 11.667969 2.851562 11.5625 2.871094 C 11.636719 2.835938 11.710938 2.804688 11.789062 2.777344 Z M 2.742188 16.050781 C 2.695312 16.007812 2.652344 15.964844 2.605469 15.921875 C 2.507812 15.773438 2.429688 15.625 2.363281 15.476562 C 2.453125 15.652344 2.636719 15.898438 2.742188 16.050781 Z M 11.894531 2.828125 Z M 11.894531 2.828125 "/>
</g>
</defs>
<g id="surface1">
<path style=" stroke:none;fill-rule:nonzero;fill:url(#radial0);" d="M 21.246094 16.769531 C 21.246094 14.246094 16.628906 12.199219 10.933594 12.199219 C 5.238281 12.199219 0.621094 14.246094 0.621094 16.769531 C 0.621094 19.292969 5.238281 21.339844 10.933594 21.339844 C 16.628906 21.339844 21.246094 19.292969 21.246094 16.769531 Z M 21.246094 16.769531 "/>
<use xlink:href="#surface5" mask="url(#mask0)"/>
<path style=" stroke:none;fill-rule:nonzero;fill:rgb(74.901961%,74.901961%,74.901961%);fill-opacity:1;" d="M 19.445312 16.566406 C 19.445312 14.988281 15.722656 13.707031 11.128906 13.707031 C 6.535156 13.707031 2.8125 14.988281 2.8125 16.566406 C 2.8125 18.144531 6.535156 19.421875 11.128906 19.421875 C 15.722656 19.421875 19.445312 18.144531 19.445312 16.566406 Z M 19.445312 16.566406 "/>
<path style=" stroke:none;fill-rule:nonzero;fill:url(#linear0);" d="M 5.917969 17.578125 C 4.808594 17.230469 3.523438 16.84375 2.605469 15.921875 C 2.492188 15.75 2.390625 15.578125 2.324219 15.398438 C 2.277344 16.363281 2.40625 16.613281 2.941406 17.058594 C 3.496094 17.515625 3.1875 17.855469 4.476562 18.222656 C 5.761719 18.589844 6.714844 19.140625 8.828125 19.234375 C 10.945312 19.328125 12.570312 19.835938 14.441406 19.140625 C 16.34375 18.4375 17.753906 18.222656 18.488281 17.671875 C 19.089844 17.21875 19.945312 15.722656 19.652344 14.933594 C 16.621094 19.101562 10.3125 18.957031 5.917969 17.578125 Z M 5.917969 17.578125 "/>
<path style=" stroke:none;fill-rule:nonzero;fill:url(#linear1);" d="M 5.917969 17.578125 C 10.328125 19.210938 19.164062 18.707031 19.652344 14.933594 C 19.585938 14.757812 19.480469 14.605469 19.316406 14.480469 C 18.429688 13.808594 12.96875 11.875 9.230469 12.117188 C 5.488281 12.363281 4.691406 12.976562 3.25 13.835938 C 3.25 13.835938 2.390625 14.265625 2.332031 15.308594 C 2.328125 15.339844 2.328125 15.367188 2.324219 15.398438 C 2.390625 15.574219 2.644531 15.902344 2.757812 16.074219 C 3.679688 16.996094 4.8125 17.210938 5.917969 17.578125 Z M 5.917969 17.578125 "/>
<path style=" stroke:none;fill-rule:nonzero;fill:rgb(100%,93.333333%,74.901961%);fill-opacity:1;" d="M 4.046875 10.554688 C 3.863281 10.617188 3.402344 11.996094 4.382812 12.609375 C 5.367188 13.222656 6.347656 13.589844 7.296875 13.894531 C 8.25 14.203125 8.25 14.507812 10.058594 14.449219 C 11.867188 14.386719 11.988281 14.664062 12.941406 14.632812 C 13.890625 14.601562 14.75 14.632812 15.546875 14.109375 C 16.34375 13.589844 16.742188 13.621094 17.507812 13.097656 C 18.277344 12.578125 18.734375 12.453125 18.859375 11.628906 C 18.980469 10.800781 19.53125 9.234375 18.828125 8.53125 C 18.121094 7.824219 14.164062 6.8125 10.976562 6.964844 C 7.789062 7.117188 5.671875 8.625 5.027344 9.050781 C 4.382812 9.480469 4.046875 10.554688 4.046875 10.554688 Z M 4.046875 10.554688 "/>
<path style=" stroke:none;fill-rule:nonzero;fill:url(#linear2);" d="M 18.796875 12.113281 C 17.140625 14.253906 14.011719 14.96875 11.253906 14.609375 C 11.070312 14.609375 10.515625 14.789062 10.332031 14.789062 C 8.222656 14.789062 5.902344 14.453125 4.046875 13.433594 C 3.503906 13.132812 2.992188 12.753906 2.609375 12.269531 C 2.429688 12.039062 2.28125 11.789062 2.171875 11.515625 C 2.054688 11.222656 2.050781 10.894531 1.925781 10.609375 C 1.980469 10.734375 1.898438 11.046875 1.90625 11.195312 C 1.917969 11.421875 1.953125 11.648438 2.007812 11.871094 C 2.105469 12.25 2.105469 13.128906 2.347656 13.445312 C 3.09375 14.394531 4.398438 15.15625 5.511719 15.53125 C 6.402344 15.828125 8.234375 16.171875 10.289062 16.203125 C 12.34375 16.230469 14.027344 16.324219 14.996094 16.035156 C 17.152344 15.394531 18.535156 14.273438 18.933594 13.679688 C 19.332031 13.085938 19.285156 12.46875 19.195312 11.785156 C 19.191406 11.765625 19.1875 11.746094 19.183594 11.71875 C 19.0625 11.828125 18.941406 11.96875 18.796875 12.113281 Z M 18.796875 12.113281 "/>
<path style=" stroke:none;fill-rule:nonzero;fill:url(#linear3);" d="M 14.410156 8.09375 C 10.976562 7.859375 6.714844 7.261719 3.097656 9.554688 C 3.039062 9.589844 2.257812 9.941406 1.96875 10.601562 C 2.160156 13.894531 7.367188 15.355469 10.222656 15.160156 C 13.652344 14.925781 16.621094 15.890625 18.796875 12.113281 C 18.941406 11.96875 19.0625 11.828125 19.183594 11.71875 C 19.027344 10.941406 17.746094 8.324219 14.410156 8.09375 Z M 14.410156 8.09375 "/>
<path style=" stroke:none;fill-rule:nonzero;fill:url(#linear4);" d="M 8.679688 11.875 C 9.414062 11.875 10.148438 11.691406 10.886719 11.875 C 14.015625 12.203125 18.179688 11.792969 19.542969 8.792969 C 19.429688 8.480469 19.1875 8.167969 18.695312 7.824219 C 17.613281 7.074219 17.023438 6.820312 16.375 6.414062 C 15.796875 6.050781 15.070312 5.871094 14.421875 5.691406 C 13.621094 5.472656 12.753906 5.257812 11.917969 5.277344 C 10.84375 5.304688 9.773438 5.21875 8.695312 5.378906 C 7.570312 5.542969 6.46875 5.871094 5.4375 6.355469 C 4.714844 6.691406 3.980469 7.046875 3.347656 7.542969 C 3.054688 7.773438 2.867188 8.144531 2.792969 8.566406 C 3.757812 10.894531 6.457031 11.703125 8.679688 11.875 Z M 8.679688 11.875 "/>
<path style=" stroke:none;fill-rule:nonzero;fill:url(#linear5);" d="M 10.886719 11.875 C 10.148438 11.691406 8.21875 11.691406 7.480469 11.691406 C 5.257812 11.519531 3.757812 10.898438 2.796875 8.566406 C 2.691406 9.175781 2.820312 9.882812 3.222656 10.398438 C 3.90625 11.277344 5.886719 12.410156 6.875 12.628906 C 7.863281 12.847656 8.570312 12.886719 10.210938 12.886719 C 11.851562 12.886719 13.09375 13.101562 13.683594 13.101562 C 14.269531 13.101562 14.765625 12.878906 15.816406 12.691406 C 16.871094 12.503906 16.871094 12.597656 17.828125 12.160156 C 18.789062 11.71875 19.53125 10.871094 19.59375 10.023438 C 19.625 9.5625 19.675781 9.175781 19.539062 8.792969 C 18.179688 11.792969 14.015625 12.203125 10.886719 11.875 Z M 10.886719 11.875 "/>
<use xlink:href="#surface8" mask="url(#mask1)"/>
<use xlink:href="#surface11" mask="url(#mask2)"/>
<path style=" stroke:none;fill-rule:nonzero;fill:rgb(99.215686%,91.372549%,82.352941%);fill-opacity:1;" d="M 8.738281 5.097656 C 8.371094 5.207031 8.011719 5.464844 7.683594 5.675781 C 7.117188 6.953125 8.480469 8.101562 9.511719 8.929688 C 10.3125 9.019531 11.140625 9.367188 11.941406 9.367188 C 12.285156 9.367188 12.507812 9.363281 12.839844 9.179688 C 13.144531 9.019531 13.25 8.695312 13.449219 8.523438 C 12.253906 8.085938 10.863281 7.992188 9.78125 7.273438 C 9.136719 6.949219 8.203125 6.058594 8.738281 5.097656 Z M 8.738281 5.097656 "/>
<path style=" stroke:none;fill-rule:nonzero;fill:rgb(93.333333%,83.137255%,70.980392%);fill-opacity:1;" d="M 8.757812 5.042969 C 8.738281 5.078125 8.707031 5.097656 8.707031 5.097656 C 8.175781 6.058594 9.121094 6.949219 9.769531 7.273438 C 10.847656 7.992188 12.246094 8.089844 13.441406 8.523438 C 13.460938 8.507812 13.488281 8.492188 13.511719 8.484375 C 12.597656 7.960938 11.585938 7.574219 10.519531 7.089844 C 9.675781 6.53125 9.007812 5.902344 8.757812 5.042969 Z M 8.757812 5.042969 "/>
<path style=" stroke:none;fill-rule:nonzero;fill:rgb(98.431373%,88.627451%,77.254902%);fill-opacity:1;" d="M 14.121094 6.507812 C 14.113281 6.507812 14.109375 6.507812 14.101562 6.507812 C 14.109375 6.511719 14.113281 6.515625 14.121094 6.515625 C 14.121094 6.515625 14.121094 6.511719 14.121094 6.507812 Z M 14.121094 6.507812 "/>
<path style=" stroke:none;fill-rule:nonzero;fill:rgb(99.215686%,91.372549%,82.352941%);fill-opacity:1;" d="M 14.117188 6.519531 C 14.113281 6.515625 14.105469 6.511719 14.101562 6.507812 C 13.464844 6.5 12.800781 6.511719 12.175781 6.355469 C 11.070312 6.171875 9.597656 5.066406 10.335938 3.777344 C 10.464844 3.390625 10.960938 3 11.5625 2.871094 C 11.636719 2.835938 11.710938 2.804688 11.789062 2.777344 C 9.257812 2.925781 8.828125 4.441406 8.757812 5.035156 C 8.773438 5.101562 8.910156 6.128906 10.519531 7.089844 C 11.585938 7.574219 12.605469 7.957031 13.515625 8.480469 C 13.515625 8.480469 13.519531 8.480469 13.519531 8.480469 C 13.609375 8.449219 13.707031 8.464844 13.804688 8.484375 C 13.898438 8.503906 13.996094 8.527344 14.089844 8.503906 C 14.253906 8.460938 14.351562 8.292969 14.425781 8.140625 C 14.566406 7.859375 14.859375 7.496094 14.875 7.175781 C 14.878906 7.070312 14.859375 6.980469 14.824219 6.910156 C 14.605469 6.769531 14.371094 6.640625 14.128906 6.519531 C 14.125 6.523438 14.121094 6.519531 14.117188 6.519531 Z M 14.117188 6.519531 "/>
<path style=" stroke:none;fill-rule:nonzero;fill:rgb(98.431373%,88.627451%,77.254902%);fill-opacity:1;" d="M 14.128906 6.523438 C 14.367188 6.644531 14.601562 6.773438 14.820312 6.917969 C 14.695312 6.679688 14.382812 6.617188 14.128906 6.523438 Z M 14.128906 6.523438 "/>
<path style=" stroke:none;fill-rule:nonzero;fill:rgb(85.098039%,75.686275%,64.705882%);fill-opacity:1;" d="M 10.886719 3.59375 C 10.886719 3.367188 11.171875 3.066406 11.5625 2.871094 C 10.957031 3.003906 10.460938 3.390625 10.332031 3.78125 C 9.597656 5.066406 11.070312 6.171875 12.171875 6.355469 C 12.800781 6.511719 13.460938 6.503906 14.097656 6.511719 C 12.675781 5.789062 11.027344 5.285156 10.886719 3.59375 Z M 10.886719 3.59375 "/>
<path style=" stroke:none;fill-rule:nonzero;fill:rgb(99.215686%,86.27451%,72.54902%);fill-opacity:1;" d="M 14.351562 5.496094 C 14.257812 4.792969 12.328125 4.484375 11.46875 4.023438 C 10.75 3.640625 11.597656 3.023438 11.890625 2.828125 C 11.777344 2.832031 11.667969 2.851562 11.5625 2.871094 C 11.171875 3.066406 10.886719 3.367188 10.886719 3.59375 C 11.027344 5.285156 12.675781 5.789062 14.097656 6.507812 C 14.105469 6.507812 14.113281 6.507812 14.121094 6.507812 C 14.246094 6.160156 14.398438 5.878906 14.351562 5.496094 Z M 14.351562 5.496094 "/>
<path style=" stroke:none;fill-rule:nonzero;fill:rgb(85.098039%,75.686275%,64.705882%);fill-opacity:1;" d="M 9.511719 8.929688 C 8.480469 8.101562 7.117188 6.957031 7.683594 5.675781 C 7.652344 5.699219 7.621094 5.71875 7.589844 5.738281 C 7.238281 6.675781 7.375 7.71875 7.871094 8.523438 C 8.351562 8.800781 8.875 8.867188 9.449219 8.921875 C 9.46875 8.921875 9.492188 8.929688 9.511719 8.929688 Z M 9.511719 8.929688 "/>
<path style=" stroke:none;fill-rule:nonzero;fill:rgb(99.215686%,94.901961%,90.196078%);fill-opacity:1;" d="M 7.589844 5.738281 C 7.589844 5.738281 7.585938 5.738281 7.585938 5.742188 C 7.089844 6.054688 6.785156 6.675781 6.894531 7.261719 C 6.96875 7.652344 7.199219 8 7.5 8.261719 C 7.621094 8.367188 7.742188 8.449219 7.867188 8.523438 C 7.375 7.71875 7.238281 6.671875 7.589844 5.738281 Z M 7.589844 5.738281 "/>
<use xlink:href="#surface14" mask="url(#mask3)"/>
</g>
</svg>
