<?xml version="1.0" encoding="UTF-8"?>
<svg xmlns="http://www.w3.org/2000/svg" xmlns:xlink="http://www.w3.org/1999/xlink" width="22px" height="22px" viewBox="0 0 22 22" version="1.1">
<defs>
<linearGradient id="linear0" gradientUnits="userSpaceOnUse" x1="17.1814" y1="71.7376" x2="45.3926" y2="73.7566" gradientTransform="matrix(0.171875,0,0,0.171875,0,0)">
<stop offset="0" style="stop-color:rgb(100%,23.921569%,16.470588%);stop-opacity:1;"/>
<stop offset="0.0408" style="stop-color:rgb(96.470588%,20.392157%,14.117647%);stop-opacity:1;"/>
<stop offset="0.1741" style="stop-color:rgb(86.666667%,11.372549%,7.843137%);stop-opacity:1;"/>
<stop offset="0.3141" style="stop-color:rgb(80%,5.098039%,3.529412%);stop-opacity:1;"/>
<stop offset="0.4638" style="stop-color:rgb(75.686275%,1.176471%,0.784314%);stop-opacity:1;"/>
<stop offset="0.6404" style="stop-color:rgb(74.509804%,0%,0%);stop-opacity:1;"/>
<stop offset="0.9902" style="stop-color:rgb(100%,8.235294%,0%);stop-opacity:1;"/>
</linearGradient>
<linearGradient id="linear1" gradientUnits="userSpaceOnUse" x1="5.4463" y1="156.2753" x2="33.7489" y2="158.3008" gradientTransform="matrix(0.169452,-0.0287375,0.0287375,0.169452,1.34157,-12.255564)">
<stop offset="0" style="stop-color:rgb(100%,23.921569%,16.470588%);stop-opacity:1;"/>
<stop offset="0.0408" style="stop-color:rgb(96.470588%,20.392157%,14.117647%);stop-opacity:1;"/>
<stop offset="0.1741" style="stop-color:rgb(86.666667%,11.372549%,7.843137%);stop-opacity:1;"/>
<stop offset="0.3141" style="stop-color:rgb(80%,5.098039%,3.529412%);stop-opacity:1;"/>
<stop offset="0.4638" style="stop-color:rgb(75.686275%,1.176471%,0.784314%);stop-opacity:1;"/>
<stop offset="0.6404" style="stop-color:rgb(74.509804%,0%,0%);stop-opacity:1;"/>
<stop offset="0.9902" style="stop-color:rgb(100%,8.235294%,0%);stop-opacity:1;"/>
</linearGradient>
<linearGradient id="linear2" gradientUnits="userSpaceOnUse" x1="64.8856" y1="78.7769" x2="93.0969" y2="80.7959" gradientTransform="matrix(0.171875,0,0,0.171875,0,0)">
<stop offset="0" style="stop-color:rgb(100%,23.921569%,16.470588%);stop-opacity:1;"/>
<stop offset="0.0408" style="stop-color:rgb(96.470588%,20.392157%,14.117647%);stop-opacity:1;"/>
<stop offset="0.1741" style="stop-color:rgb(86.666667%,11.372549%,7.843137%);stop-opacity:1;"/>
<stop offset="0.3141" style="stop-color:rgb(80%,5.098039%,3.529412%);stop-opacity:1;"/>
<stop offset="0.4638" style="stop-color:rgb(75.686275%,1.176471%,0.784314%);stop-opacity:1;"/>
<stop offset="0.6404" style="stop-color:rgb(74.509804%,0%,0%);stop-opacity:1;"/>
<stop offset="0.9902" style="stop-color:rgb(100%,8.235294%,0%);stop-opacity:1;"/>
</linearGradient>
<linearGradient id="linear3" gradientUnits="userSpaceOnUse" x1="76.4791" y1="68.9219" x2="104.6904" y2="70.9409" gradientTransform="matrix(0.171875,0,0,0.171875,0,0)">
<stop offset="0" style="stop-color:rgb(100%,23.921569%,16.470588%);stop-opacity:1;"/>
<stop offset="0.0408" style="stop-color:rgb(96.470588%,20.392157%,14.117647%);stop-opacity:1;"/>
<stop offset="0.1741" style="stop-color:rgb(86.666667%,11.372549%,7.843137%);stop-opacity:1;"/>
<stop offset="0.3141" style="stop-color:rgb(80%,5.098039%,3.529412%);stop-opacity:1;"/>
<stop offset="0.4638" style="stop-color:rgb(75.686275%,1.176471%,0.784314%);stop-opacity:1;"/>
<stop offset="0.6404" style="stop-color:rgb(74.509804%,0%,0%);stop-opacity:1;"/>
<stop offset="0.9902" style="stop-color:rgb(100%,8.235294%,0%);stop-opacity:1;"/>
</linearGradient>
<linearGradient id="linear4" gradientUnits="userSpaceOnUse" x1="93.5842" y1="54.1394" x2="121.7955" y2="56.1584" gradientTransform="matrix(0.171875,0,0,0.171875,0,0)">
<stop offset="0" style="stop-color:rgb(100%,23.921569%,16.470588%);stop-opacity:1;"/>
<stop offset="0.0408" style="stop-color:rgb(96.470588%,20.392157%,14.117647%);stop-opacity:1;"/>
<stop offset="0.1741" style="stop-color:rgb(86.666667%,11.372549%,7.843137%);stop-opacity:1;"/>
<stop offset="0.3141" style="stop-color:rgb(80%,5.098039%,3.529412%);stop-opacity:1;"/>
<stop offset="0.4638" style="stop-color:rgb(75.686275%,1.176471%,0.784314%);stop-opacity:1;"/>
<stop offset="0.6404" style="stop-color:rgb(74.509804%,0%,0%);stop-opacity:1;"/>
<stop offset="0.9902" style="stop-color:rgb(100%,8.235294%,0%);stop-opacity:1;"/>
</linearGradient>
<linearGradient id="linear5" gradientUnits="userSpaceOnUse" x1="21.1235" y1="39.2442" x2="124.0839" y2="39.2442" gradientTransform="matrix(0.171703,0.00773437,-0.00773437,0.171703,-1.165553,2.914794)">
<stop offset="0.00492611" style="stop-color:rgb(98.431373%,75.294118%,17.647059%);stop-opacity:1;"/>
<stop offset="0.0811" style="stop-color:rgb(98.823529%,79.215686%,18.823529%);stop-opacity:1;"/>
<stop offset="0.2088" style="stop-color:rgb(99.215686%,83.529412%,20.392157%);stop-opacity:1;"/>
<stop offset="0.3596" style="stop-color:rgb(99.215686%,84.705882%,20.784314%);stop-opacity:1;"/>
<stop offset="0.6897" style="stop-color:rgb(100%,96.078431%,61.568627%);stop-opacity:1;"/>
<stop offset="1" style="stop-color:rgb(99.215686%,84.705882%,20.784314%);stop-opacity:1;"/>
</linearGradient>
<linearGradient id="linear6" gradientUnits="userSpaceOnUse" x1="9.7318" y1="67.5274" x2="74.2848" y2="67.5274" gradientTransform="matrix(0.171875,0,0,0.171875,0,0)">
<stop offset="0" style="stop-color:rgb(100%,75.294118%,26.666667%);stop-opacity:1;"/>
<stop offset="0.8473" style="stop-color:rgb(85.098039%,37.254902%,13.72549%);stop-opacity:1;"/>
</linearGradient>
<linearGradient id="linear7" gradientUnits="userSpaceOnUse" x1="10.0135" y1="44.8872" x2="117.7911" y2="44.8872" gradientTransform="matrix(0.171875,0,0,0.171875,0,0)">
<stop offset="0" style="stop-color:rgb(100%,94.901961%,85.098039%);stop-opacity:1;"/>
<stop offset="0.8473" style="stop-color:rgb(96.862745%,82.745098%,59.607843%);stop-opacity:1;"/>
</linearGradient>
<linearGradient id="linear8" gradientUnits="userSpaceOnUse" x1="72.8355" y1="59.2006" x2="118.3971" y2="59.2006" gradientTransform="matrix(0.171875,0,0,0.171875,0,0)">
<stop offset="0" style="stop-color:rgb(100%,69.803922%,9.803922%);stop-opacity:1;"/>
<stop offset="0.8473" style="stop-color:rgb(79.215686%,26.27451%,0%);stop-opacity:1;"/>
</linearGradient>
<filter id="alpha" filterUnits="objectBoundingBox" x="0%" y="0%" width="100%" height="100%">
  <feColorMatrix type="matrix" in="SourceGraphic" values="0 0 0 0 1 0 0 0 0 1 0 0 0 0 1 0 0 0 1 0"/>
</filter>
<mask id="mask0">
  <g filter="url(#alpha)">
<rect x="0" y="0" width="22" height="22" style="fill:rgb(0%,0%,0%);fill-opacity:0.2;stroke:none;"/>
  </g>
</mask>
<clipPath id="clip1">
  <rect x="0" y="0" width="22" height="22"/>
</clipPath>
<g id="surface5" clip-path="url(#clip1)">
<path style=" stroke:none;fill-rule:nonzero;fill:rgb(25.882353%,25.882353%,25.882353%);fill-opacity:1;" d="M 9.785156 3.1875 C 10.054688 3.1875 10.371094 3.277344 10.8125 3.394531 C 10.925781 3.425781 11.042969 3.460938 11.171875 3.496094 C 11.511719 3.582031 12.59375 3.90625 13.84375 4.277344 C 16.011719 4.917969 18.460938 5.648438 19.074219 5.777344 C 19.320312 5.832031 19.59375 5.890625 19.707031 5.9375 C 19.707031 5.945312 19.710938 5.957031 19.710938 5.964844 C 19.710938 6.019531 19.722656 6.074219 19.738281 6.125 C 19.761719 6.453125 19.773438 6.785156 19.785156 7.121094 C 19.789062 7.191406 19.792969 7.261719 19.800781 7.34375 C 19.808594 7.5 19.824219 7.730469 19.804688 7.859375 C 19.796875 7.871094 19.785156 7.882812 19.769531 7.902344 C 19.65625 8.035156 19.613281 8.214844 19.65625 8.382812 C 19.703125 8.554688 19.824219 8.691406 19.988281 8.75 C 20.128906 8.804688 20.25 8.863281 20.347656 8.921875 C 20.410156 8.960938 20.476562 8.984375 20.546875 8.996094 L 20.546875 9.007812 C 20.546875 9.042969 20.550781 9.070312 20.554688 9.101562 C 20.554688 9.105469 20.554688 9.109375 20.554688 9.109375 C 20.554688 9.140625 20.554688 9.171875 20.554688 9.203125 C 20.566406 9.296875 20.582031 9.421875 20.640625 9.554688 C 20.660156 9.609375 20.691406 9.660156 20.722656 9.707031 C 20.625 9.78125 20.550781 9.898438 20.523438 10.027344 C 20.5 10.15625 20.523438 10.285156 20.585938 10.398438 C 20.382812 10.460938 20.210938 10.609375 20.117188 10.8125 C 20.023438 11.023438 20.015625 11.261719 20.101562 11.484375 C 20.171875 11.660156 20.292969 11.804688 20.429688 11.921875 C 20.394531 11.984375 20.351562 12.023438 20.335938 12.03125 C 20.109375 12.113281 19.960938 12.332031 19.980469 12.574219 C 20 12.886719 20.019531 13.21875 20.03125 13.589844 C 20.035156 13.660156 20.039062 13.734375 20.046875 13.8125 C 20.054688 13.972656 20.074219 14.203125 20.050781 14.328125 C 19.632812 14.855469 16.503906 17.859375 15.523438 18.578125 C 15.269531 18.769531 14.988281 18.976562 14.71875 19.183594 C 14.097656 19.65625 13.265625 20.285156 12.871094 20.476562 C 12.867188 20.476562 12.867188 20.476562 12.863281 20.476562 C 12.855469 20.476562 12.847656 20.476562 12.835938 20.476562 C 12.683594 20.476562 12.527344 20.410156 12.191406 20.269531 C 11.929688 20.160156 11.574219 20.007812 11.070312 19.84375 C 10.554688 19.671875 9.621094 19.382812 8.539062 19.050781 C 6.519531 18.433594 3.199219 17.410156 2.558594 17.097656 C 2.492188 16.898438 2.480469 16.40625 2.46875 16 C 2.464844 15.847656 2.464844 15.683594 2.457031 15.515625 C 2.453125 15.433594 2.464844 15.355469 2.484375 15.277344 C 2.496094 15.226562 2.519531 15.179688 2.546875 15.125 C 2.65625 14.921875 2.621094 14.667969 2.460938 14.503906 L 2.449219 14.492188 C 2.4375 14.480469 2.425781 14.46875 2.417969 14.460938 C 2.402344 14.4375 2.386719 14.421875 2.378906 14.410156 C 2.378906 14.410156 2.378906 14.40625 2.378906 14.40625 C 2.386719 14.398438 2.421875 14.363281 2.601562 14.199219 C 2.625 14.175781 2.648438 14.148438 2.671875 14.121094 C 2.699219 14.101562 2.730469 14.078125 2.753906 14.054688 L 2.894531 13.929688 C 3.074219 13.765625 3.121094 13.492188 3 13.277344 C 2.90625 13.101562 2.722656 13 2.53125 13 C 2.496094 13 2.457031 13.003906 2.421875 13.011719 C 2.394531 12.980469 2.367188 12.953125 2.335938 12.929688 C 2.429688 12.761719 2.429688 12.558594 2.332031 12.394531 C 2.152344 12.082031 1.832031 11.886719 1.488281 11.886719 C 1.457031 11.84375 1.417969 11.800781 1.371094 11.773438 C 1.371094 11.773438 1.371094 11.769531 1.371094 11.769531 L 1.632812 11.484375 C 1.660156 11.449219 1.6875 11.414062 1.707031 11.375 C 1.8125 11.371094 1.914062 11.347656 2.011719 11.3125 C 2.28125 11.207031 2.417969 10.90625 2.324219 10.636719 C 2.25 10.425781 2.238281 10.003906 2.226562 9.515625 C 2.222656 9.367188 2.21875 9.210938 2.214844 9.046875 C 2.210938 8.964844 2.21875 8.886719 2.242188 8.808594 C 2.355469 8.402344 2.792969 8.175781 2.792969 8.175781 C 2.832031 8.160156 2.863281 8.136719 2.898438 8.109375 C 2.9375 8.078125 6.886719 4.867188 8.347656 3.78125 C 8.449219 3.71875 8.992188 3.402344 9.460938 3.238281 C 9.566406 3.207031 9.667969 3.1875 9.785156 3.1875 M 20.9375 8.914062 L 20.9375 8.914062 M 9.785156 2.652344 C 9.617188 2.652344 9.453125 2.675781 9.285156 2.734375 C 8.695312 2.9375 8.042969 3.339844 8.042969 3.339844 C 6.574219 4.429688 2.554688 7.695312 2.554688 7.695312 C 2.554688 7.695312 1.90625 8.007812 1.722656 8.664062 C 1.6875 8.785156 1.667969 8.921875 1.675781 9.066406 C 1.703125 9.84375 1.683594 10.449219 1.8125 10.8125 C 1.761719 10.835938 1.710938 10.84375 1.660156 10.84375 C 1.53125 10.84375 1.386719 10.78125 1.167969 10.683594 C 1.113281 10.761719 1.070312 10.855469 1.042969 10.953125 C 1.101562 11.019531 1.164062 11.070312 1.230469 11.125 C 1.121094 11.242188 1.011719 11.367188 0.902344 11.488281 C 0.851562 11.402344 0.769531 11.34375 0.683594 11.335938 C 0.667969 11.648438 0.652344 11.960938 0.636719 12.269531 C 0.6875 12.289062 0.742188 12.296875 0.792969 12.296875 C 0.886719 12.296875 0.980469 12.269531 1.058594 12.214844 C 0.992188 12.476562 1.066406 12.785156 1.238281 12.957031 C 1.382812 12.839844 1.476562 12.636719 1.484375 12.425781 C 1.632812 12.425781 1.777344 12.519531 1.863281 12.664062 C 1.761719 12.824219 1.65625 12.988281 1.554688 13.148438 C 1.621094 13.292969 1.757812 13.382812 1.890625 13.382812 C 1.933594 13.382812 1.96875 13.378906 2.007812 13.363281 C 2.058594 13.527344 2.136719 13.675781 2.234375 13.808594 C 2.097656 13.933594 2.007812 14.019531 1.984375 14.046875 C 1.738281 14.320312 1.769531 14.535156 2.007812 14.8125 C 2.027344 14.835938 2.046875 14.859375 2.070312 14.882812 C 2.027344 14.960938 1.992188 15.046875 1.964844 15.140625 C 1.929688 15.261719 1.910156 15.394531 1.917969 15.539062 C 1.949219 16.46875 1.917969 17.15625 2.144531 17.476562 C 2.375 17.800781 9.136719 19.773438 10.898438 20.359375 C 12.039062 20.738281 12.371094 21.019531 12.832031 21.019531 C 12.847656 21.019531 12.867188 21.019531 12.882812 21.019531 C 12.886719 21.035156 12.890625 21.046875 12.894531 21.046875 C 12.894531 21.046875 12.894531 21.046875 12.898438 21.046875 C 13.453125 20.882812 14.792969 19.785156 15.839844 19.019531 C 16.882812 18.253906 20.445312 14.839844 20.542969 14.558594 C 20.636719 14.285156 20.578125 13.863281 20.566406 13.578125 C 20.554688 13.234375 20.539062 12.886719 20.511719 12.542969 C 20.75 12.460938 20.945312 12.199219 20.996094 11.898438 C 21.007812 11.820312 21.015625 11.742188 21.007812 11.660156 C 20.773438 11.566406 20.480469 11.308594 20.601562 11.042969 C 20.648438 10.945312 20.734375 10.902344 20.824219 10.902344 C 20.882812 10.902344 20.941406 10.921875 20.992188 10.957031 C 21.117188 11.042969 21.199219 11.207031 21.273438 11.359375 C 21.488281 10.972656 21.378906 10.371094 21.050781 10.136719 C 21.308594 10.074219 21.507812 9.75 21.484375 9.425781 C 21.457031 9.488281 21.40625 9.515625 21.355469 9.515625 C 21.269531 9.515625 21.171875 9.449219 21.132812 9.351562 C 21.105469 9.292969 21.097656 9.226562 21.089844 9.160156 C 21.089844 9.144531 21.09375 9.132812 21.09375 9.121094 C 21.09375 9.082031 21.089844 9.046875 21.082031 9.007812 C 21.082031 8.945312 21.078125 8.878906 21.074219 8.820312 C 21.066406 8.636719 20.992188 8.429688 20.847656 8.40625 C 20.835938 8.402344 20.824219 8.402344 20.816406 8.402344 C 20.75 8.402344 20.691406 8.4375 20.628906 8.472656 C 20.5 8.390625 20.34375 8.316406 20.171875 8.253906 C 20.242188 8.171875 20.289062 8.113281 20.296875 8.085938 C 20.390625 7.8125 20.332031 7.390625 20.320312 7.105469 C 20.304688 6.664062 20.285156 6.21875 20.246094 5.78125 C 20.25 5.84375 20.25 5.898438 20.242188 5.957031 C 20.230469 5.484375 19.980469 5.429688 19.179688 5.257812 C 18.234375 5.054688 12.222656 3.222656 11.308594 2.980469 C 10.65625 2.804688 10.203125 2.652344 9.785156 2.652344 Z M 2.390625 13.664062 C 2.386719 13.636719 2.386719 13.605469 2.382812 13.578125 C 2.429688 13.5625 2.476562 13.550781 2.527344 13.539062 C 2.476562 13.585938 2.433594 13.625 2.390625 13.664062 Z M 2.390625 13.664062 "/>
</g>
</defs>
<g id="surface1">
<path style=" stroke:none;fill-rule:nonzero;fill:rgb(87.45098%,53.333333%,14.901961%);fill-opacity:1;" d="M 12.761719 19.230469 C 12.273438 18.746094 11.636719 18.625 10.949219 18.382812 C 8.992188 17.835938 7.175781 17.414062 5.265625 16.628906 C 4.726562 16.445312 4.1875 16.386719 3.648438 16.265625 C 3.007812 16.078125 2.421875 15.710938 1.964844 15.136719 C 1.929688 15.257812 1.910156 15.394531 1.917969 15.539062 C 1.949219 16.46875 1.917969 17.152344 2.144531 17.472656 C 2.375 17.796875 9.136719 19.773438 10.898438 20.359375 C 12.128906 20.765625 12.417969 21.0625 12.945312 21.011719 C 12.878906 20.335938 13.234375 19.6875 12.761719 19.230469 Z M 12.761719 19.230469 "/>
<path style=" stroke:none;fill-rule:nonzero;fill:rgb(96.470588%,85.098039%,64.313725%);fill-opacity:1;" d="M 20.472656 12.738281 C 20.554688 11.972656 20.375 11.929688 19.425781 11.730469 C 18.480469 11.527344 12.46875 9.691406 11.554688 9.449219 C 10.640625 9.207031 10.117188 9.007812 9.53125 9.207031 C 8.941406 9.410156 8.289062 9.8125 8.289062 9.8125 C 6.820312 10.902344 2.800781 14.167969 2.800781 14.167969 C 2.800781 14.167969 2.152344 14.480469 1.96875 15.136719 C 2.425781 15.710938 3.007812 16.078125 3.652344 16.265625 C 4.191406 16.386719 4.730469 16.445312 5.269531 16.628906 C 7.179688 17.414062 8.996094 17.835938 10.953125 18.382812 C 11.613281 18.613281 12.300781 18.808594 12.78125 19.25 C 12.976562 19.039062 13.304688 19.089844 13.511719 18.894531 C 19.90625 13.816406 20.46875 12.777344 20.472656 12.738281 Z M 20.472656 12.738281 "/>
<path style=" stroke:none;fill-rule:nonzero;fill:rgb(84.313725%,38.431373%,3.137255%);fill-opacity:1;" d="M 13.449219 18.707031 C 13.242188 18.898438 12.761719 19.199219 12.761719 19.230469 C 12.824219 19.867188 12.839844 21.0625 12.898438 21.042969 C 13.453125 20.882812 14.792969 19.785156 15.839844 19.019531 C 16.882812 18.25 20.445312 14.839844 20.542969 14.554688 C 20.636719 14.28125 20.578125 13.859375 20.566406 13.574219 C 20.550781 13.132812 20.53125 12.691406 20.492188 12.25 C 20.53125 12.703125 20.238281 13.003906 19.984375 13.242188 C 17.929688 15.160156 15.84375 16.773438 13.449219 18.707031 Z M 13.449219 18.707031 "/>
<path style=" stroke:none;fill-rule:nonzero;fill:rgb(91.764706%,54.117647%,46.666667%);fill-opacity:1;" d="M 1.984375 14.046875 C 1.738281 14.320312 1.769531 14.535156 2.007812 14.8125 C 2.457031 15.339844 3.699219 15.984375 5.511719 16.105469 C 7.320312 16.226562 8.941406 15.628906 10.335938 12.757812 C 11.730469 9.882812 8.5 8.160156 8.5 8.160156 C 8.5 8.160156 2.230469 13.777344 1.984375 14.046875 Z M 1.984375 14.046875 "/>
<path style=" stroke:none;fill-rule:nonzero;fill:rgb(65.490196%,18.039216%,9.411765%);fill-opacity:1;" d="M 2.246094 14.1875 C 1.972656 14.441406 2.195312 15.097656 5.285156 15.722656 C 5.285156 15.722656 4.1875 14.792969 3.46875 14.351562 C 2.75 13.90625 2.507812 13.945312 2.246094 14.1875 Z M 2.246094 14.1875 "/>
<path style=" stroke:none;fill-rule:nonzero;fill:rgb(91.764706%,65.882353%,55.686275%);fill-opacity:1;" d="M 4.972656 14.894531 C 4.726562 15.167969 4.757812 15.382812 4.996094 15.660156 C 5.445312 16.183594 6.6875 16.828125 8.5 16.953125 C 10.3125 17.074219 11.929688 16.476562 13.324219 13.605469 C 14.722656 10.730469 11.488281 9.007812 11.488281 9.007812 C 11.488281 9.007812 5.21875 14.625 4.972656 14.894531 Z M 4.972656 14.894531 "/>
<path style=" stroke:none;fill-rule:nonzero;fill:rgb(65.490196%,18.039216%,9.411765%);fill-opacity:1;" d="M 5.234375 15.035156 C 4.960938 15.289062 5.183594 15.941406 8.273438 16.570312 C 8.273438 16.570312 7.175781 15.640625 6.460938 15.195312 C 5.742188 14.753906 5.496094 14.792969 5.234375 15.035156 Z M 5.234375 15.035156 "/>
<path style=" stroke:none;fill-rule:nonzero;fill:rgb(91.764706%,54.117647%,46.666667%);fill-opacity:1;" d="M 8.519531 15.929688 C 8.246094 16.230469 8.28125 16.472656 8.546875 16.785156 C 9.046875 17.367188 10.429688 18.085938 12.449219 18.222656 C 14.46875 18.355469 16.269531 17.695312 17.828125 14.492188 C 19.386719 11.289062 15.78125 9.371094 15.78125 9.371094 C 15.78125 9.371094 8.792969 15.625 8.519531 15.929688 Z M 8.519531 15.929688 "/>
<path style=" stroke:none;fill-rule:nonzero;fill:rgb(65.490196%,18.039216%,9.411765%);fill-opacity:1;" d="M 8.8125 16.085938 C 8.507812 16.367188 8.757812 17.097656 12.195312 17.792969 C 12.195312 17.792969 10.976562 16.757812 10.175781 16.265625 C 9.375 15.769531 9.101562 15.816406 8.8125 16.085938 Z M 8.8125 16.085938 "/>
<path style=" stroke:none;fill-rule:nonzero;fill:rgb(60.392157%,73.72549%,0%);fill-opacity:1;" d="M 21.050781 10.132812 C 21.308594 10.070312 21.507812 9.746094 21.484375 9.425781 C 21.414062 9.582031 21.199219 9.511719 21.132812 9.351562 C 21.066406 9.191406 21.085938 9 21.074219 8.820312 C 21.066406 8.636719 20.992188 8.429688 20.847656 8.40625 C 20.722656 8.382812 20.613281 8.503906 20.492188 8.535156 C 20.082031 8.648438 19.808594 7.761719 19.398438 7.890625 C 19.289062 7.925781 19.203125 8.035156 19.109375 8.125 C 18.683594 8.539062 18.082031 8.574219 17.554688 8.410156 C 17.027344 8.25 16.542969 7.921875 16.039062 7.671875 C 15.769531 7.539062 15.496094 7.429688 15.21875 7.339844 C 16.089844 9.097656 16.894531 10.914062 18.5625 11.542969 C 19.222656 11.765625 20.125 11.910156 20.996094 11.898438 C 21.007812 11.820312 21.015625 11.742188 21.007812 11.660156 C 20.773438 11.566406 20.480469 11.308594 20.601562 11.042969 C 20.675781 10.886719 20.863281 10.867188 20.992188 10.957031 C 21.117188 11.042969 21.199219 11.207031 21.273438 11.359375 C 21.488281 10.972656 21.378906 10.371094 21.050781 10.132812 Z M 21.050781 10.132812 "/>
<path style=" stroke:none;fill-rule:nonzero;fill:rgb(60.392157%,73.72549%,0%);fill-opacity:1;" d="M 3.394531 9.527344 C 2.976562 9.863281 2.558594 10.207031 2.15625 10.574219 C 1.746094 10.949219 1.632812 10.890625 1.167969 10.683594 C 1.113281 10.761719 1.070312 10.855469 1.042969 10.957031 C 1.101562 11.023438 1.164062 11.070312 1.230469 11.125 C 1.121094 11.246094 1.011719 11.367188 0.902344 11.488281 C 0.851562 11.402344 0.769531 11.34375 0.683594 11.339844 C 0.667969 11.648438 0.652344 11.960938 0.636719 12.269531 C 0.773438 12.324219 0.929688 12.304688 1.058594 12.214844 C 0.988281 12.476562 1.0625 12.789062 1.238281 12.960938 C 1.378906 12.84375 1.476562 12.636719 1.480469 12.425781 C 1.628906 12.425781 1.777344 12.519531 1.863281 12.667969 C 1.761719 12.828125 1.65625 12.988281 1.554688 13.148438 C 1.640625 13.335938 1.839844 13.433594 2.007812 13.363281 C 2.089844 13.625 2.234375 13.855469 2.414062 14.019531 C 2.40625 13.875 2.390625 13.726562 2.382812 13.578125 C 2.527344 13.539062 2.671875 13.5 2.816406 13.460938 C 2.808594 13.65625 2.800781 13.863281 2.878906 14.035156 C 2.957031 14.203125 3.160156 14.296875 3.28125 14.171875 C 3.230469 14.402344 3.335938 14.632812 3.492188 14.78125 C 3.714844 12.300781 4.589844 10.070312 5.558594 7.886719 C 4.832031 8.421875 4.105469 8.957031 3.394531 9.527344 Z M 3.394531 9.527344 "/>
<path style=" stroke:none;fill-rule:nonzero;fill:rgb(77.647059%,83.529412%,0%);fill-opacity:1;" d="M 9.785156 7.109375 C 9.078125 6.871094 8.378906 6.582031 7.660156 6.703125 C 7.042969 6.804688 6.488281 7.203125 5.953125 7.597656 C 5.820312 7.691406 5.691406 7.789062 5.558594 7.886719 C 4.589844 10.070312 3.714844 12.300781 3.492188 14.777344 C 3.539062 14.824219 3.59375 14.859375 3.644531 14.882812 C 3.878906 14.992188 4.140625 14.953125 4.386719 14.90625 C 4.464844 14.679688 4.382812 14.421875 4.378906 14.175781 C 4.375 13.929688 4.5625 13.636719 4.734375 13.761719 C 4.617188 14.21875 5.007812 14.613281 5.34375 14.855469 C 5.46875 14.945312 5.609375 15.039062 5.746094 14.992188 C 5.808594 14.96875 5.867188 14.921875 5.929688 14.90625 C 6.203125 14.84375 6.308594 15.363281 6.5625 15.488281 C 6.828125 15.617188 7.089844 15.082031 6.875 14.851562 C 7.1875 14.628906 7.511719 15.117188 7.664062 15.527344 C 7.765625 15.8125 7.957031 16.132812 8.167969 16.226562 C 9.773438 13.9375 9.808594 10.308594 9.785156 7.109375 Z M 9.785156 7.109375 "/>
<path style=" stroke:none;fill-rule:nonzero;fill:rgb(60.392157%,73.72549%,0%);fill-opacity:1;" d="M 15.972656 16.335938 C 15.796875 16.28125 15.640625 16.109375 15.625 15.886719 C 15.625 15.882812 15.625 15.882812 15.625 15.882812 C 15.496094 15.699219 15.382812 15.519531 15.296875 15.363281 C 13.949219 12.457031 12.460938 9.910156 10.917969 7.375 C 10.535156 7.347656 10.15625 7.234375 9.785156 7.109375 C 9.808594 10.308594 9.773438 13.9375 8.167969 16.226562 C 8.257812 16.265625 8.351562 16.261719 8.449219 16.195312 C 8.390625 15.996094 8.613281 15.832031 8.785156 15.871094 C 8.953125 15.910156 9.109375 16.042969 9.28125 16.046875 C 9.546875 16.046875 9.753906 15.644531 9.640625 15.347656 C 9.832031 15.136719 10.140625 15.324219 10.304688 15.570312 C 10.46875 15.8125 10.601562 16.128906 10.84375 16.222656 C 11.050781 16.304688 11.265625 16.203125 11.476562 16.148438 C 11.6875 16.09375 11.949219 16.113281 12.058594 16.339844 C 12.136719 16.492188 12.121094 16.703125 12.21875 16.835938 C 12.316406 16.972656 12.488281 16.964844 12.636719 16.996094 C 12.96875 17.066406 13.230469 17.367188 13.523438 17.574219 C 13.816406 17.777344 14.230469 17.859375 14.453125 17.546875 C 14.257812 17.34375 14.269531 16.902344 14.480469 16.714844 C 14.6875 16.527344 15.03125 16.652344 15.125 16.949219 C 15.152344 17.035156 15.164062 17.132812 15.214844 17.203125 C 15.316406 17.335938 15.496094 17.265625 15.617188 17.164062 C 15.824219 16.992188 15.984375 16.742188 16.082031 16.457031 C 16.042969 16.417969 16.011719 16.378906 15.972656 16.335938 Z M 15.972656 16.335938 "/>
<path style=" stroke:none;fill-rule:nonzero;fill:rgb(60.392157%,73.72549%,0%);fill-opacity:1;" d="M 15.972656 16.335938 C 16.007812 16.378906 16.042969 16.417969 16.078125 16.457031 C 16.089844 16.421875 16.101562 16.390625 16.113281 16.355469 C 16.070312 16.359375 16.019531 16.351562 15.972656 16.335938 Z M 15.972656 16.335938 "/>
<path style=" stroke:none;fill-rule:nonzero;fill:rgb(60.392157%,73.72549%,0%);fill-opacity:1;" d="M 12.796875 7.132812 C 12.1875 7.21875 11.578125 7.410156 10.964844 7.378906 C 10.949219 7.378906 10.933594 7.375 10.917969 7.375 C 12.460938 9.910156 13.949219 12.457031 15.296875 15.363281 C 15.382812 15.519531 15.496094 15.703125 15.625 15.882812 C 15.609375 15.605469 15.890625 15.351562 16.082031 15.507812 C 15.96875 15.226562 15.851562 14.925781 15.875 14.613281 C 15.898438 14.300781 16.128906 13.992188 16.375 14.050781 C 16.625 14.113281 16.773438 14.496094 17.023438 14.5 C 17.160156 14.5 17.265625 14.398438 17.367188 14.277344 C 17.15625 11.84375 14.824219 9.433594 13.445312 7.078125 C 13.234375 7.082031 13.015625 7.101562 12.796875 7.132812 Z M 12.796875 7.132812 "/>
<path style=" stroke:none;fill-rule:nonzero;fill:rgb(47.843137%,55.686275%,0%);fill-opacity:1;" d="M 18.5625 11.542969 C 16.898438 10.910156 16.089844 9.097656 15.21875 7.335938 C 14.640625 7.15625 14.042969 7.066406 13.449219 7.078125 C 14.824219 9.429688 17.15625 11.84375 17.371094 14.277344 C 17.507812 14.113281 17.640625 13.917969 17.824219 13.917969 C 17.9375 13.921875 18.050781 14.003906 18.160156 13.964844 C 18.335938 13.90625 18.375 13.59375 18.539062 13.496094 C 18.75 13.371094 19.054688 13.660156 19.214844 13.449219 C 19.363281 13.25 19.152344 12.957031 18.96875 12.816406 C 18.878906 12.480469 19.25 12.21875 19.53125 12.28125 C 19.8125 12.347656 20.066406 12.570312 20.351562 12.574219 C 20.65625 12.574219 20.933594 12.261719 20.996094 11.894531 C 20.125 11.910156 19.222656 11.765625 18.5625 11.542969 Z M 18.5625 11.542969 "/>
<path style=" stroke:none;fill-rule:nonzero;fill:url(#linear0);" d="M 7.964844 12.496094 C 7.964844 11.671875 6.753906 11.003906 5.257812 11.003906 C 3.765625 11.003906 2.554688 11.671875 2.554688 12.496094 C 2.554688 13.320312 3.765625 13.988281 5.257812 13.988281 C 6.753906 13.988281 7.964844 13.320312 7.964844 12.496094 Z M 7.964844 12.496094 "/>
<path style=" stroke:none;fill-rule:nonzero;fill:rgb(89.411765%,25.098039%,0%);fill-opacity:1;" d="M 7.960938 12.140625 C 7.960938 11.511719 6.785156 11 5.332031 11 C 3.878906 11 2.703125 11.511719 2.703125 12.140625 C 2.703125 12.769531 3.878906 13.28125 5.332031 13.28125 C 6.785156 13.28125 7.960938 12.769531 7.960938 12.140625 Z M 7.960938 12.140625 "/>
<path style=" stroke:none;fill-rule:nonzero;fill:rgb(53.72549%,7.45098%,0.392157%);fill-opacity:1;" d="M 7.960938 11.988281 C 7.960938 11.445312 6.847656 11 5.472656 11 C 4.09375 11 2.980469 11.445312 2.980469 11.988281 C 2.980469 12.535156 4.09375 12.976562 5.472656 12.976562 C 6.847656 12.976562 7.960938 12.535156 7.960938 11.988281 Z M 7.960938 11.988281 "/>
<path style=" stroke:none;fill-rule:nonzero;fill:url(#linear1);" d="M 11.730469 13.289062 C 11.839844 14.101562 10.738281 15.007812 9.265625 15.316406 C 7.792969 15.625 6.511719 15.214844 6.398438 14.40625 C 6.289062 13.59375 7.390625 12.683594 8.863281 12.375 C 10.332031 12.066406 11.617188 12.476562 11.730469 13.289062 Z M 11.730469 13.289062 "/>
<path style=" stroke:none;fill-rule:nonzero;fill:rgb(89.411765%,25.098039%,0%);fill-opacity:1;" d="M 11.679688 12.941406 C 11.765625 13.5625 10.671875 14.308594 9.242188 14.605469 C 7.808594 14.90625 6.578125 14.644531 6.496094 14.023438 C 6.410156 13.40625 7.503906 12.660156 8.933594 12.359375 C 10.367188 12.058594 11.597656 12.320312 11.679688 12.941406 Z M 11.679688 12.941406 "/>
<path style=" stroke:none;fill-rule:nonzero;fill:rgb(53.72549%,7.45098%,0.392157%);fill-opacity:1;" d="M 11.660156 12.789062 C 11.734375 13.328125 10.695312 13.996094 9.339844 14.28125 C 7.984375 14.5625 6.824219 14.355469 6.75 13.820312 C 6.675781 13.28125 7.714844 12.613281 9.070312 12.332031 C 10.425781 12.046875 11.585938 12.253906 11.660156 12.789062 Z M 11.660156 12.789062 "/>
<path style=" stroke:none;fill-rule:nonzero;fill:url(#linear2);" d="M 16.160156 13.707031 C 16.160156 12.882812 14.949219 12.214844 13.457031 12.214844 C 11.964844 12.214844 10.753906 12.882812 10.753906 13.707031 C 10.753906 14.527344 11.964844 15.195312 13.457031 15.195312 C 14.949219 15.195312 16.160156 14.527344 16.160156 13.707031 Z M 16.160156 13.707031 "/>
<path style=" stroke:none;fill-rule:nonzero;fill:rgb(89.411765%,25.098039%,0%);fill-opacity:1;" d="M 16.160156 13.351562 C 16.160156 12.722656 14.984375 12.210938 13.53125 12.210938 C 12.078125 12.210938 10.902344 12.722656 10.902344 13.351562 C 10.902344 13.980469 12.078125 14.492188 13.53125 14.492188 C 14.984375 14.492188 16.160156 13.980469 16.160156 13.351562 Z M 16.160156 13.351562 "/>
<path style=" stroke:none;fill-rule:nonzero;fill:rgb(53.72549%,7.45098%,0.392157%);fill-opacity:1;" d="M 15.800781 13.199219 C 15.800781 12.675781 14.757812 12.253906 13.472656 12.253906 C 12.1875 12.253906 11.144531 12.675781 11.144531 13.199219 C 11.144531 13.722656 12.1875 14.148438 13.472656 14.148438 C 14.757812 14.148438 15.800781 13.722656 15.800781 13.199219 Z M 15.800781 13.199219 "/>
<path style=" stroke:none;fill-rule:nonzero;fill:url(#linear3);" d="M 18.152344 12.011719 C 18.152344 11.1875 16.941406 10.519531 15.449219 10.519531 C 13.957031 10.519531 12.746094 11.1875 12.746094 12.011719 C 12.746094 12.835938 13.957031 13.503906 15.449219 13.503906 C 16.941406 13.503906 18.152344 12.835938 18.152344 12.011719 Z M 18.152344 12.011719 "/>
<path style=" stroke:none;fill-rule:nonzero;fill:rgb(89.411765%,25.098039%,0%);fill-opacity:1;" d="M 18.152344 11.660156 C 18.152344 11.027344 16.976562 10.519531 15.523438 10.519531 C 14.070312 10.519531 12.894531 11.027344 12.894531 11.660156 C 12.894531 12.289062 14.070312 12.796875 15.523438 12.796875 C 16.976562 12.796875 18.152344 12.289062 18.152344 11.660156 Z M 18.152344 11.660156 "/>
<path style=" stroke:none;fill-rule:nonzero;fill:rgb(53.72549%,7.45098%,0.392157%);fill-opacity:1;" d="M 17.792969 11.507812 C 17.792969 10.984375 16.753906 10.558594 15.46875 10.558594 C 14.183594 10.558594 13.140625 10.984375 13.140625 11.507812 C 13.140625 12.03125 14.183594 12.453125 15.46875 12.453125 C 16.753906 12.453125 17.792969 12.03125 17.792969 11.507812 Z M 17.792969 11.507812 "/>
<path style=" stroke:none;fill-rule:nonzero;fill:url(#linear4);" d="M 21.09375 9.46875 C 21.09375 8.644531 19.882812 7.976562 18.390625 7.976562 C 16.898438 7.976562 15.6875 8.644531 15.6875 9.46875 C 15.6875 10.292969 16.898438 10.960938 18.390625 10.960938 C 19.882812 10.960938 21.09375 10.292969 21.09375 9.46875 Z M 21.09375 9.46875 "/>
<path style=" stroke:none;fill-rule:nonzero;fill:rgb(89.411765%,25.098039%,0%);fill-opacity:1;" d="M 21.09375 9.117188 C 21.09375 8.488281 19.917969 7.976562 18.464844 7.976562 C 17.011719 7.976562 15.835938 8.488281 15.835938 9.117188 C 15.835938 9.746094 17.011719 10.257812 18.464844 10.257812 C 19.917969 10.257812 21.09375 9.746094 21.09375 9.117188 Z M 21.09375 9.117188 "/>
<path style=" stroke:none;fill-rule:nonzero;fill:rgb(53.72549%,7.45098%,0.392157%);fill-opacity:1;" d="M 20.734375 8.964844 C 20.734375 8.445312 19.691406 8.019531 18.40625 8.019531 C 17.121094 8.019531 16.078125 8.445312 16.078125 8.964844 C 16.078125 9.488281 17.121094 9.914062 18.40625 9.914062 C 19.691406 9.914062 20.734375 9.488281 20.734375 8.964844 Z M 20.734375 8.964844 "/>
<path style=" stroke:none;fill-rule:nonzero;fill:url(#linear5);" d="M 2.386719 10.40625 C 2.28125 10.503906 2.167969 10.613281 2.125 10.769531 C 2.054688 11.027344 2.21875 11.3125 2.421875 11.433594 C 2.621094 11.558594 2.851562 11.574219 3.066406 11.648438 C 4.097656 12.007812 4.609375 13.5625 5.628906 13.964844 C 6.347656 14.25 7.117188 13.882812 7.863281 13.753906 C 8.835938 13.585938 9.855469 13.835938 10.703125 14.453125 C 11.390625 14.953125 12.09375 15.726562 12.875 15.503906 C 13.394531 15.359375 13.757812 14.808594 14.164062 14.382812 C 14.828125 13.691406 15.6875 13.289062 16.558594 13.261719 C 16.824219 13.253906 17.101562 13.277344 17.359375 13.1875 C 17.78125 13.035156 18.09375 12.578125 18.289062 12.09375 C 18.488281 11.605469 18.597656 11.070312 18.777344 10.570312 C 19.011719 9.898438 19.371094 9.292969 19.820312 8.808594 C 19.867188 8.757812 19.921875 8.453125 19.9375 8.378906 C 19.960938 8.257812 19.871094 8.394531 19.792969 8.316406 C 19.261719 7.789062 18.542969 7.664062 17.875 7.484375 C 16.105469 7.015625 14.445312 6.054688 12.703125 5.441406 C 10.964844 4.832031 9.027344 4.597656 7.390625 5.558594 C 6.960938 5.8125 6.726562 6.136719 6.441406 6.585938 C 6.121094 7.082031 5.640625 7.421875 5.230469 7.796875 C 4.28125 8.667969 3.335938 9.539062 2.386719 10.40625 Z M 2.386719 10.40625 "/>
<path style=" stroke:none;fill-rule:nonzero;fill:url(#linear6);" d="M 12.519531 12.757812 C 12.03125 12.273438 11.390625 12.152344 10.707031 11.910156 C 8.746094 11.363281 6.933594 10.941406 5.023438 10.15625 C 4.484375 9.972656 3.945312 9.910156 3.40625 9.792969 C 2.761719 9.605469 2.179688 9.238281 1.71875 8.664062 C 1.6875 8.785156 1.667969 8.921875 1.671875 9.066406 C 1.703125 9.996094 1.671875 10.679688 1.902344 11 C 2.132812 11.324219 8.894531 13.300781 10.65625 13.886719 C 11.886719 14.292969 12.175781 14.589844 12.703125 14.539062 C 12.632812 13.863281 12.992188 13.214844 12.519531 12.757812 Z M 12.519531 12.757812 "/>
<path style=" stroke:none;fill-rule:nonzero;fill:url(#linear7);" d="M 20.226562 6.265625 C 20.308594 5.5 20.128906 5.457031 19.183594 5.257812 C 18.234375 5.054688 12.226562 3.21875 11.3125 2.976562 C 10.398438 2.734375 9.875 2.535156 9.285156 2.734375 C 8.699219 2.9375 8.046875 3.339844 8.046875 3.339844 C 6.574219 4.429688 2.558594 7.695312 2.558594 7.695312 C 2.558594 7.695312 1.90625 8.007812 1.722656 8.664062 C 2.183594 9.238281 2.765625 9.605469 3.410156 9.792969 C 3.949219 9.910156 4.484375 9.972656 5.027344 10.15625 C 6.9375 10.941406 8.75 11.363281 10.710938 11.910156 C 11.367188 12.140625 12.058594 12.335938 12.539062 12.777344 C 12.734375 12.566406 13.0625 12.617188 13.269531 12.421875 C 19.660156 7.34375 20.222656 6.304688 20.226562 6.265625 Z M 20.226562 6.265625 "/>
<path style=" stroke:none;fill-rule:nonzero;fill:url(#linear8);" d="M 13.207031 12.230469 C 12.996094 12.425781 12.515625 12.726562 12.519531 12.757812 C 12.582031 13.390625 12.597656 14.589844 12.652344 14.570312 C 13.207031 14.410156 14.546875 13.3125 15.59375 12.546875 C 16.640625 11.777344 20.199219 8.367188 20.296875 8.082031 C 20.394531 7.808594 20.332031 7.386719 20.324219 7.101562 C 20.308594 6.660156 20.289062 6.214844 20.246094 5.777344 C 20.289062 6.230469 19.992188 6.53125 19.738281 6.769531 C 17.6875 8.6875 15.597656 10.300781 13.207031 12.230469 Z M 13.207031 12.230469 "/>
<use xlink:href="#surface5" mask="url(#mask0)"/>
</g>
</svg>
