<?xml version="1.0" encoding="UTF-8"?>
<svg xmlns="http://www.w3.org/2000/svg" xmlns:xlink="http://www.w3.org/1999/xlink" width="22px" height="22px" viewBox="0 0 22 22" version="1.1">
<defs>
<linearGradient id="linear0" gradientUnits="userSpaceOnUse" x1="6.0822" y1="73.1404" x2="23.327" y2="73.1404" gradientTransform="matrix(0.170964,0.0177031,-0.0212609,0.205373,1.182191,-3.015616)">
<stop offset="0" style="stop-color:rgb(94.509804%,20%,11.764706%);stop-opacity:1;"/>
<stop offset="0.2943" style="stop-color:rgb(93.72549%,20%,11.764706%);stop-opacity:1;"/>
<stop offset="0.4654" style="stop-color:rgb(90.196078%,20%,11.372549%);stop-opacity:1;"/>
<stop offset="0.6049" style="stop-color:rgb(84.705882%,19.607843%,10.980392%);stop-opacity:1;"/>
<stop offset="0.7274" style="stop-color:rgb(76.862745%,19.215686%,10.196078%);stop-opacity:1;"/>
<stop offset="0.8388" style="stop-color:rgb(66.666667%,18.823529%,9.019608%);stop-opacity:1;"/>
<stop offset="0.9406" style="stop-color:rgb(54.509804%,18.431373%,7.843137%);stop-opacity:1;"/>
<stop offset="1" style="stop-color:rgb(45.882353%,18.039216%,7.058824%);stop-opacity:1;"/>
</linearGradient>
<linearGradient id="linear1" gradientUnits="userSpaceOnUse" x1="112.265" y1="63.9914" x2="129.5097" y2="63.9914" gradientTransform="matrix(-0.170964,0.0177031,0.0212609,0.205373,39.176637,-3.015616)">
<stop offset="0" style="stop-color:rgb(94.509804%,20%,11.764706%);stop-opacity:1;"/>
<stop offset="0.2943" style="stop-color:rgb(93.72549%,20%,11.764706%);stop-opacity:1;"/>
<stop offset="0.4654" style="stop-color:rgb(90.196078%,20%,11.372549%);stop-opacity:1;"/>
<stop offset="0.6049" style="stop-color:rgb(84.705882%,19.607843%,10.980392%);stop-opacity:1;"/>
<stop offset="0.7274" style="stop-color:rgb(76.862745%,19.215686%,10.196078%);stop-opacity:1;"/>
<stop offset="0.8388" style="stop-color:rgb(66.666667%,18.823529%,9.019608%);stop-opacity:1;"/>
<stop offset="0.9406" style="stop-color:rgb(54.509804%,18.431373%,7.843137%);stop-opacity:1;"/>
<stop offset="1" style="stop-color:rgb(45.882353%,18.039216%,7.058824%);stop-opacity:1;"/>
</linearGradient>
<radialGradient id="radial0" gradientUnits="userSpaceOnUse" cx="64" cy="96.6181" fx="64" fy="96.6181" r="38.6316" gradientTransform="matrix(0.168988,0,0,0.171875,0.163505,0)">
<stop offset="0" style="stop-color:rgb(94.509804%,20%,11.764706%);stop-opacity:1;"/>
<stop offset="0.4224" style="stop-color:rgb(93.72549%,20%,11.372549%);stop-opacity:1;"/>
<stop offset="0.6678" style="stop-color:rgb(90.196078%,19.607843%,10.588235%);stop-opacity:1;"/>
<stop offset="0.8673" style="stop-color:rgb(84.705882%,18.823529%,8.627451%);stop-opacity:1;"/>
<stop offset="1" style="stop-color:rgb(79.215686%,18.039216%,7.058824%);stop-opacity:1;"/>
</radialGradient>
<linearGradient id="linear2" gradientUnits="userSpaceOnUse" x1="17.0891" y1="65.536" x2="119.007" y2="65.536" gradientTransform="matrix(0.171875,0,0,0.171875,0,0)">
<stop offset="0" style="stop-color:rgb(94.509804%,91.372549%,90.196078%);stop-opacity:1;"/>
<stop offset="0.2188" style="stop-color:rgb(83.921569%,81.568627%,80.392157%);stop-opacity:1;"/>
<stop offset="0.5503" style="stop-color:rgb(70.196078%,69.019608%,67.843137%);stop-opacity:1;"/>
<stop offset="0.8227" style="stop-color:rgb(61.960784%,61.176471%,60%);stop-opacity:1;"/>
<stop offset="1" style="stop-color:rgb(58.823529%,58.431373%,57.254902%);stop-opacity:1;"/>
</linearGradient>
<linearGradient id="linear3" gradientUnits="userSpaceOnUse" x1="63.4097" y1="33.1846" x2="63.4097" y2="96.1467" gradientTransform="matrix(0.171875,0,0,0.171875,0,0)">
<stop offset="0" style="stop-color:rgb(94.509804%,91.372549%,90.196078%);stop-opacity:1;"/>
<stop offset="0.2725" style="stop-color:rgb(86.27451%,83.921569%,82.745098%);stop-opacity:1;"/>
<stop offset="0.8312" style="stop-color:rgb(65.490196%,64.705882%,63.529412%);stop-opacity:1;"/>
<stop offset="1" style="stop-color:rgb(58.823529%,58.431373%,57.254902%);stop-opacity:1;"/>
</linearGradient>
<clipPath id="clip1">
  <path d="M 3 6 L 19 6 L 19 17 L 3 17 Z M 3 6 "/>
</clipPath>
<clipPath id="clip2">
  <path d="M 18.519531 11.34375 C 18.519531 8.394531 15.082031 6.007812 10.839844 6.007812 C 6.597656 6.007812 3.15625 8.394531 3.15625 11.34375 C 3.15625 14.289062 6.597656 16.675781 10.839844 16.675781 C 15.082031 16.675781 18.519531 14.289062 18.519531 11.34375 Z M 18.519531 11.34375 "/>
</clipPath>
<radialGradient id="radial1" gradientUnits="userSpaceOnUse" cx="62.0822" cy="74.75" fx="62.0822" fy="74.75" r="47.225" gradientTransform="matrix(0.171875,-0.000299943,0.000264965,0.151834,-0.0197141,1.516831)">
<stop offset="0.1773" style="stop-color:rgb(67.843137%,26.666667%,12.156863%);stop-opacity:1;"/>
<stop offset="0.3545" style="stop-color:rgb(65.490196%,23.921569%,11.764706%);stop-opacity:1;"/>
<stop offset="0.6159" style="stop-color:rgb(58.823529%,16.078431%,10.196078%);stop-opacity:1;"/>
<stop offset="0.9279" style="stop-color:rgb(47.843137%,3.529412%,8.235294%);stop-opacity:1;"/>
<stop offset="1" style="stop-color:rgb(45.098039%,0%,7.45098%);stop-opacity:1;"/>
</radialGradient>
<radialGradient id="radial2" gradientUnits="userSpaceOnUse" cx="92.4191" cy="66.0927" fx="92.4191" fy="66.0927" r="13.9165" gradientTransform="matrix(0.137689,-0.07205,0.0655359,0.125228,-1.530409,9.424491)">
<stop offset="0.2759" style="stop-color:rgb(94.117647%,83.529412%,73.333333%);stop-opacity:1;"/>
<stop offset="0.4823" style="stop-color:rgb(91.372549%,78.823529%,66.27451%);stop-opacity:1;"/>
<stop offset="0.7955" style="stop-color:rgb(88.235294%,72.941176%,58.039216%);stop-opacity:1;"/>
<stop offset="1" style="stop-color:rgb(87.058824%,70.980392%,54.901961%);stop-opacity:1;"/>
</radialGradient>
<linearGradient id="linear4" gradientUnits="userSpaceOnUse" x1="60.0424" y1="61.5469" x2="79.7463" y2="61.5469" gradientTransform="matrix(0.171875,0,0,0.171875,0,0)">
<stop offset="0" style="stop-color:rgb(67.843137%,26.666667%,12.156863%);stop-opacity:1;"/>
<stop offset="0.1043" style="stop-color:rgb(72.156863%,29.411765%,12.156863%);stop-opacity:1;"/>
<stop offset="0.4847" style="stop-color:rgb(85.882353%,38.431373%,12.54902%);stop-opacity:1;"/>
<stop offset="0.7968" style="stop-color:rgb(94.117647%,43.921569%,12.941176%);stop-opacity:1;"/>
<stop offset="1" style="stop-color:rgb(97.254902%,45.882353%,12.941176%);stop-opacity:1;"/>
</linearGradient>
<radialGradient id="radial3" gradientUnits="userSpaceOnUse" cx="39.148" cy="59.0652" fx="39.148" fy="59.0652" r="10.8544" gradientTransform="matrix(0.171875,0,0,0.171875,0,0)">
<stop offset="0.2759" style="stop-color:rgb(94.117647%,83.529412%,73.333333%);stop-opacity:1;"/>
<stop offset="0.4823" style="stop-color:rgb(91.372549%,78.823529%,66.27451%);stop-opacity:1;"/>
<stop offset="0.7955" style="stop-color:rgb(88.235294%,72.941176%,58.039216%);stop-opacity:1;"/>
<stop offset="1" style="stop-color:rgb(87.058824%,70.980392%,54.901961%);stop-opacity:1;"/>
</radialGradient>
<linearGradient id="linear5" gradientUnits="userSpaceOnUse" x1="41.2971" y1="88.2355" x2="58.0983" y2="88.2355" gradientTransform="matrix(0.171875,0,0,0.171875,0,0)">
<stop offset="0" style="stop-color:rgb(67.843137%,26.666667%,12.156863%);stop-opacity:1;"/>
<stop offset="0.1043" style="stop-color:rgb(72.156863%,29.411765%,12.156863%);stop-opacity:1;"/>
<stop offset="0.4847" style="stop-color:rgb(85.882353%,38.431373%,12.54902%);stop-opacity:1;"/>
<stop offset="0.7968" style="stop-color:rgb(94.117647%,43.921569%,12.941176%);stop-opacity:1;"/>
<stop offset="1" style="stop-color:rgb(97.254902%,45.882353%,12.941176%);stop-opacity:1;"/>
</linearGradient>
<linearGradient id="linear6" gradientUnits="userSpaceOnUse" x1="75.6116" y1="81.8502" x2="89.6997" y2="81.8502" gradientTransform="matrix(0.171875,0,0,0.171875,0,0)">
<stop offset="0" style="stop-color:rgb(67.843137%,26.666667%,12.156863%);stop-opacity:1;"/>
<stop offset="0.1043" style="stop-color:rgb(72.156863%,29.411765%,12.156863%);stop-opacity:1;"/>
<stop offset="0.4847" style="stop-color:rgb(85.882353%,38.431373%,12.54902%);stop-opacity:1;"/>
<stop offset="0.7968" style="stop-color:rgb(94.117647%,43.921569%,12.941176%);stop-opacity:1;"/>
<stop offset="1" style="stop-color:rgb(97.254902%,45.882353%,12.941176%);stop-opacity:1;"/>
</linearGradient>
<filter id="alpha" filterUnits="objectBoundingBox" x="0%" y="0%" width="100%" height="100%">
  <feColorMatrix type="matrix" in="SourceGraphic" values="0 0 0 0 1 0 0 0 0 1 0 0 0 0 1 0 0 0 1 0"/>
</filter>
<mask id="mask0">
  <g filter="url(#alpha)">
<rect x="0" y="0" width="22" height="22" style="fill:rgb(0%,0%,0%);fill-opacity:0.2;stroke:none;"/>
  </g>
</mask>
<clipPath id="clip3">
  <rect x="0" y="0" width="22" height="22"/>
</clipPath>
<g id="surface5" clip-path="url(#clip3)">
<path style=" stroke:none;fill-rule:nonzero;fill:rgb(25.882353%,25.882353%,25.882353%);fill-opacity:1;" d="M 11 5.652344 C 14.796875 5.652344 18.085938 7.707031 18.648438 10.429688 C 18.675781 10.566406 18.757812 10.683594 18.871094 10.757812 C 18.777344 10.855469 18.722656 10.988281 18.730469 11.128906 L 18.730469 11.1875 C 18.734375 11.210938 18.734375 11.238281 18.734375 11.265625 C 18.734375 11.59375 18.691406 11.929688 18.605469 12.265625 C 18.601562 12.292969 18.59375 12.320312 18.59375 12.351562 C 18.589844 12.417969 18.582031 12.503906 18.570312 12.601562 C 18.554688 12.761719 18.617188 12.921875 18.734375 13.035156 C 18.832031 13.121094 18.957031 13.167969 19.085938 13.167969 C 19.117188 13.167969 19.148438 13.164062 19.179688 13.160156 C 19.507812 13.097656 20.117188 12.933594 20.53125 12.519531 C 20.691406 12.355469 20.773438 12.195312 20.8125 12.046875 C 20.800781 12.277344 20.671875 12.625 20.125 13.050781 C 19.578125 13.476562 18.882812 13.765625 18.609375 13.867188 C 18.449219 13.925781 18.332031 14.0625 18.289062 14.226562 C 18.011719 15.382812 17.4375 17.027344 16.269531 18.328125 C 14.972656 19.78125 13.203125 20.515625 11.011719 20.515625 C 11 20.515625 10.992188 20.515625 10.984375 20.515625 L 10.960938 20.515625 C 10.957031 20.515625 10.953125 20.515625 10.949219 20.515625 C 8.609375 20.515625 6.761719 19.769531 5.464844 18.300781 C 4.308594 16.992188 3.796875 15.339844 3.566406 14.1875 C 3.53125 14.015625 3.414062 13.875 3.253906 13.808594 C 2.761719 13.605469 1.273438 12.933594 1.207031 12.066406 C 1.246094 12.207031 1.332031 12.363281 1.484375 12.515625 C 1.847656 12.886719 2.367188 13.058594 2.742188 13.140625 C 2.777344 13.148438 2.816406 13.152344 2.851562 13.152344 C 2.972656 13.152344 3.09375 13.109375 3.1875 13.027344 C 3.308594 12.921875 3.375 12.769531 3.367188 12.605469 C 3.359375 12.449219 3.355469 12.332031 3.355469 12.261719 C 3.363281 12.203125 3.363281 12.140625 3.351562 12.078125 C 3.292969 11.808594 3.265625 11.535156 3.265625 11.265625 C 3.265625 11.238281 3.265625 11.214844 3.265625 11.1875 L 3.269531 11.128906 C 3.273438 10.992188 3.222656 10.855469 3.125 10.757812 C 3.238281 10.683594 3.320312 10.570312 3.351562 10.429688 C 3.914062 7.707031 7.203125 5.652344 11 5.652344 M 11 5.136719 C 6.875 5.136719 3.453125 7.386719 2.847656 10.328125 C 2.535156 10.328125 1.082031 10.402344 0.734375 11.652344 C 0.351562 13.023438 2.253906 13.957031 3.058594 14.285156 C 3.578125 16.902344 5.289062 21.03125 10.945312 21.03125 C 10.945312 21.03125 11 21.03125 11.007812 21.03125 C 16.320312 21.03125 18.160156 16.96875 18.792969 14.347656 C 19.464844 14.09375 21.6875 13.128906 21.277344 11.652344 C 20.925781 10.386719 19.4375 10.328125 19.152344 10.328125 C 18.546875 7.386719 15.125 5.136719 11 5.136719 Z M 19.085938 12.652344 C 19.09375 12.546875 19.105469 12.460938 19.109375 12.390625 C 19.199219 12.023438 19.25 11.648438 19.25 11.265625 C 19.25 11.214844 19.246094 11.160156 19.246094 11.109375 C 20.164062 11.324219 20.582031 11.734375 20.164062 12.152344 C 19.84375 12.476562 19.320312 12.605469 19.085938 12.652344 Z M 2.851562 12.636719 C 2.589844 12.578125 2.136719 12.445312 1.847656 12.152344 C 1.433594 11.734375 1.847656 11.328125 2.753906 11.113281 C 2.753906 11.164062 2.75 11.214844 2.75 11.265625 C 2.75 11.578125 2.78125 11.882812 2.84375 12.183594 C 2.839844 12.183594 2.835938 12.183594 2.835938 12.183594 C 2.835938 12.183594 2.832031 12.351562 2.851562 12.636719 Z M 2.851562 12.636719 "/>
</g>
</defs>
<g id="surface1">
<path style=" stroke:none;fill-rule:nonzero;fill:url(#linear0);" d="M 2.90625 10.328125 C 2.90625 10.328125 1.125 10.253906 0.734375 11.652344 C 0.25 13.386719 3.410156 14.417969 3.410156 14.417969 L 3.050781 12.671875 C 3.050781 12.671875 2.273438 12.582031 1.847656 12.152344 C 1.421875 11.726562 1.867188 11.304688 2.824219 11.097656 Z M 2.90625 10.328125 "/>
<path style=" stroke:none;fill-rule:nonzero;fill:url(#linear1);" d="M 19.105469 10.328125 C 19.105469 10.328125 20.886719 10.253906 21.277344 11.652344 C 21.757812 13.386719 18.601562 14.417969 18.601562 14.417969 L 18.960938 12.671875 C 18.960938 12.671875 19.738281 12.582031 20.164062 12.152344 C 20.585938 11.726562 20.144531 11.304688 19.183594 11.097656 Z M 19.105469 10.328125 "/>
<path style=" stroke:none;fill-rule:nonzero;fill:url(#radial0);" d="M 19.121094 12.183594 C 19.121094 12.128906 11.515625 12.84375 10.980469 12.894531 C 10.441406 12.84375 2.835938 12.128906 2.835938 12.183594 C 2.835938 12.183594 2.667969 21.03125 10.949219 21.03125 C 10.949219 21.03125 11 21.03125 11.011719 21.03125 C 18.847656 21.03125 19.121094 12.183594 19.121094 12.183594 Z M 19.121094 12.183594 "/>
<path style=" stroke:none;fill-rule:nonzero;fill:url(#linear2);" d="M 19.25 11.265625 C 19.25 7.878906 15.554688 5.136719 11 5.136719 C 6.445312 5.136719 2.75 7.878906 2.75 11.265625 C 2.75 14.648438 6.445312 17.390625 11 17.390625 C 15.554688 17.390625 19.25 14.648438 19.25 11.265625 Z M 19.25 11.265625 "/>
<path style=" stroke:none;fill-rule:nonzero;fill:url(#linear3);" d="M 18.632812 11.230469 C 18.632812 8.222656 15.171875 5.785156 10.898438 5.785156 C 6.625 5.785156 3.164062 8.222656 3.164062 11.230469 C 3.164062 14.238281 6.625 16.671875 10.898438 16.671875 C 15.171875 16.671875 18.632812 14.238281 18.632812 11.230469 Z M 18.632812 11.230469 "/>
<g clip-path="url(#clip1)" clip-rule="nonzero">
<g clip-path="url(#clip2)" clip-rule="nonzero">
<path style=" stroke:none;fill-rule:nonzero;fill:url(#radial1);" d="M 19.4375 13.964844 C 19.4375 17.785156 15.511719 20.882812 10.671875 20.882812 C 5.828125 20.882812 1.90625 17.785156 1.90625 13.964844 C 1.90625 11.480469 3.410156 10.039062 5.601562 8.335938 C 6.820312 7.386719 9.0625 6.875 10.757812 6.875 C 12.550781 6.875 14.035156 7.683594 15.484375 8.292969 C 17.933594 9.324219 19.4375 11.5625 19.4375 13.964844 Z M 19.4375 13.964844 "/>
</g>
</g>
<path style=" stroke:none;fill-rule:nonzero;fill:rgb(35.686275%,65.490196%,26.666667%);fill-opacity:1;" d="M 16.152344 13.195312 C 16.671875 13.234375 17.292969 13.109375 17.574219 12.664062 C 17.828125 12.265625 17.699219 11.773438 17.488281 11.382812 C 17.046875 10.570312 16.269531 9.941406 15.34375 9.652344 C 14.222656 9.296875 12.753906 9.785156 13.296875 11.058594 C 13.785156 12.203125 14.78125 13.09375 16.152344 13.195312 Z M 16.152344 13.195312 "/>
<path style=" stroke:none;fill-rule:nonzero;fill:url(#radial2);" d="M 16.214844 12.867188 C 16.734375 12.90625 17.355469 12.78125 17.636719 12.339844 C 17.890625 11.9375 17.761719 11.445312 17.550781 11.058594 C 17.109375 10.242188 16.332031 9.613281 15.40625 9.324219 C 14.289062 8.972656 12.816406 9.460938 13.359375 10.734375 C 13.851562 11.875 14.84375 12.769531 16.214844 12.867188 Z M 16.214844 12.867188 "/>
<path style=" stroke:none;fill-rule:nonzero;fill:url(#linear4);" d="M 11.828125 9.839844 C 12.136719 10.117188 12.40625 10.484375 12.421875 10.898438 C 12.433594 11.316406 12.101562 11.757812 11.683594 11.726562 C 11.457031 11.710938 11.261719 11.566406 11.054688 11.472656 C 10.84375 11.375 10.570312 11.339844 10.414062 11.507812 C 10.28125 11.648438 10.296875 11.882812 10.40625 12.046875 C 10.515625 12.207031 10.695312 12.304688 10.875 12.375 C 11.445312 12.605469 12.105469 12.648438 12.667969 12.402344 C 13.234375 12.15625 13.671875 11.601562 13.707031 10.988281 C 13.738281 10.339844 13.328125 9.730469 12.792969 9.367188 C 12.425781 9.113281 10.808594 8.347656 10.382812 8.671875 C 10.0625 8.910156 11.628906 9.660156 11.828125 9.839844 Z M 11.828125 9.839844 "/>
<path style=" stroke:none;fill-rule:nonzero;fill:rgb(35.686275%,65.490196%,26.666667%);fill-opacity:1;" d="M 5.699219 12.085938 C 6.050781 12.082031 6.390625 11.949219 6.703125 11.78125 C 7.480469 11.371094 8.148438 10.742188 8.621094 9.980469 C 8.824219 9.65625 8.988281 9.25 8.832031 8.90625 C 8.675781 8.570312 8.28125 8.449219 7.929688 8.421875 C 6.722656 8.328125 5.703125 8.980469 4.964844 9.925781 C 4.335938 10.722656 4.441406 12.101562 5.699219 12.085938 Z M 5.699219 12.085938 "/>
<path style=" stroke:none;fill-rule:nonzero;fill:url(#radial3);" d="M 5.738281 11.820312 C 6.074219 11.816406 6.394531 11.695312 6.691406 11.542969 C 7.429688 11.171875 8.0625 10.597656 8.515625 9.90625 C 8.703125 9.613281 8.863281 9.242188 8.710938 8.929688 C 8.566406 8.625 8.191406 8.515625 7.855469 8.492188 C 6.710938 8.40625 5.742188 9 5.039062 9.855469 C 4.445312 10.582031 4.546875 11.835938 5.738281 11.820312 Z M 5.738281 11.820312 "/>
<path style=" stroke:none;fill-rule:nonzero;fill:rgb(34.117647%,18.823529%,7.843137%);fill-opacity:1;" d="M 13.015625 8.070312 C 13.324219 7.945312 13.707031 8.0625 13.914062 8.324219 C 14.007812 8.445312 14.066406 8.609375 14.023438 8.753906 C 13.949219 8.988281 13.664062 9.066406 13.417969 9.101562 C 13.121094 9.148438 12.675781 9.210938 12.574219 8.859375 C 12.488281 8.5625 12.753906 8.175781 13.015625 8.070312 Z M 13.015625 8.070312 "/>
<path style=" stroke:none;fill-rule:nonzero;fill:url(#linear5);" d="M 8.417969 14.753906 C 8.742188 14.703125 9.085938 14.714844 9.386719 14.847656 C 9.6875 14.980469 9.9375 15.253906 9.988281 15.578125 C 9.023438 15.640625 8.054688 15.589844 7.101562 15.425781 C 7.0625 15.035156 8.121094 14.800781 8.417969 14.753906 Z M 8.417969 14.753906 "/>
<path style=" stroke:none;fill-rule:nonzero;fill:rgb(89.803922%,76.470588%,49.803922%);fill-opacity:1;" d="M 5.804688 13.726562 C 6.054688 13.992188 6.449219 14.121094 6.804688 14.035156 C 7.15625 13.949219 7.453125 13.640625 7.511719 13.28125 C 7.535156 13.132812 7.519531 12.96875 7.441406 12.835938 C 7.308594 12.613281 7.027344 12.519531 6.765625 12.492188 C 5.972656 12.410156 5.015625 12.878906 5.804688 13.726562 Z M 5.804688 13.726562 "/>
<path style=" stroke:none;fill-rule:nonzero;fill:url(#linear6);" d="M 15.035156 13.707031 C 15.183594 13.820312 15.320312 13.960938 15.382812 14.136719 C 15.449219 14.3125 15.421875 14.53125 15.285156 14.65625 C 15.109375 14.816406 14.835938 14.78125 14.605469 14.722656 C 14.304688 14.648438 14.007812 14.550781 13.722656 14.425781 C 13.5 14.332031 13.273438 14.21875 13.136719 14.019531 C 12.425781 12.992188 14.628906 13.402344 15.035156 13.707031 Z M 15.035156 13.707031 "/>
<path style=" stroke:none;fill-rule:nonzero;fill:rgb(21.176471%,49.411765%,25.098039%);fill-opacity:1;" d="M 9.972656 14.242188 C 9.753906 14.253906 9.488281 14.234375 9.386719 14.042969 C 9.308594 13.890625 9.378906 13.695312 9.507812 13.582031 C 9.636719 13.46875 9.808594 13.421875 9.976562 13.386719 C 10.355469 13.304688 11.988281 12.972656 12.046875 13.519531 C 12.132812 14.292969 10.378906 14.222656 9.972656 14.242188 Z M 9.972656 14.242188 "/>
<path style=" stroke:none;fill-rule:nonzero;fill:rgb(21.176471%,49.411765%,25.098039%);fill-opacity:1;" d="M 8.710938 12.222656 C 8.59375 12.117188 8.46875 11.972656 8.515625 11.820312 C 8.554688 11.703125 8.691406 11.640625 8.8125 11.648438 C 8.9375 11.65625 9.046875 11.71875 9.152344 11.789062 C 9.386719 11.941406 10.386719 12.605469 10.132812 12.917969 C 9.78125 13.351562 8.925781 12.417969 8.710938 12.222656 Z M 8.710938 12.222656 "/>
<path style=" stroke:none;fill-rule:nonzero;fill:rgb(35.686275%,65.490196%,26.666667%);fill-opacity:1;" d="M 12.234375 15.28125 C 12.082031 15.128906 11.835938 15.128906 11.683594 15.28125 C 11.535156 15.433594 11.535156 15.675781 11.683594 15.828125 C 11.835938 15.980469 12.082031 15.980469 12.234375 15.828125 C 12.382812 15.675781 12.382812 15.433594 12.234375 15.28125 Z M 12.234375 15.28125 "/>
<path style=" stroke:none;fill-rule:nonzero;fill:rgb(35.686275%,65.490196%,26.666667%);fill-opacity:1;" d="M 14.917969 8.167969 C 14.765625 8.019531 14.523438 8.019531 14.371094 8.167969 C 14.21875 8.320312 14.21875 8.566406 14.371094 8.714844 C 14.523438 8.867188 14.765625 8.867188 14.917969 8.714844 C 15.070312 8.566406 15.070312 8.320312 14.917969 8.167969 Z M 14.917969 8.167969 "/>
<path style=" stroke:none;fill-rule:nonzero;fill:rgb(35.686275%,65.490196%,26.666667%);fill-opacity:1;" d="M 10.578125 9.050781 C 10.429688 8.898438 10.183594 8.898438 10.03125 9.050781 C 9.882812 9.203125 9.882812 9.445312 10.03125 9.597656 C 10.183594 9.75 10.429688 9.75 10.578125 9.597656 C 10.730469 9.445312 10.730469 9.203125 10.578125 9.050781 Z M 10.578125 9.050781 "/>
<path style=" stroke:none;fill-rule:nonzero;fill:rgb(35.686275%,65.490196%,26.666667%);fill-opacity:1;" d="M 15.691406 14.574219 C 15.542969 14.421875 15.296875 14.421875 15.144531 14.574219 C 14.996094 14.722656 14.996094 14.96875 15.144531 15.121094 C 15.296875 15.269531 15.542969 15.269531 15.691406 15.121094 C 15.84375 14.96875 15.84375 14.722656 15.691406 14.574219 Z M 15.691406 14.574219 "/>
<path style=" stroke:none;fill-rule:nonzero;fill:rgb(35.686275%,65.490196%,26.666667%);fill-opacity:1;" d="M 4.285156 10.296875 C 4.132812 10.144531 3.886719 10.144531 3.738281 10.296875 C 3.585938 10.449219 3.585938 10.691406 3.738281 10.84375 C 3.886719 10.996094 4.132812 10.996094 4.285156 10.84375 C 4.433594 10.691406 4.433594 10.449219 4.285156 10.296875 Z M 4.285156 10.296875 "/>
<path style=" stroke:none;fill-rule:nonzero;fill:rgb(35.686275%,65.490196%,26.666667%);fill-opacity:1;" d="M 8.625 7.71875 C 8.472656 7.566406 8.226562 7.566406 8.078125 7.71875 C 7.925781 7.871094 7.925781 8.113281 8.078125 8.265625 C 8.226562 8.417969 8.472656 8.417969 8.625 8.265625 C 8.773438 8.113281 8.773438 7.871094 8.625 7.71875 Z M 8.625 7.71875 "/>
<use xlink:href="#surface5" mask="url(#mask0)"/>
</g>
</svg>
