<?xml version="1.0" encoding="UTF-8"?>
<svg xmlns="http://www.w3.org/2000/svg" xmlns:xlink="http://www.w3.org/1999/xlink" width="12px" height="22px" viewBox="0 0 12 22" version="1.1">
<defs>
<linearGradient id="linear0" gradientUnits="userSpaceOnUse" x1="257.09604" y1="-185.80946" x2="231.74855" y2="-199.38849" gradientTransform="matrix(0.938431,0,0,0.938431,-98.998965,378.66602)">
<stop offset="0" style="stop-color:rgb(20.784314%,22.352941%,22.352941%);stop-opacity:1;"/>
<stop offset="1" style="stop-color:rgb(67.45098%,69.803922%,69.803922%);stop-opacity:0;"/>
</linearGradient>
<linearGradient id="linear1" gradientUnits="userSpaceOnUse" x1="147.97768" y1="170.56697" x2="100.16369" y2="170.189" gradientTransform="matrix(0.938431,0,0,0.938431,7.633071,10.280532)">
<stop offset="0" style="stop-color:rgb(38.431373%,46.27451%,4.705882%);stop-opacity:1;"/>
<stop offset="1" style="stop-color:rgb(57.254902%,69.411765%,7.058824%);stop-opacity:0;"/>
</linearGradient>
</defs>
<g id="surface1">
<path style=" stroke:none;fill-rule:nonzero;fill:rgb(88.627451%,88.627451%,88.235294%);fill-opacity:1;" d="M 10.152344 1.675781 C 10.152344 1.371094 8.359375 1.121094 6.148438 1.121094 C 3.9375 1.121094 2.144531 1.371094 2.144531 1.675781 C 2.144531 1.984375 3.9375 2.234375 6.148438 2.234375 C 8.359375 2.234375 10.152344 1.984375 10.152344 1.675781 Z M 10.152344 1.675781 "/>
<path style="fill-rule:nonzero;fill:rgb(67.45098%,69.803922%,69.803922%);fill-opacity:1;stroke-width:0.212667;stroke-linecap:round;stroke-linejoin:round;stroke:rgb(0%,0%,0%);stroke-opacity:1;stroke-miterlimit:4;" d="M 141.988567 142.088442 C 141.988567 142.088442 134.043901 144.726609 124.292903 144.824925 C 115.708828 144.923242 106.469357 142.203145 106.469357 142.203145 L 102.824722 147.430319 C 102.457061 147.561408 102.457061 148.200467 102.457061 149.675219 L 102.457061 199.800381 C 102.457061 205.519139 111.984266 210.107255 123.829331 210.107255 C 135.674396 210.107255 145.217586 205.519139 145.217586 199.800381 L 145.217586 149.675219 C 145.217586 148.184081 145.217586 147.479478 144.833941 147.250072 C 144.849926 147.250072 144.945837 147.2173 144.945837 147.2173 Z M 141.461054 147.938289 C 138.807504 148.692051 134.25171 149.773536 126.514852 150.183189 C 131.29444 149.822694 137.592625 148.692051 141.461054 147.938289 Z M 105.909874 148.331556 C 109.474583 149.150863 115.83671 150.265119 123.925243 150.281506 C 114.126289 150.56007 108.819188 149.281952 105.909874 148.331556 Z M 105.909874 148.331556 " transform="matrix(0.244366,0,0,0.238388,-24.294835,-28.821346)"/>
<path style="fill-rule:nonzero;fill:url(#linear0);stroke-width:0.212667;stroke-linecap:round;stroke-linejoin:round;stroke:rgb(0%,0%,0%);stroke-opacity:1;stroke-miterlimit:4;" d="M 141.924626 141.990125 C 141.924626 141.990125 133.963975 144.644678 124.228962 144.742995 C 115.644887 144.841311 106.405416 142.121214 106.405416 142.121214 L 102.760781 147.348389 C 102.377135 147.479478 102.377135 148.118537 102.377135 149.593288 L 102.377135 199.71845 C 102.377135 205.420823 111.920325 210.025324 123.76539 210.025324 C 135.610455 210.025324 145.13766 205.420823 145.13766 199.71845 L 145.13766 149.593288 C 145.13766 148.102151 145.13766 147.381161 144.754014 147.151755 C 144.77 147.151755 144.881896 147.135369 144.881896 147.135369 Z M 141.381128 147.839973 C 138.727578 148.593734 134.187769 149.691605 126.434926 150.084872 C 131.214513 149.740763 137.512699 148.610121 141.381128 147.839973 Z M 105.845933 148.249626 C 109.394657 149.052546 115.772769 150.183189 123.861302 150.199575 C 114.062348 150.478139 108.739262 149.183635 105.845933 148.249626 Z M 105.845933 148.249626 " transform="matrix(0.244366,0,0,0.238388,-24.294835,-28.821346)"/>
<path style="fill-rule:nonzero;fill:rgb(57.254902%,69.411765%,7.058824%);fill-opacity:1;stroke-width:0.234608;stroke-linecap:round;stroke-linejoin:round;stroke:rgb(0%,0%,0%);stroke-opacity:1;stroke-miterlimit:4;" d="M 143.443224 129.99548 C 143.443224 129.99548 134.92309 132.994142 124.468741 133.108845 C 115.261241 133.207161 105.366375 130.126569 105.366375 130.126569 L 101.449991 136.058347 C 101.05036 136.222209 101.05036 136.926812 101.05036 138.614583 L 101.05036 195.507216 C 101.05036 201.979736 111.280915 207.190524 123.973198 207.190524 C 136.681467 207.190524 146.896037 201.979736 146.896037 195.507216 L 146.896037 138.614583 C 146.896037 136.910426 146.896037 136.107506 146.496406 135.845328 C 146.512391 135.845328 146.624288 135.828942 146.624288 135.828942 Z M 142.867756 136.631862 C 140.022382 137.48394 135.146883 138.729286 126.850542 139.171711 C 131.981805 138.778444 138.727578 137.48394 142.867756 136.631862 Z M 104.758936 137.090673 C 108.579409 138.008296 115.405108 139.286414 124.06911 139.302801 C 113.566805 139.614137 107.860073 138.155772 104.758936 137.090673 Z M 104.758936 137.090673 " transform="matrix(0.244366,0,0,0.238388,-24.294835,-28.821346)"/>
<path style="fill-rule:nonzero;fill:url(#linear1);stroke-width:0.234608;stroke-linecap:round;stroke-linejoin:round;stroke:rgb(0%,0%,0%);stroke-opacity:1;stroke-miterlimit:4;" d="M 143.443224 129.99548 C 143.443224 129.99548 134.92309 132.994142 124.468741 133.108845 C 115.261241 133.207161 105.366375 130.126569 105.366375 130.126569 L 101.449991 136.058347 C 101.05036 136.222209 101.05036 136.926812 101.05036 138.614583 L 101.05036 195.507216 C 101.05036 201.979736 111.280915 207.190524 123.973198 207.190524 C 136.681467 207.190524 146.896037 201.979736 146.896037 195.507216 L 146.896037 138.614583 C 146.896037 136.910426 146.896037 136.107506 146.496406 135.845328 C 146.512391 135.845328 146.624288 135.828942 146.624288 135.828942 Z M 142.867756 136.631862 C 140.022382 137.48394 135.146883 138.729286 126.850542 139.171711 C 131.981805 138.778444 138.727578 137.48394 142.867756 136.631862 Z M 104.758936 137.090673 C 108.579409 138.008296 115.405108 139.286414 124.06911 139.302801 C 113.566805 139.614137 107.860073 138.155772 104.758936 137.090673 Z M 104.758936 137.090673 " transform="matrix(0.244366,0,0,0.238388,-24.294835,-28.821346)"/>
<path style="fill-rule:nonzero;fill:rgb(68.627451%,68.627451%,69.803922%);fill-opacity:1;stroke-width:0.248293;stroke-linecap:butt;stroke-linejoin:miter;stroke:rgb(0%,0%,0%);stroke-opacity:1;stroke-miterlimit:4;" d="M 124.228962 123.867069 C 113.502864 123.916227 105.574184 127.127908 105.574184 127.127908 L 105.366375 130.126569 C 105.366375 130.126569 113.934466 133.010528 125.172092 132.863053 C 134.555429 132.731964 143.443224 129.99548 143.443224 129.99548 L 143.107534 127.308156 C 143.107534 127.308156 134.651341 123.998158 125.268003 123.867069 C 124.916328 123.867069 124.580638 123.867069 124.228962 123.867069 Z M 126.08325 125.620385 C 133.772152 125.571226 138.232035 126.882116 140.709748 128.061917 C 137.384817 129.028699 131.150572 130.568995 125.220047 130.42152 C 117.85085 130.224886 111.856384 128.930382 108.499483 128.012759 C 111.137048 126.964047 115.964592 125.866176 124.692534 125.636771 C 125.172092 125.620385 125.635664 125.620385 126.08325 125.620385 Z M 126.08325 125.620385 " transform="matrix(0.244366,0,0,0.238388,-24.294835,-28.821346)"/>
<path style="fill:none;stroke-width:1.533396;stroke-linecap:round;stroke-linejoin:round;stroke:rgb(100%,100%,100%);stroke-opacity:1;stroke-miterlimit:4;" d="M 131.118602 157.54056 L 131.070646 158.114074 L 132.445377 158.245163 L 132.285525 160.113182 C 131.96582 160.047637 131.63013 160.014865 131.29444 159.982093 C 128.736801 159.769073 126.179162 160.440904 124.06911 161.882883 C 122.742335 161.374913 121.351618 161.112735 119.944917 161.112735 C 113.55082 161.112735 108.355616 166.307138 108.355616 172.697727 C 108.355616 179.104703 113.55082 184.282719 119.944917 184.282719 C 122.550512 184.282719 125.07618 183.414254 127.122291 181.792028 C 127.873598 182.021433 128.640889 182.168908 129.424166 182.234453 C 135.5625 182.742423 140.965512 178.18708 141.477039 172.042282 C 141.924626 166.700405 138.51977 161.800953 133.356536 160.358974 L 133.532374 158.327094 L 136.249865 158.5565 L 136.297821 157.982985 Z M 131.118602 157.54056 " transform="matrix(0.244366,0,0,0.238388,-24.294835,-28.821346)"/>
<path style=" stroke:none;fill-rule:nonzero;fill:rgb(100%,100%,100%);fill-opacity:0.933333;" d="M 7.410156 16.75 C 7.410156 16.5625 7.265625 16.410156 7.082031 16.410156 C 6.902344 16.410156 6.753906 16.5625 6.753906 16.75 C 6.753906 16.9375 6.902344 17.085938 7.082031 17.085938 C 7.265625 17.085938 7.410156 16.9375 7.410156 16.75 Z M 7.410156 16.75 "/>
<path style=" stroke:none;fill-rule:nonzero;fill:rgb(100%,100%,100%);fill-opacity:0.933333;" d="M 7.410156 16.75 C 7.410156 16.5625 7.265625 16.410156 7.082031 16.410156 C 6.902344 16.410156 6.753906 16.5625 6.753906 16.75 C 6.753906 16.9375 6.902344 17.085938 7.082031 17.085938 C 7.265625 17.085938 7.410156 16.9375 7.410156 16.75 Z M 7.410156 16.75 "/>
<path style=" stroke:none;fill-rule:nonzero;fill:rgb(100%,100%,100%);fill-opacity:0.933333;" d="M 7.410156 16.75 C 7.410156 16.5625 7.265625 16.410156 7.082031 16.410156 C 6.902344 16.410156 6.753906 16.5625 6.753906 16.75 C 6.753906 16.9375 6.902344 17.085938 7.082031 17.085938 C 7.265625 17.085938 7.410156 16.9375 7.410156 16.75 Z M 7.410156 16.75 "/>
<path style=" stroke:none;fill-rule:nonzero;fill:rgb(100%,100%,100%);fill-opacity:0.933333;" d="M 7.410156 16.75 C 7.410156 16.5625 7.265625 16.410156 7.082031 16.410156 C 6.902344 16.410156 6.753906 16.5625 6.753906 16.75 C 6.753906 16.9375 6.902344 17.085938 7.082031 17.085938 C 7.265625 17.085938 7.410156 16.9375 7.410156 16.75 Z M 7.410156 16.75 "/>
<path style=" stroke:none;fill-rule:nonzero;fill:rgb(100%,100%,100%);fill-opacity:0.933333;" d="M 7.410156 16.75 C 7.410156 16.5625 7.265625 16.410156 7.082031 16.410156 C 6.902344 16.410156 6.753906 16.5625 6.753906 16.75 C 6.753906 16.9375 6.902344 17.085938 7.082031 17.085938 C 7.265625 17.085938 7.410156 16.9375 7.410156 16.75 Z M 7.410156 16.75 "/>
<path style=" stroke:none;fill-rule:nonzero;fill:rgb(100%,100%,100%);fill-opacity:0.933333;" d="M 7.410156 16.75 C 7.410156 16.5625 7.265625 16.410156 7.082031 16.410156 C 6.902344 16.410156 6.753906 16.5625 6.753906 16.75 C 6.753906 16.9375 6.902344 17.085938 7.082031 17.085938 C 7.265625 17.085938 7.410156 16.9375 7.410156 16.75 Z M 7.410156 16.75 "/>
<path style=" stroke:none;fill-rule:nonzero;fill:rgb(100%,100%,100%);fill-opacity:0.933333;" d="M 7.410156 16.75 C 7.410156 16.5625 7.265625 16.410156 7.082031 16.410156 C 6.902344 16.410156 6.753906 16.5625 6.753906 16.75 C 6.753906 16.9375 6.902344 17.085938 7.082031 17.085938 C 7.265625 17.085938 7.410156 16.9375 7.410156 16.75 Z M 7.410156 16.75 "/>
<path style=" stroke:none;fill-rule:nonzero;fill:rgb(100%,100%,100%);fill-opacity:0.933333;" d="M 7.410156 16.75 C 7.410156 16.5625 7.265625 16.410156 7.082031 16.410156 C 6.902344 16.410156 6.753906 16.5625 6.753906 16.75 C 6.753906 16.9375 6.902344 17.085938 7.082031 17.085938 C 7.265625 17.085938 7.410156 16.9375 7.410156 16.75 Z M 7.410156 16.75 "/>
<path style=" stroke:none;fill-rule:nonzero;fill:rgb(100%,100%,100%);fill-opacity:0.933333;" d="M 9.625 15.769531 C 9.625 15.585938 9.480469 15.433594 9.296875 15.433594 C 9.117188 15.433594 8.96875 15.585938 8.96875 15.769531 C 8.96875 15.957031 9.117188 16.109375 9.296875 16.109375 C 9.480469 16.109375 9.625 15.957031 9.625 15.769531 Z M 9.625 15.769531 "/>
<path style=" stroke:none;fill-rule:nonzero;fill:rgb(100%,100%,100%);fill-opacity:0.933333;" d="M 9.625 15.769531 C 9.625 15.585938 9.480469 15.433594 9.296875 15.433594 C 9.117188 15.433594 8.96875 15.585938 8.96875 15.769531 C 8.96875 15.957031 9.117188 16.109375 9.296875 16.109375 C 9.480469 16.109375 9.625 15.957031 9.625 15.769531 Z M 9.625 15.769531 "/>
<path style=" stroke:none;fill-rule:nonzero;fill:rgb(100%,100%,100%);fill-opacity:0.933333;" d="M 9.625 15.769531 C 9.625 15.585938 9.480469 15.433594 9.296875 15.433594 C 9.117188 15.433594 8.96875 15.585938 8.96875 15.769531 C 8.96875 15.957031 9.117188 16.109375 9.296875 16.109375 C 9.480469 16.109375 9.625 15.957031 9.625 15.769531 Z M 9.625 15.769531 "/>
<path style=" stroke:none;fill-rule:nonzero;fill:rgb(100%,100%,100%);fill-opacity:0.933333;" d="M 9.625 15.769531 C 9.625 15.585938 9.480469 15.433594 9.296875 15.433594 C 9.117188 15.433594 8.96875 15.585938 8.96875 15.769531 C 8.96875 15.957031 9.117188 16.109375 9.296875 16.109375 C 9.480469 16.109375 9.625 15.957031 9.625 15.769531 Z M 9.625 15.769531 "/>
<path style=" stroke:none;fill-rule:nonzero;fill:rgb(100%,100%,100%);fill-opacity:0.933333;" d="M 9.625 15.769531 C 9.625 15.585938 9.480469 15.433594 9.296875 15.433594 C 9.117188 15.433594 8.96875 15.585938 8.96875 15.769531 C 8.96875 15.957031 9.117188 16.109375 9.296875 16.109375 C 9.480469 16.109375 9.625 15.957031 9.625 15.769531 Z M 9.625 15.769531 "/>
<path style=" stroke:none;fill-rule:nonzero;fill:rgb(100%,100%,100%);fill-opacity:0.933333;" d="M 9.625 15.769531 C 9.625 15.585938 9.480469 15.433594 9.296875 15.433594 C 9.117188 15.433594 8.96875 15.585938 8.96875 15.769531 C 8.96875 15.957031 9.117188 16.109375 9.296875 16.109375 C 9.480469 16.109375 9.625 15.957031 9.625 15.769531 Z M 9.625 15.769531 "/>
<path style=" stroke:none;fill-rule:nonzero;fill:rgb(100%,100%,100%);fill-opacity:0.933333;" d="M 9.625 15.769531 C 9.625 15.585938 9.480469 15.433594 9.296875 15.433594 C 9.117188 15.433594 8.96875 15.585938 8.96875 15.769531 C 8.96875 15.957031 9.117188 16.109375 9.296875 16.109375 C 9.480469 16.109375 9.625 15.957031 9.625 15.769531 Z M 9.625 15.769531 "/>
<path style=" stroke:none;fill-rule:nonzero;fill:rgb(100%,100%,100%);fill-opacity:0.933333;" d="M 9.625 15.769531 C 9.625 15.585938 9.480469 15.433594 9.296875 15.433594 C 9.117188 15.433594 8.96875 15.585938 8.96875 15.769531 C 8.96875 15.957031 9.117188 16.109375 9.296875 16.109375 C 9.480469 16.109375 9.625 15.957031 9.625 15.769531 Z M 9.625 15.769531 "/>
<path style=" stroke:none;fill-rule:nonzero;fill:rgb(100%,100%,100%);fill-opacity:0.933333;" d="M 9.105469 17.628906 C 9.105469 17.441406 8.960938 17.289062 8.777344 17.289062 C 8.597656 17.289062 8.449219 17.441406 8.449219 17.628906 C 8.449219 17.8125 8.597656 17.964844 8.777344 17.964844 C 8.960938 17.964844 9.105469 17.8125 9.105469 17.628906 Z M 9.105469 17.628906 "/>
<path style=" stroke:none;fill-rule:nonzero;fill:rgb(100%,100%,100%);fill-opacity:0.933333;" d="M 9.105469 17.628906 C 9.105469 17.441406 8.960938 17.289062 8.777344 17.289062 C 8.597656 17.289062 8.449219 17.441406 8.449219 17.628906 C 8.449219 17.8125 8.597656 17.964844 8.777344 17.964844 C 8.960938 17.964844 9.105469 17.8125 9.105469 17.628906 Z M 9.105469 17.628906 "/>
<path style=" stroke:none;fill-rule:nonzero;fill:rgb(100%,100%,100%);fill-opacity:0.933333;" d="M 9.105469 17.628906 C 9.105469 17.441406 8.960938 17.289062 8.777344 17.289062 C 8.597656 17.289062 8.449219 17.441406 8.449219 17.628906 C 8.449219 17.8125 8.597656 17.964844 8.777344 17.964844 C 8.960938 17.964844 9.105469 17.8125 9.105469 17.628906 Z M 9.105469 17.628906 "/>
<path style=" stroke:none;fill-rule:nonzero;fill:rgb(100%,100%,100%);fill-opacity:0.933333;" d="M 9.105469 17.628906 C 9.105469 17.441406 8.960938 17.289062 8.777344 17.289062 C 8.597656 17.289062 8.449219 17.441406 8.449219 17.628906 C 8.449219 17.8125 8.597656 17.964844 8.777344 17.964844 C 8.960938 17.964844 9.105469 17.8125 9.105469 17.628906 Z M 9.105469 17.628906 "/>
<path style=" stroke:none;fill-rule:nonzero;fill:rgb(100%,100%,100%);fill-opacity:0.933333;" d="M 9.105469 17.628906 C 9.105469 17.441406 8.960938 17.289062 8.777344 17.289062 C 8.597656 17.289062 8.449219 17.441406 8.449219 17.628906 C 8.449219 17.8125 8.597656 17.964844 8.777344 17.964844 C 8.960938 17.964844 9.105469 17.8125 9.105469 17.628906 Z M 9.105469 17.628906 "/>
<path style=" stroke:none;fill-rule:nonzero;fill:rgb(100%,100%,100%);fill-opacity:0.933333;" d="M 9.105469 17.628906 C 9.105469 17.441406 8.960938 17.289062 8.777344 17.289062 C 8.597656 17.289062 8.449219 17.441406 8.449219 17.628906 C 8.449219 17.8125 8.597656 17.964844 8.777344 17.964844 C 8.960938 17.964844 9.105469 17.8125 9.105469 17.628906 Z M 9.105469 17.628906 "/>
<path style=" stroke:none;fill-rule:nonzero;fill:rgb(100%,100%,100%);fill-opacity:0.933333;" d="M 9.105469 17.628906 C 9.105469 17.441406 8.960938 17.289062 8.777344 17.289062 C 8.597656 17.289062 8.449219 17.441406 8.449219 17.628906 C 8.449219 17.8125 8.597656 17.964844 8.777344 17.964844 C 8.960938 17.964844 9.105469 17.8125 9.105469 17.628906 Z M 9.105469 17.628906 "/>
<path style=" stroke:none;fill-rule:nonzero;fill:rgb(100%,100%,100%);fill-opacity:0.933333;" d="M 9.105469 17.628906 C 9.105469 17.441406 8.960938 17.289062 8.777344 17.289062 C 8.597656 17.289062 8.449219 17.441406 8.449219 17.628906 C 8.449219 17.8125 8.597656 17.964844 8.777344 17.964844 C 8.960938 17.964844 9.105469 17.8125 9.105469 17.628906 Z M 9.105469 17.628906 "/>
<path style=" stroke:none;fill-rule:nonzero;fill:rgb(100%,100%,100%);fill-opacity:0.933333;" d="M 10.800781 17.898438 C 10.800781 17.710938 10.65625 17.558594 10.472656 17.558594 C 10.292969 17.558594 10.144531 17.710938 10.144531 17.898438 C 10.144531 18.082031 10.292969 18.234375 10.472656 18.234375 C 10.65625 18.234375 10.800781 18.082031 10.800781 17.898438 Z M 10.800781 17.898438 "/>
<path style=" stroke:none;fill-rule:nonzero;fill:rgb(100%,100%,100%);fill-opacity:0.933333;" d="M 10.800781 17.898438 C 10.800781 17.710938 10.65625 17.558594 10.472656 17.558594 C 10.292969 17.558594 10.144531 17.710938 10.144531 17.898438 C 10.144531 18.082031 10.292969 18.234375 10.472656 18.234375 C 10.65625 18.234375 10.800781 18.082031 10.800781 17.898438 Z M 10.800781 17.898438 "/>
<path style=" stroke:none;fill-rule:nonzero;fill:rgb(100%,100%,100%);fill-opacity:0.933333;" d="M 10.800781 17.898438 C 10.800781 17.710938 10.65625 17.558594 10.472656 17.558594 C 10.292969 17.558594 10.144531 17.710938 10.144531 17.898438 C 10.144531 18.082031 10.292969 18.234375 10.472656 18.234375 C 10.65625 18.234375 10.800781 18.082031 10.800781 17.898438 Z M 10.800781 17.898438 "/>
<path style=" stroke:none;fill-rule:nonzero;fill:rgb(100%,100%,100%);fill-opacity:0.933333;" d="M 10.800781 17.898438 C 10.800781 17.710938 10.65625 17.558594 10.472656 17.558594 C 10.292969 17.558594 10.144531 17.710938 10.144531 17.898438 C 10.144531 18.082031 10.292969 18.234375 10.472656 18.234375 C 10.65625 18.234375 10.800781 18.082031 10.800781 17.898438 Z M 10.800781 17.898438 "/>
<path style=" stroke:none;fill-rule:nonzero;fill:rgb(100%,100%,100%);fill-opacity:0.933333;" d="M 10.800781 17.898438 C 10.800781 17.710938 10.65625 17.558594 10.472656 17.558594 C 10.292969 17.558594 10.144531 17.710938 10.144531 17.898438 C 10.144531 18.082031 10.292969 18.234375 10.472656 18.234375 C 10.65625 18.234375 10.800781 18.082031 10.800781 17.898438 Z M 10.800781 17.898438 "/>
<path style=" stroke:none;fill-rule:nonzero;fill:rgb(100%,100%,100%);fill-opacity:0.933333;" d="M 10.800781 17.898438 C 10.800781 17.710938 10.65625 17.558594 10.472656 17.558594 C 10.292969 17.558594 10.144531 17.710938 10.144531 17.898438 C 10.144531 18.082031 10.292969 18.234375 10.472656 18.234375 C 10.65625 18.234375 10.800781 18.082031 10.800781 17.898438 Z M 10.800781 17.898438 "/>
<path style=" stroke:none;fill-rule:nonzero;fill:rgb(100%,100%,100%);fill-opacity:0.933333;" d="M 10.800781 17.898438 C 10.800781 17.710938 10.65625 17.558594 10.472656 17.558594 C 10.292969 17.558594 10.144531 17.710938 10.144531 17.898438 C 10.144531 18.082031 10.292969 18.234375 10.472656 18.234375 C 10.65625 18.234375 10.800781 18.082031 10.800781 17.898438 Z M 10.800781 17.898438 "/>
<path style=" stroke:none;fill-rule:nonzero;fill:rgb(100%,100%,100%);fill-opacity:0.933333;" d="M 10.800781 17.898438 C 10.800781 17.710938 10.65625 17.558594 10.472656 17.558594 C 10.292969 17.558594 10.144531 17.710938 10.144531 17.898438 C 10.144531 18.082031 10.292969 18.234375 10.472656 18.234375 C 10.65625 18.234375 10.800781 18.082031 10.800781 17.898438 Z M 10.800781 17.898438 "/>
<path style=" stroke:none;fill-rule:nonzero;fill:rgb(100%,100%,100%);fill-opacity:0.933333;" d="M 10.25 16.75 C 10.25 16.695312 10.207031 16.652344 10.15625 16.652344 C 10.101562 16.652344 10.058594 16.695312 10.058594 16.75 C 10.058594 16.804688 10.101562 16.851562 10.15625 16.851562 C 10.207031 16.851562 10.25 16.804688 10.25 16.75 Z M 10.25 16.75 "/>
<path style=" stroke:none;fill-rule:nonzero;fill:rgb(100%,100%,100%);fill-opacity:0.933333;" d="M 10.25 16.75 C 10.25 16.695312 10.207031 16.652344 10.15625 16.652344 C 10.101562 16.652344 10.058594 16.695312 10.058594 16.75 C 10.058594 16.804688 10.101562 16.851562 10.15625 16.851562 C 10.207031 16.851562 10.25 16.804688 10.25 16.75 Z M 10.25 16.75 "/>
<path style=" stroke:none;fill-rule:nonzero;fill:rgb(100%,100%,100%);fill-opacity:0.933333;" d="M 10.25 16.75 C 10.25 16.695312 10.207031 16.652344 10.15625 16.652344 C 10.101562 16.652344 10.058594 16.695312 10.058594 16.75 C 10.058594 16.804688 10.101562 16.851562 10.15625 16.851562 C 10.207031 16.851562 10.25 16.804688 10.25 16.75 Z M 10.25 16.75 "/>
<path style=" stroke:none;fill-rule:nonzero;fill:rgb(100%,100%,100%);fill-opacity:0.933333;" d="M 10.25 16.75 C 10.25 16.695312 10.207031 16.652344 10.15625 16.652344 C 10.101562 16.652344 10.058594 16.695312 10.058594 16.75 C 10.058594 16.804688 10.101562 16.851562 10.15625 16.851562 C 10.207031 16.851562 10.25 16.804688 10.25 16.75 Z M 10.25 16.75 "/>
<path style=" stroke:none;fill-rule:nonzero;fill:rgb(100%,100%,100%);fill-opacity:0.933333;" d="M 10.25 16.75 C 10.25 16.695312 10.207031 16.652344 10.15625 16.652344 C 10.101562 16.652344 10.058594 16.695312 10.058594 16.75 C 10.058594 16.804688 10.101562 16.851562 10.15625 16.851562 C 10.207031 16.851562 10.25 16.804688 10.25 16.75 Z M 10.25 16.75 "/>
<path style=" stroke:none;fill-rule:nonzero;fill:rgb(100%,100%,100%);fill-opacity:0.933333;" d="M 10.25 16.75 C 10.25 16.695312 10.207031 16.652344 10.15625 16.652344 C 10.101562 16.652344 10.058594 16.695312 10.058594 16.75 C 10.058594 16.804688 10.101562 16.851562 10.15625 16.851562 C 10.207031 16.851562 10.25 16.804688 10.25 16.75 Z M 10.25 16.75 "/>
<path style=" stroke:none;fill-rule:nonzero;fill:rgb(100%,100%,100%);fill-opacity:0.933333;" d="M 10.25 16.75 C 10.25 16.695312 10.207031 16.652344 10.15625 16.652344 C 10.101562 16.652344 10.058594 16.695312 10.058594 16.75 C 10.058594 16.804688 10.101562 16.851562 10.15625 16.851562 C 10.207031 16.851562 10.25 16.804688 10.25 16.75 Z M 10.25 16.75 "/>
<path style=" stroke:none;fill-rule:nonzero;fill:rgb(100%,100%,100%);fill-opacity:0.933333;" d="M 10.25 16.75 C 10.25 16.695312 10.207031 16.652344 10.15625 16.652344 C 10.101562 16.652344 10.058594 16.695312 10.058594 16.75 C 10.058594 16.804688 10.101562 16.851562 10.15625 16.851562 C 10.207031 16.851562 10.25 16.804688 10.25 16.75 Z M 10.25 16.75 "/>
<path style=" stroke:none;fill-rule:nonzero;fill:rgb(100%,100%,100%);fill-opacity:0.933333;" d="M 8.292969 16.359375 C 8.292969 16.304688 8.25 16.257812 8.199219 16.257812 C 8.144531 16.257812 8.101562 16.304688 8.101562 16.359375 C 8.101562 16.414062 8.144531 16.457031 8.199219 16.457031 C 8.25 16.457031 8.292969 16.414062 8.292969 16.359375 Z M 8.292969 16.359375 "/>
<path style=" stroke:none;fill-rule:nonzero;fill:rgb(100%,100%,100%);fill-opacity:0.933333;" d="M 8.292969 16.359375 C 8.292969 16.304688 8.25 16.257812 8.199219 16.257812 C 8.144531 16.257812 8.101562 16.304688 8.101562 16.359375 C 8.101562 16.414062 8.144531 16.457031 8.199219 16.457031 C 8.25 16.457031 8.292969 16.414062 8.292969 16.359375 Z M 8.292969 16.359375 "/>
<path style=" stroke:none;fill-rule:nonzero;fill:rgb(100%,100%,100%);fill-opacity:0.933333;" d="M 8.292969 16.359375 C 8.292969 16.304688 8.25 16.257812 8.199219 16.257812 C 8.144531 16.257812 8.101562 16.304688 8.101562 16.359375 C 8.101562 16.414062 8.144531 16.457031 8.199219 16.457031 C 8.25 16.457031 8.292969 16.414062 8.292969 16.359375 Z M 8.292969 16.359375 "/>
<path style=" stroke:none;fill-rule:nonzero;fill:rgb(100%,100%,100%);fill-opacity:0.933333;" d="M 8.292969 16.359375 C 8.292969 16.304688 8.25 16.257812 8.199219 16.257812 C 8.144531 16.257812 8.101562 16.304688 8.101562 16.359375 C 8.101562 16.414062 8.144531 16.457031 8.199219 16.457031 C 8.25 16.457031 8.292969 16.414062 8.292969 16.359375 Z M 8.292969 16.359375 "/>
<path style=" stroke:none;fill-rule:nonzero;fill:rgb(100%,100%,100%);fill-opacity:0.933333;" d="M 8.292969 16.359375 C 8.292969 16.304688 8.25 16.257812 8.199219 16.257812 C 8.144531 16.257812 8.101562 16.304688 8.101562 16.359375 C 8.101562 16.414062 8.144531 16.457031 8.199219 16.457031 C 8.25 16.457031 8.292969 16.414062 8.292969 16.359375 Z M 8.292969 16.359375 "/>
<path style=" stroke:none;fill-rule:nonzero;fill:rgb(100%,100%,100%);fill-opacity:0.933333;" d="M 8.292969 16.359375 C 8.292969 16.304688 8.25 16.257812 8.199219 16.257812 C 8.144531 16.257812 8.101562 16.304688 8.101562 16.359375 C 8.101562 16.414062 8.144531 16.457031 8.199219 16.457031 C 8.25 16.457031 8.292969 16.414062 8.292969 16.359375 Z M 8.292969 16.359375 "/>
<path style=" stroke:none;fill-rule:nonzero;fill:rgb(100%,100%,100%);fill-opacity:0.933333;" d="M 8.292969 16.359375 C 8.292969 16.304688 8.25 16.257812 8.199219 16.257812 C 8.144531 16.257812 8.101562 16.304688 8.101562 16.359375 C 8.101562 16.414062 8.144531 16.457031 8.199219 16.457031 C 8.25 16.457031 8.292969 16.414062 8.292969 16.359375 Z M 8.292969 16.359375 "/>
<path style=" stroke:none;fill-rule:nonzero;fill:rgb(100%,100%,100%);fill-opacity:0.933333;" d="M 8.292969 16.359375 C 8.292969 16.304688 8.25 16.257812 8.199219 16.257812 C 8.144531 16.257812 8.101562 16.304688 8.101562 16.359375 C 8.101562 16.414062 8.144531 16.457031 8.199219 16.457031 C 8.25 16.457031 8.292969 16.414062 8.292969 16.359375 Z M 8.292969 16.359375 "/>
<path style=" stroke:none;fill-rule:nonzero;fill:rgb(100%,100%,100%);fill-opacity:0.933333;" d="M 7.804688 18.113281 C 7.804688 18.058594 7.761719 18.011719 7.707031 18.011719 C 7.65625 18.011719 7.613281 18.058594 7.613281 18.113281 C 7.613281 18.167969 7.65625 18.210938 7.707031 18.210938 C 7.761719 18.210938 7.804688 18.167969 7.804688 18.113281 Z M 7.804688 18.113281 "/>
<path style=" stroke:none;fill-rule:nonzero;fill:rgb(100%,100%,100%);fill-opacity:0.933333;" d="M 7.804688 18.113281 C 7.804688 18.058594 7.761719 18.011719 7.707031 18.011719 C 7.65625 18.011719 7.613281 18.058594 7.613281 18.113281 C 7.613281 18.167969 7.65625 18.210938 7.707031 18.210938 C 7.761719 18.210938 7.804688 18.167969 7.804688 18.113281 Z M 7.804688 18.113281 "/>
<path style=" stroke:none;fill-rule:nonzero;fill:rgb(100%,100%,100%);fill-opacity:0.933333;" d="M 7.804688 18.113281 C 7.804688 18.058594 7.761719 18.011719 7.707031 18.011719 C 7.65625 18.011719 7.613281 18.058594 7.613281 18.113281 C 7.613281 18.167969 7.65625 18.210938 7.707031 18.210938 C 7.761719 18.210938 7.804688 18.167969 7.804688 18.113281 Z M 7.804688 18.113281 "/>
<path style=" stroke:none;fill-rule:nonzero;fill:rgb(100%,100%,100%);fill-opacity:0.933333;" d="M 7.804688 18.113281 C 7.804688 18.058594 7.761719 18.011719 7.707031 18.011719 C 7.65625 18.011719 7.613281 18.058594 7.613281 18.113281 C 7.613281 18.167969 7.65625 18.210938 7.707031 18.210938 C 7.761719 18.210938 7.804688 18.167969 7.804688 18.113281 Z M 7.804688 18.113281 "/>
<path style=" stroke:none;fill-rule:nonzero;fill:rgb(100%,100%,100%);fill-opacity:0.933333;" d="M 7.804688 18.113281 C 7.804688 18.058594 7.761719 18.011719 7.707031 18.011719 C 7.65625 18.011719 7.613281 18.058594 7.613281 18.113281 C 7.613281 18.167969 7.65625 18.210938 7.707031 18.210938 C 7.761719 18.210938 7.804688 18.167969 7.804688 18.113281 Z M 7.804688 18.113281 "/>
<path style=" stroke:none;fill-rule:nonzero;fill:rgb(100%,100%,100%);fill-opacity:0.933333;" d="M 7.804688 18.113281 C 7.804688 18.058594 7.761719 18.011719 7.707031 18.011719 C 7.65625 18.011719 7.613281 18.058594 7.613281 18.113281 C 7.613281 18.167969 7.65625 18.210938 7.707031 18.210938 C 7.761719 18.210938 7.804688 18.167969 7.804688 18.113281 Z M 7.804688 18.113281 "/>
<path style=" stroke:none;fill-rule:nonzero;fill:rgb(100%,100%,100%);fill-opacity:0.933333;" d="M 7.804688 18.113281 C 7.804688 18.058594 7.761719 18.011719 7.707031 18.011719 C 7.65625 18.011719 7.613281 18.058594 7.613281 18.113281 C 7.613281 18.167969 7.65625 18.210938 7.707031 18.210938 C 7.761719 18.210938 7.804688 18.167969 7.804688 18.113281 Z M 7.804688 18.113281 "/>
<path style=" stroke:none;fill-rule:nonzero;fill:rgb(100%,100%,100%);fill-opacity:0.933333;" d="M 7.804688 18.113281 C 7.804688 18.058594 7.761719 18.011719 7.707031 18.011719 C 7.65625 18.011719 7.613281 18.058594 7.613281 18.113281 C 7.613281 18.167969 7.65625 18.210938 7.707031 18.210938 C 7.761719 18.210938 7.804688 18.167969 7.804688 18.113281 Z M 7.804688 18.113281 "/>
<path style=" stroke:none;fill-rule:nonzero;fill:rgb(100%,100%,100%);fill-opacity:0.933333;" d="M 9.394531 18.625 C 9.394531 18.570312 9.351562 18.527344 9.300781 18.527344 C 9.246094 18.527344 9.203125 18.570312 9.203125 18.625 C 9.203125 18.679688 9.246094 18.722656 9.300781 18.722656 C 9.351562 18.722656 9.394531 18.679688 9.394531 18.625 Z M 9.394531 18.625 "/>
<path style=" stroke:none;fill-rule:nonzero;fill:rgb(100%,100%,100%);fill-opacity:0.933333;" d="M 9.394531 18.625 C 9.394531 18.570312 9.351562 18.527344 9.300781 18.527344 C 9.246094 18.527344 9.203125 18.570312 9.203125 18.625 C 9.203125 18.679688 9.246094 18.722656 9.300781 18.722656 C 9.351562 18.722656 9.394531 18.679688 9.394531 18.625 Z M 9.394531 18.625 "/>
<path style=" stroke:none;fill-rule:nonzero;fill:rgb(100%,100%,100%);fill-opacity:0.933333;" d="M 9.394531 18.625 C 9.394531 18.570312 9.351562 18.527344 9.300781 18.527344 C 9.246094 18.527344 9.203125 18.570312 9.203125 18.625 C 9.203125 18.679688 9.246094 18.722656 9.300781 18.722656 C 9.351562 18.722656 9.394531 18.679688 9.394531 18.625 Z M 9.394531 18.625 "/>
<path style=" stroke:none;fill-rule:nonzero;fill:rgb(100%,100%,100%);fill-opacity:0.933333;" d="M 9.394531 18.625 C 9.394531 18.570312 9.351562 18.527344 9.300781 18.527344 C 9.246094 18.527344 9.203125 18.570312 9.203125 18.625 C 9.203125 18.679688 9.246094 18.722656 9.300781 18.722656 C 9.351562 18.722656 9.394531 18.679688 9.394531 18.625 Z M 9.394531 18.625 "/>
<path style=" stroke:none;fill-rule:nonzero;fill:rgb(100%,100%,100%);fill-opacity:0.933333;" d="M 9.394531 18.625 C 9.394531 18.570312 9.351562 18.527344 9.300781 18.527344 C 9.246094 18.527344 9.203125 18.570312 9.203125 18.625 C 9.203125 18.679688 9.246094 18.722656 9.300781 18.722656 C 9.351562 18.722656 9.394531 18.679688 9.394531 18.625 Z M 9.394531 18.625 "/>
<path style=" stroke:none;fill-rule:nonzero;fill:rgb(100%,100%,100%);fill-opacity:0.933333;" d="M 9.394531 18.625 C 9.394531 18.570312 9.351562 18.527344 9.300781 18.527344 C 9.246094 18.527344 9.203125 18.570312 9.203125 18.625 C 9.203125 18.679688 9.246094 18.722656 9.300781 18.722656 C 9.351562 18.722656 9.394531 18.679688 9.394531 18.625 Z M 9.394531 18.625 "/>
<path style=" stroke:none;fill-rule:nonzero;fill:rgb(100%,100%,100%);fill-opacity:0.933333;" d="M 9.394531 18.625 C 9.394531 18.570312 9.351562 18.527344 9.300781 18.527344 C 9.246094 18.527344 9.203125 18.570312 9.203125 18.625 C 9.203125 18.679688 9.246094 18.722656 9.300781 18.722656 C 9.351562 18.722656 9.394531 18.679688 9.394531 18.625 Z M 9.394531 18.625 "/>
<path style=" stroke:none;fill-rule:nonzero;fill:rgb(100%,100%,100%);fill-opacity:0.933333;" d="M 9.394531 18.625 C 9.394531 18.570312 9.351562 18.527344 9.300781 18.527344 C 9.246094 18.527344 9.203125 18.570312 9.203125 18.625 C 9.203125 18.679688 9.246094 18.722656 9.300781 18.722656 C 9.351562 18.722656 9.394531 18.679688 9.394531 18.625 Z M 9.394531 18.625 "/>
<path style=" stroke:none;fill-rule:nonzero;fill:rgb(100%,100%,100%);fill-opacity:0.933333;" d="M 1.839844 5.28125 C 1.839844 5.097656 1.691406 4.945312 1.507812 4.945312 C 1.328125 4.945312 1.179688 5.097656 1.179688 5.28125 C 1.179688 5.46875 1.328125 5.621094 1.507812 5.621094 C 1.691406 5.621094 1.839844 5.46875 1.839844 5.28125 Z M 1.839844 5.28125 "/>
<path style=" stroke:none;fill-rule:nonzero;fill:rgb(100%,100%,100%);fill-opacity:0.933333;" d="M 1.839844 5.28125 C 1.839844 5.097656 1.691406 4.945312 1.507812 4.945312 C 1.328125 4.945312 1.179688 5.097656 1.179688 5.28125 C 1.179688 5.46875 1.328125 5.621094 1.507812 5.621094 C 1.691406 5.621094 1.839844 5.46875 1.839844 5.28125 Z M 1.839844 5.28125 "/>
<path style=" stroke:none;fill-rule:nonzero;fill:rgb(100%,100%,100%);fill-opacity:0.933333;" d="M 1.839844 5.28125 C 1.839844 5.097656 1.691406 4.945312 1.507812 4.945312 C 1.328125 4.945312 1.179688 5.097656 1.179688 5.28125 C 1.179688 5.46875 1.328125 5.621094 1.507812 5.621094 C 1.691406 5.621094 1.839844 5.46875 1.839844 5.28125 Z M 1.839844 5.28125 "/>
<path style=" stroke:none;fill-rule:nonzero;fill:rgb(100%,100%,100%);fill-opacity:0.933333;" d="M 1.839844 5.28125 C 1.839844 5.097656 1.691406 4.945312 1.507812 4.945312 C 1.328125 4.945312 1.179688 5.097656 1.179688 5.28125 C 1.179688 5.46875 1.328125 5.621094 1.507812 5.621094 C 1.691406 5.621094 1.839844 5.46875 1.839844 5.28125 Z M 1.839844 5.28125 "/>
<path style=" stroke:none;fill-rule:nonzero;fill:rgb(100%,100%,100%);fill-opacity:0.933333;" d="M 1.839844 5.28125 C 1.839844 5.097656 1.691406 4.945312 1.507812 4.945312 C 1.328125 4.945312 1.179688 5.097656 1.179688 5.28125 C 1.179688 5.46875 1.328125 5.621094 1.507812 5.621094 C 1.691406 5.621094 1.839844 5.46875 1.839844 5.28125 Z M 1.839844 5.28125 "/>
<path style=" stroke:none;fill-rule:nonzero;fill:rgb(100%,100%,100%);fill-opacity:0.933333;" d="M 1.839844 5.28125 C 1.839844 5.097656 1.691406 4.945312 1.507812 4.945312 C 1.328125 4.945312 1.179688 5.097656 1.179688 5.28125 C 1.179688 5.46875 1.328125 5.621094 1.507812 5.621094 C 1.691406 5.621094 1.839844 5.46875 1.839844 5.28125 Z M 1.839844 5.28125 "/>
<path style=" stroke:none;fill-rule:nonzero;fill:rgb(100%,100%,100%);fill-opacity:0.933333;" d="M 1.839844 5.28125 C 1.839844 5.097656 1.691406 4.945312 1.507812 4.945312 C 1.328125 4.945312 1.179688 5.097656 1.179688 5.28125 C 1.179688 5.46875 1.328125 5.621094 1.507812 5.621094 C 1.691406 5.621094 1.839844 5.46875 1.839844 5.28125 Z M 1.839844 5.28125 "/>
<path style=" stroke:none;fill-rule:nonzero;fill:rgb(100%,100%,100%);fill-opacity:0.933333;" d="M 1.839844 5.28125 C 1.839844 5.097656 1.691406 4.945312 1.507812 4.945312 C 1.328125 4.945312 1.179688 5.097656 1.179688 5.28125 C 1.179688 5.46875 1.328125 5.621094 1.507812 5.621094 C 1.691406 5.621094 1.839844 5.46875 1.839844 5.28125 Z M 1.839844 5.28125 "/>
<path style=" stroke:none;fill-rule:nonzero;fill:rgb(100%,100%,100%);fill-opacity:0.933333;" d="M 3.445312 6.09375 C 3.445312 5.90625 3.300781 5.753906 3.117188 5.753906 C 2.9375 5.753906 2.789062 5.90625 2.789062 6.09375 C 2.789062 6.277344 2.9375 6.429688 3.117188 6.429688 C 3.300781 6.429688 3.445312 6.277344 3.445312 6.09375 Z M 3.445312 6.09375 "/>
<path style=" stroke:none;fill-rule:nonzero;fill:rgb(100%,100%,100%);fill-opacity:0.933333;" d="M 3.445312 6.09375 C 3.445312 5.90625 3.300781 5.753906 3.117188 5.753906 C 2.9375 5.753906 2.789062 5.90625 2.789062 6.09375 C 2.789062 6.277344 2.9375 6.429688 3.117188 6.429688 C 3.300781 6.429688 3.445312 6.277344 3.445312 6.09375 Z M 3.445312 6.09375 "/>
<path style=" stroke:none;fill-rule:nonzero;fill:rgb(100%,100%,100%);fill-opacity:0.933333;" d="M 3.445312 6.09375 C 3.445312 5.90625 3.300781 5.753906 3.117188 5.753906 C 2.9375 5.753906 2.789062 5.90625 2.789062 6.09375 C 2.789062 6.277344 2.9375 6.429688 3.117188 6.429688 C 3.300781 6.429688 3.445312 6.277344 3.445312 6.09375 Z M 3.445312 6.09375 "/>
<path style=" stroke:none;fill-rule:nonzero;fill:rgb(100%,100%,100%);fill-opacity:0.933333;" d="M 3.445312 6.09375 C 3.445312 5.90625 3.300781 5.753906 3.117188 5.753906 C 2.9375 5.753906 2.789062 5.90625 2.789062 6.09375 C 2.789062 6.277344 2.9375 6.429688 3.117188 6.429688 C 3.300781 6.429688 3.445312 6.277344 3.445312 6.09375 Z M 3.445312 6.09375 "/>
<path style=" stroke:none;fill-rule:nonzero;fill:rgb(100%,100%,100%);fill-opacity:0.933333;" d="M 3.445312 6.09375 C 3.445312 5.90625 3.300781 5.753906 3.117188 5.753906 C 2.9375 5.753906 2.789062 5.90625 2.789062 6.09375 C 2.789062 6.277344 2.9375 6.429688 3.117188 6.429688 C 3.300781 6.429688 3.445312 6.277344 3.445312 6.09375 Z M 3.445312 6.09375 "/>
<path style=" stroke:none;fill-rule:nonzero;fill:rgb(100%,100%,100%);fill-opacity:0.933333;" d="M 3.445312 6.09375 C 3.445312 5.90625 3.300781 5.753906 3.117188 5.753906 C 2.9375 5.753906 2.789062 5.90625 2.789062 6.09375 C 2.789062 6.277344 2.9375 6.429688 3.117188 6.429688 C 3.300781 6.429688 3.445312 6.277344 3.445312 6.09375 Z M 3.445312 6.09375 "/>
<path style=" stroke:none;fill-rule:nonzero;fill:rgb(100%,100%,100%);fill-opacity:0.933333;" d="M 3.445312 6.09375 C 3.445312 5.90625 3.300781 5.753906 3.117188 5.753906 C 2.9375 5.753906 2.789062 5.90625 2.789062 6.09375 C 2.789062 6.277344 2.9375 6.429688 3.117188 6.429688 C 3.300781 6.429688 3.445312 6.277344 3.445312 6.09375 Z M 3.445312 6.09375 "/>
<path style=" stroke:none;fill-rule:nonzero;fill:rgb(100%,100%,100%);fill-opacity:0.933333;" d="M 3.445312 6.09375 C 3.445312 5.90625 3.300781 5.753906 3.117188 5.753906 C 2.9375 5.753906 2.789062 5.90625 2.789062 6.09375 C 2.789062 6.277344 2.9375 6.429688 3.117188 6.429688 C 3.300781 6.429688 3.445312 6.277344 3.445312 6.09375 Z M 3.445312 6.09375 "/>
<path style=" stroke:none;fill-rule:nonzero;fill:rgb(100%,100%,100%);fill-opacity:0.933333;" d="M 2.234375 7.542969 C 2.234375 7.359375 2.089844 7.207031 1.90625 7.207031 C 1.726562 7.207031 1.578125 7.359375 1.578125 7.542969 C 1.578125 7.730469 1.726562 7.882812 1.90625 7.882812 C 2.089844 7.882812 2.234375 7.730469 2.234375 7.542969 Z M 2.234375 7.542969 "/>
<path style=" stroke:none;fill-rule:nonzero;fill:rgb(100%,100%,100%);fill-opacity:0.933333;" d="M 2.234375 7.542969 C 2.234375 7.359375 2.089844 7.207031 1.90625 7.207031 C 1.726562 7.207031 1.578125 7.359375 1.578125 7.542969 C 1.578125 7.730469 1.726562 7.882812 1.90625 7.882812 C 2.089844 7.882812 2.234375 7.730469 2.234375 7.542969 Z M 2.234375 7.542969 "/>
<path style=" stroke:none;fill-rule:nonzero;fill:rgb(100%,100%,100%);fill-opacity:0.933333;" d="M 2.234375 7.542969 C 2.234375 7.359375 2.089844 7.207031 1.90625 7.207031 C 1.726562 7.207031 1.578125 7.359375 1.578125 7.542969 C 1.578125 7.730469 1.726562 7.882812 1.90625 7.882812 C 2.089844 7.882812 2.234375 7.730469 2.234375 7.542969 Z M 2.234375 7.542969 "/>
<path style=" stroke:none;fill-rule:nonzero;fill:rgb(100%,100%,100%);fill-opacity:0.933333;" d="M 2.234375 7.542969 C 2.234375 7.359375 2.089844 7.207031 1.90625 7.207031 C 1.726562 7.207031 1.578125 7.359375 1.578125 7.542969 C 1.578125 7.730469 1.726562 7.882812 1.90625 7.882812 C 2.089844 7.882812 2.234375 7.730469 2.234375 7.542969 Z M 2.234375 7.542969 "/>
<path style=" stroke:none;fill-rule:nonzero;fill:rgb(100%,100%,100%);fill-opacity:0.933333;" d="M 2.234375 7.542969 C 2.234375 7.359375 2.089844 7.207031 1.90625 7.207031 C 1.726562 7.207031 1.578125 7.359375 1.578125 7.542969 C 1.578125 7.730469 1.726562 7.882812 1.90625 7.882812 C 2.089844 7.882812 2.234375 7.730469 2.234375 7.542969 Z M 2.234375 7.542969 "/>
<path style=" stroke:none;fill-rule:nonzero;fill:rgb(100%,100%,100%);fill-opacity:0.933333;" d="M 2.234375 7.542969 C 2.234375 7.359375 2.089844 7.207031 1.90625 7.207031 C 1.726562 7.207031 1.578125 7.359375 1.578125 7.542969 C 1.578125 7.730469 1.726562 7.882812 1.90625 7.882812 C 2.089844 7.882812 2.234375 7.730469 2.234375 7.542969 Z M 2.234375 7.542969 "/>
<path style=" stroke:none;fill-rule:nonzero;fill:rgb(100%,100%,100%);fill-opacity:0.933333;" d="M 2.234375 7.542969 C 2.234375 7.359375 2.089844 7.207031 1.90625 7.207031 C 1.726562 7.207031 1.578125 7.359375 1.578125 7.542969 C 1.578125 7.730469 1.726562 7.882812 1.90625 7.882812 C 2.089844 7.882812 2.234375 7.730469 2.234375 7.542969 Z M 2.234375 7.542969 "/>
<path style=" stroke:none;fill-rule:nonzero;fill:rgb(100%,100%,100%);fill-opacity:0.933333;" d="M 2.234375 7.542969 C 2.234375 7.359375 2.089844 7.207031 1.90625 7.207031 C 1.726562 7.207031 1.578125 7.359375 1.578125 7.542969 C 1.578125 7.730469 1.726562 7.882812 1.90625 7.882812 C 2.089844 7.882812 2.234375 7.730469 2.234375 7.542969 Z M 2.234375 7.542969 "/>
<path style=" stroke:none;fill-rule:nonzero;fill:rgb(100%,100%,100%);fill-opacity:0.933333;" d="M 4.882812 7.476562 C 4.882812 7.289062 4.734375 7.140625 4.554688 7.140625 C 4.371094 7.140625 4.226562 7.289062 4.226562 7.476562 C 4.226562 7.664062 4.371094 7.8125 4.554688 7.8125 C 4.734375 7.8125 4.882812 7.664062 4.882812 7.476562 Z M 4.882812 7.476562 "/>
<path style=" stroke:none;fill-rule:nonzero;fill:rgb(100%,100%,100%);fill-opacity:0.933333;" d="M 4.882812 7.476562 C 4.882812 7.289062 4.734375 7.140625 4.554688 7.140625 C 4.371094 7.140625 4.226562 7.289062 4.226562 7.476562 C 4.226562 7.664062 4.371094 7.8125 4.554688 7.8125 C 4.734375 7.8125 4.882812 7.664062 4.882812 7.476562 Z M 4.882812 7.476562 "/>
<path style=" stroke:none;fill-rule:nonzero;fill:rgb(100%,100%,100%);fill-opacity:0.933333;" d="M 4.882812 7.476562 C 4.882812 7.289062 4.734375 7.140625 4.554688 7.140625 C 4.371094 7.140625 4.226562 7.289062 4.226562 7.476562 C 4.226562 7.664062 4.371094 7.8125 4.554688 7.8125 C 4.734375 7.8125 4.882812 7.664062 4.882812 7.476562 Z M 4.882812 7.476562 "/>
<path style=" stroke:none;fill-rule:nonzero;fill:rgb(100%,100%,100%);fill-opacity:0.933333;" d="M 4.882812 7.476562 C 4.882812 7.289062 4.734375 7.140625 4.554688 7.140625 C 4.371094 7.140625 4.226562 7.289062 4.226562 7.476562 C 4.226562 7.664062 4.371094 7.8125 4.554688 7.8125 C 4.734375 7.8125 4.882812 7.664062 4.882812 7.476562 Z M 4.882812 7.476562 "/>
<path style=" stroke:none;fill-rule:nonzero;fill:rgb(100%,100%,100%);fill-opacity:0.933333;" d="M 4.882812 7.476562 C 4.882812 7.289062 4.734375 7.140625 4.554688 7.140625 C 4.371094 7.140625 4.226562 7.289062 4.226562 7.476562 C 4.226562 7.664062 4.371094 7.8125 4.554688 7.8125 C 4.734375 7.8125 4.882812 7.664062 4.882812 7.476562 Z M 4.882812 7.476562 "/>
<path style=" stroke:none;fill-rule:nonzero;fill:rgb(100%,100%,100%);fill-opacity:0.933333;" d="M 4.882812 7.476562 C 4.882812 7.289062 4.734375 7.140625 4.554688 7.140625 C 4.371094 7.140625 4.226562 7.289062 4.226562 7.476562 C 4.226562 7.664062 4.371094 7.8125 4.554688 7.8125 C 4.734375 7.8125 4.882812 7.664062 4.882812 7.476562 Z M 4.882812 7.476562 "/>
<path style=" stroke:none;fill-rule:nonzero;fill:rgb(100%,100%,100%);fill-opacity:0.933333;" d="M 4.882812 7.476562 C 4.882812 7.289062 4.734375 7.140625 4.554688 7.140625 C 4.371094 7.140625 4.226562 7.289062 4.226562 7.476562 C 4.226562 7.664062 4.371094 7.8125 4.554688 7.8125 C 4.734375 7.8125 4.882812 7.664062 4.882812 7.476562 Z M 4.882812 7.476562 "/>
<path style=" stroke:none;fill-rule:nonzero;fill:rgb(100%,100%,100%);fill-opacity:0.933333;" d="M 4.882812 7.476562 C 4.882812 7.289062 4.734375 7.140625 4.554688 7.140625 C 4.371094 7.140625 4.226562 7.289062 4.226562 7.476562 C 4.226562 7.664062 4.371094 7.8125 4.554688 7.8125 C 4.734375 7.8125 4.882812 7.664062 4.882812 7.476562 Z M 4.882812 7.476562 "/>
<path style=" stroke:none;fill-rule:nonzero;fill:rgb(100%,100%,100%);fill-opacity:0.933333;" d="M 4.347656 6.191406 C 4.347656 6.136719 4.304688 6.089844 4.253906 6.089844 C 4.199219 6.089844 4.15625 6.136719 4.15625 6.191406 C 4.15625 6.246094 4.199219 6.289062 4.253906 6.289062 C 4.304688 6.289062 4.347656 6.246094 4.347656 6.191406 Z M 4.347656 6.191406 "/>
<path style=" stroke:none;fill-rule:nonzero;fill:rgb(100%,100%,100%);fill-opacity:0.933333;" d="M 4.347656 6.191406 C 4.347656 6.136719 4.304688 6.089844 4.253906 6.089844 C 4.199219 6.089844 4.15625 6.136719 4.15625 6.191406 C 4.15625 6.246094 4.199219 6.289062 4.253906 6.289062 C 4.304688 6.289062 4.347656 6.246094 4.347656 6.191406 Z M 4.347656 6.191406 "/>
<path style=" stroke:none;fill-rule:nonzero;fill:rgb(100%,100%,100%);fill-opacity:0.933333;" d="M 4.347656 6.191406 C 4.347656 6.136719 4.304688 6.089844 4.253906 6.089844 C 4.199219 6.089844 4.15625 6.136719 4.15625 6.191406 C 4.15625 6.246094 4.199219 6.289062 4.253906 6.289062 C 4.304688 6.289062 4.347656 6.246094 4.347656 6.191406 Z M 4.347656 6.191406 "/>
<path style=" stroke:none;fill-rule:nonzero;fill:rgb(100%,100%,100%);fill-opacity:0.933333;" d="M 4.347656 6.191406 C 4.347656 6.136719 4.304688 6.089844 4.253906 6.089844 C 4.199219 6.089844 4.15625 6.136719 4.15625 6.191406 C 4.15625 6.246094 4.199219 6.289062 4.253906 6.289062 C 4.304688 6.289062 4.347656 6.246094 4.347656 6.191406 Z M 4.347656 6.191406 "/>
<path style=" stroke:none;fill-rule:nonzero;fill:rgb(100%,100%,100%);fill-opacity:0.933333;" d="M 4.347656 6.191406 C 4.347656 6.136719 4.304688 6.089844 4.253906 6.089844 C 4.199219 6.089844 4.15625 6.136719 4.15625 6.191406 C 4.15625 6.246094 4.199219 6.289062 4.253906 6.289062 C 4.304688 6.289062 4.347656 6.246094 4.347656 6.191406 Z M 4.347656 6.191406 "/>
<path style=" stroke:none;fill-rule:nonzero;fill:rgb(100%,100%,100%);fill-opacity:0.933333;" d="M 4.347656 6.191406 C 4.347656 6.136719 4.304688 6.089844 4.253906 6.089844 C 4.199219 6.089844 4.15625 6.136719 4.15625 6.191406 C 4.15625 6.246094 4.199219 6.289062 4.253906 6.289062 C 4.304688 6.289062 4.347656 6.246094 4.347656 6.191406 Z M 4.347656 6.191406 "/>
<path style=" stroke:none;fill-rule:nonzero;fill:rgb(100%,100%,100%);fill-opacity:0.933333;" d="M 4.347656 6.191406 C 4.347656 6.136719 4.304688 6.089844 4.253906 6.089844 C 4.199219 6.089844 4.15625 6.136719 4.15625 6.191406 C 4.15625 6.246094 4.199219 6.289062 4.253906 6.289062 C 4.304688 6.289062 4.347656 6.246094 4.347656 6.191406 Z M 4.347656 6.191406 "/>
<path style=" stroke:none;fill-rule:nonzero;fill:rgb(100%,100%,100%);fill-opacity:0.933333;" d="M 4.347656 6.191406 C 4.347656 6.136719 4.304688 6.089844 4.253906 6.089844 C 4.199219 6.089844 4.15625 6.136719 4.15625 6.191406 C 4.15625 6.246094 4.199219 6.289062 4.253906 6.289062 C 4.304688 6.289062 4.347656 6.246094 4.347656 6.191406 Z M 4.347656 6.191406 "/>
<path style=" stroke:none;fill-rule:nonzero;fill:rgb(100%,100%,100%);fill-opacity:0.933333;" d="M 3.585938 7.539062 C 3.585938 7.484375 3.542969 7.441406 3.492188 7.441406 C 3.4375 7.441406 3.394531 7.484375 3.394531 7.539062 C 3.394531 7.59375 3.4375 7.640625 3.492188 7.640625 C 3.542969 7.640625 3.585938 7.59375 3.585938 7.539062 Z M 3.585938 7.539062 "/>
<path style=" stroke:none;fill-rule:nonzero;fill:rgb(100%,100%,100%);fill-opacity:0.933333;" d="M 3.585938 7.539062 C 3.585938 7.484375 3.542969 7.441406 3.492188 7.441406 C 3.4375 7.441406 3.394531 7.484375 3.394531 7.539062 C 3.394531 7.59375 3.4375 7.640625 3.492188 7.640625 C 3.542969 7.640625 3.585938 7.59375 3.585938 7.539062 Z M 3.585938 7.539062 "/>
<path style=" stroke:none;fill-rule:nonzero;fill:rgb(100%,100%,100%);fill-opacity:0.933333;" d="M 3.585938 7.539062 C 3.585938 7.484375 3.542969 7.441406 3.492188 7.441406 C 3.4375 7.441406 3.394531 7.484375 3.394531 7.539062 C 3.394531 7.59375 3.4375 7.640625 3.492188 7.640625 C 3.542969 7.640625 3.585938 7.59375 3.585938 7.539062 Z M 3.585938 7.539062 "/>
<path style=" stroke:none;fill-rule:nonzero;fill:rgb(100%,100%,100%);fill-opacity:0.933333;" d="M 3.585938 7.539062 C 3.585938 7.484375 3.542969 7.441406 3.492188 7.441406 C 3.4375 7.441406 3.394531 7.484375 3.394531 7.539062 C 3.394531 7.59375 3.4375 7.640625 3.492188 7.640625 C 3.542969 7.640625 3.585938 7.59375 3.585938 7.539062 Z M 3.585938 7.539062 "/>
<path style=" stroke:none;fill-rule:nonzero;fill:rgb(100%,100%,100%);fill-opacity:0.933333;" d="M 3.585938 7.539062 C 3.585938 7.484375 3.542969 7.441406 3.492188 7.441406 C 3.4375 7.441406 3.394531 7.484375 3.394531 7.539062 C 3.394531 7.59375 3.4375 7.640625 3.492188 7.640625 C 3.542969 7.640625 3.585938 7.59375 3.585938 7.539062 Z M 3.585938 7.539062 "/>
<path style=" stroke:none;fill-rule:nonzero;fill:rgb(100%,100%,100%);fill-opacity:0.933333;" d="M 3.585938 7.539062 C 3.585938 7.484375 3.542969 7.441406 3.492188 7.441406 C 3.4375 7.441406 3.394531 7.484375 3.394531 7.539062 C 3.394531 7.59375 3.4375 7.640625 3.492188 7.640625 C 3.542969 7.640625 3.585938 7.59375 3.585938 7.539062 Z M 3.585938 7.539062 "/>
<path style=" stroke:none;fill-rule:nonzero;fill:rgb(100%,100%,100%);fill-opacity:0.933333;" d="M 3.585938 7.539062 C 3.585938 7.484375 3.542969 7.441406 3.492188 7.441406 C 3.4375 7.441406 3.394531 7.484375 3.394531 7.539062 C 3.394531 7.59375 3.4375 7.640625 3.492188 7.640625 C 3.542969 7.640625 3.585938 7.59375 3.585938 7.539062 Z M 3.585938 7.539062 "/>
<path style=" stroke:none;fill-rule:nonzero;fill:rgb(100%,100%,100%);fill-opacity:0.933333;" d="M 3.585938 7.539062 C 3.585938 7.484375 3.542969 7.441406 3.492188 7.441406 C 3.4375 7.441406 3.394531 7.484375 3.394531 7.539062 C 3.394531 7.59375 3.4375 7.640625 3.492188 7.640625 C 3.542969 7.640625 3.585938 7.59375 3.585938 7.539062 Z M 3.585938 7.539062 "/>
<path style=" stroke:none;fill-rule:nonzero;fill:rgb(100%,100%,100%);fill-opacity:0.933333;" d="M 1.839844 6.425781 C 1.839844 6.371094 1.796875 6.328125 1.746094 6.328125 C 1.691406 6.328125 1.648438 6.371094 1.648438 6.425781 C 1.648438 6.480469 1.691406 6.523438 1.746094 6.523438 C 1.796875 6.523438 1.839844 6.480469 1.839844 6.425781 Z M 1.839844 6.425781 "/>
<path style=" stroke:none;fill-rule:nonzero;fill:rgb(100%,100%,100%);fill-opacity:0.933333;" d="M 1.839844 6.425781 C 1.839844 6.371094 1.796875 6.328125 1.746094 6.328125 C 1.691406 6.328125 1.648438 6.371094 1.648438 6.425781 C 1.648438 6.480469 1.691406 6.523438 1.746094 6.523438 C 1.796875 6.523438 1.839844 6.480469 1.839844 6.425781 Z M 1.839844 6.425781 "/>
<path style=" stroke:none;fill-rule:nonzero;fill:rgb(100%,100%,100%);fill-opacity:0.933333;" d="M 1.839844 6.425781 C 1.839844 6.371094 1.796875 6.328125 1.746094 6.328125 C 1.691406 6.328125 1.648438 6.371094 1.648438 6.425781 C 1.648438 6.480469 1.691406 6.523438 1.746094 6.523438 C 1.796875 6.523438 1.839844 6.480469 1.839844 6.425781 Z M 1.839844 6.425781 "/>
<path style=" stroke:none;fill-rule:nonzero;fill:rgb(100%,100%,100%);fill-opacity:0.933333;" d="M 1.839844 6.425781 C 1.839844 6.371094 1.796875 6.328125 1.746094 6.328125 C 1.691406 6.328125 1.648438 6.371094 1.648438 6.425781 C 1.648438 6.480469 1.691406 6.523438 1.746094 6.523438 C 1.796875 6.523438 1.839844 6.480469 1.839844 6.425781 Z M 1.839844 6.425781 "/>
<path style=" stroke:none;fill-rule:nonzero;fill:rgb(100%,100%,100%);fill-opacity:0.933333;" d="M 1.839844 6.425781 C 1.839844 6.371094 1.796875 6.328125 1.746094 6.328125 C 1.691406 6.328125 1.648438 6.371094 1.648438 6.425781 C 1.648438 6.480469 1.691406 6.523438 1.746094 6.523438 C 1.796875 6.523438 1.839844 6.480469 1.839844 6.425781 Z M 1.839844 6.425781 "/>
<path style=" stroke:none;fill-rule:nonzero;fill:rgb(100%,100%,100%);fill-opacity:0.933333;" d="M 1.839844 6.425781 C 1.839844 6.371094 1.796875 6.328125 1.746094 6.328125 C 1.691406 6.328125 1.648438 6.371094 1.648438 6.425781 C 1.648438 6.480469 1.691406 6.523438 1.746094 6.523438 C 1.796875 6.523438 1.839844 6.480469 1.839844 6.425781 Z M 1.839844 6.425781 "/>
<path style=" stroke:none;fill-rule:nonzero;fill:rgb(100%,100%,100%);fill-opacity:0.933333;" d="M 1.839844 6.425781 C 1.839844 6.371094 1.796875 6.328125 1.746094 6.328125 C 1.691406 6.328125 1.648438 6.371094 1.648438 6.425781 C 1.648438 6.480469 1.691406 6.523438 1.746094 6.523438 C 1.796875 6.523438 1.839844 6.480469 1.839844 6.425781 Z M 1.839844 6.425781 "/>
<path style=" stroke:none;fill-rule:nonzero;fill:rgb(100%,100%,100%);fill-opacity:0.933333;" d="M 1.839844 6.425781 C 1.839844 6.371094 1.796875 6.328125 1.746094 6.328125 C 1.691406 6.328125 1.648438 6.371094 1.648438 6.425781 C 1.648438 6.480469 1.691406 6.523438 1.746094 6.523438 C 1.796875 6.523438 1.839844 6.480469 1.839844 6.425781 Z M 1.839844 6.425781 "/>
<path style=" stroke:none;fill-rule:nonzero;fill:rgb(100%,100%,100%);fill-opacity:0.933333;" d="M 3.015625 4.855469 C 3.015625 4.800781 2.972656 4.757812 2.921875 4.757812 C 2.867188 4.757812 2.824219 4.800781 2.824219 4.855469 C 2.824219 4.910156 2.867188 4.957031 2.921875 4.957031 C 2.972656 4.957031 3.015625 4.910156 3.015625 4.855469 Z M 3.015625 4.855469 "/>
<path style=" stroke:none;fill-rule:nonzero;fill:rgb(100%,100%,100%);fill-opacity:0.933333;" d="M 3.015625 4.855469 C 3.015625 4.800781 2.972656 4.757812 2.921875 4.757812 C 2.867188 4.757812 2.824219 4.800781 2.824219 4.855469 C 2.824219 4.910156 2.867188 4.957031 2.921875 4.957031 C 2.972656 4.957031 3.015625 4.910156 3.015625 4.855469 Z M 3.015625 4.855469 "/>
<path style=" stroke:none;fill-rule:nonzero;fill:rgb(100%,100%,100%);fill-opacity:0.933333;" d="M 3.015625 4.855469 C 3.015625 4.800781 2.972656 4.757812 2.921875 4.757812 C 2.867188 4.757812 2.824219 4.800781 2.824219 4.855469 C 2.824219 4.910156 2.867188 4.957031 2.921875 4.957031 C 2.972656 4.957031 3.015625 4.910156 3.015625 4.855469 Z M 3.015625 4.855469 "/>
<path style=" stroke:none;fill-rule:nonzero;fill:rgb(100%,100%,100%);fill-opacity:0.933333;" d="M 3.015625 4.855469 C 3.015625 4.800781 2.972656 4.757812 2.921875 4.757812 C 2.867188 4.757812 2.824219 4.800781 2.824219 4.855469 C 2.824219 4.910156 2.867188 4.957031 2.921875 4.957031 C 2.972656 4.957031 3.015625 4.910156 3.015625 4.855469 Z M 3.015625 4.855469 "/>
<path style=" stroke:none;fill-rule:nonzero;fill:rgb(47.45098%,59.215686%,0.784314%);fill-opacity:1;" d="M 7.78125 12.332031 C 7.78125 10.867188 6.5625 9.683594 5.066406 9.683594 C 3.566406 9.683594 2.351562 10.867188 2.351562 12.332031 C 2.351562 13.792969 3.566406 14.980469 5.066406 14.980469 C 6.5625 14.980469 7.78125 13.792969 7.78125 12.332031 Z M 7.78125 12.332031 "/>
<path style=" stroke:none;fill-rule:nonzero;fill:rgb(99.607843%,60%,7.45098%);fill-opacity:1;" d="M 7.652344 12.332031 C 7.652344 10.9375 6.492188 9.808594 5.066406 9.808594 C 3.636719 9.808594 2.476562 10.9375 2.476562 12.332031 C 2.476562 13.726562 3.636719 14.855469 5.066406 14.855469 C 6.492188 14.855469 7.652344 13.726562 7.652344 12.332031 Z M 7.652344 12.332031 "/>
<path style=" stroke:none;fill-rule:nonzero;fill:rgb(100%,73.72549%,32.54902%);fill-opacity:1;" d="M 7.507812 12.332031 C 7.507812 11.015625 6.414062 9.949219 5.066406 9.949219 C 3.714844 9.949219 2.625 11.015625 2.625 12.332031 C 2.625 13.648438 3.714844 14.714844 5.066406 14.714844 C 6.414062 14.714844 7.507812 13.648438 7.507812 12.332031 Z M 7.507812 12.332031 "/>
<path style=" stroke:none;fill-rule:nonzero;fill:rgb(89.411765%,36.078431%,1.176471%);fill-opacity:1;" d="M 4.964844 11.683594 C 4.964844 11.546875 4.914062 11.433594 4.855469 11.433594 C 4.792969 11.433594 4.742188 11.546875 4.742188 11.683594 C 4.742188 11.820312 4.792969 11.933594 4.855469 11.933594 C 4.914062 11.933594 4.964844 11.820312 4.964844 11.683594 Z M 4.964844 11.683594 "/>
<path style=" stroke:none;fill-rule:nonzero;fill:rgb(89.411765%,36.078431%,1.176471%);fill-opacity:1;" d="M 5.277344 11.675781 C 5.277344 11.539062 5.226562 11.425781 5.164062 11.425781 C 5.105469 11.425781 5.054688 11.539062 5.054688 11.675781 C 5.054688 11.8125 5.105469 11.925781 5.164062 11.925781 C 5.226562 11.925781 5.277344 11.8125 5.277344 11.675781 Z M 5.277344 11.675781 "/>
<path style=" stroke:none;fill-rule:nonzero;fill:rgb(89.411765%,36.078431%,1.176471%);fill-opacity:1;" d="M 5.566406 12.25 C 5.710938 12.25 5.824219 12.199219 5.824219 12.140625 C 5.824219 12.078125 5.710938 12.03125 5.566406 12.03125 C 5.425781 12.03125 5.3125 12.078125 5.3125 12.140625 C 5.3125 12.199219 5.425781 12.25 5.566406 12.25 Z M 5.566406 12.25 "/>
<path style=" stroke:none;fill-rule:nonzero;fill:rgb(89.411765%,36.078431%,1.176471%);fill-opacity:1;" d="M 5.578125 12.585938 C 5.71875 12.585938 5.832031 12.535156 5.832031 12.476562 C 5.832031 12.414062 5.71875 12.367188 5.578125 12.367188 C 5.433594 12.367188 5.320312 12.414062 5.320312 12.476562 C 5.320312 12.535156 5.433594 12.585938 5.578125 12.585938 Z M 5.578125 12.585938 "/>
<path style=" stroke:none;fill-rule:nonzero;fill:rgb(89.411765%,36.078431%,1.176471%);fill-opacity:1;" d="M 5.054688 12.773438 C 5.054688 12.910156 5.105469 13.019531 5.164062 13.019531 C 5.226562 13.019531 5.277344 12.910156 5.277344 12.773438 C 5.277344 12.632812 5.226562 12.523438 5.164062 12.523438 C 5.105469 12.523438 5.054688 12.632812 5.054688 12.773438 Z M 5.054688 12.773438 "/>
<path style=" stroke:none;fill-rule:nonzero;fill:rgb(89.411765%,36.078431%,1.176471%);fill-opacity:1;" d="M 4.792969 12.773438 C 4.792969 12.910156 4.839844 13.019531 4.902344 13.019531 C 4.964844 13.019531 5.015625 12.910156 5.015625 12.773438 C 5.015625 12.632812 4.964844 12.523438 4.902344 12.523438 C 4.839844 12.523438 4.792969 12.632812 4.792969 12.773438 Z M 4.792969 12.773438 "/>
<path style=" stroke:none;fill-rule:nonzero;fill:rgb(89.411765%,36.078431%,1.176471%);fill-opacity:1;" d="M 4.46875 12.335938 C 4.328125 12.335938 4.214844 12.382812 4.214844 12.445312 C 4.214844 12.503906 4.328125 12.554688 4.46875 12.554688 C 4.609375 12.554688 4.722656 12.503906 4.722656 12.445312 C 4.722656 12.382812 4.609375 12.335938 4.46875 12.335938 Z M 4.46875 12.335938 "/>
<path style=" stroke:none;fill-rule:nonzero;fill:rgb(89.411765%,36.078431%,1.176471%);fill-opacity:1;" d="M 4.445312 12.054688 C 4.300781 12.054688 4.1875 12.105469 4.1875 12.164062 C 4.1875 12.222656 4.300781 12.273438 4.445312 12.273438 C 4.585938 12.273438 4.699219 12.222656 4.699219 12.164062 C 4.699219 12.105469 4.585938 12.054688 4.445312 12.054688 Z M 4.445312 12.054688 "/>
<path style=" stroke:none;fill-rule:nonzero;fill:rgb(98.823529%,53.333333%,23.137255%);fill-opacity:1;" d="M 4.964844 11.796875 C 4.964844 11.6875 4.925781 11.597656 4.878906 11.597656 C 4.832031 11.597656 4.796875 11.6875 4.796875 11.796875 C 4.796875 11.90625 4.832031 11.996094 4.878906 11.996094 C 4.925781 11.996094 4.964844 11.90625 4.964844 11.796875 Z M 4.964844 11.796875 "/>
<path style=" stroke:none;fill-rule:nonzero;fill:rgb(98.823529%,53.333333%,23.137255%);fill-opacity:1;" d="M 5.203125 11.789062 C 5.203125 11.679688 5.164062 11.589844 5.117188 11.589844 C 5.070312 11.589844 5.03125 11.679688 5.03125 11.789062 C 5.03125 11.898438 5.070312 11.988281 5.117188 11.988281 C 5.164062 11.988281 5.203125 11.898438 5.203125 11.789062 Z M 5.203125 11.789062 "/>
<path style=" stroke:none;fill-rule:nonzero;fill:rgb(98.823529%,53.333333%,23.137255%);fill-opacity:1;" d="M 5.421875 12.25 C 5.53125 12.25 5.617188 12.210938 5.617188 12.160156 C 5.617188 12.113281 5.53125 12.074219 5.421875 12.074219 C 5.316406 12.074219 5.226562 12.113281 5.226562 12.160156 C 5.226562 12.210938 5.316406 12.25 5.421875 12.25 Z M 5.421875 12.25 "/>
<path style=" stroke:none;fill-rule:nonzero;fill:rgb(98.823529%,53.333333%,23.137255%);fill-opacity:1;" d="M 5.429688 12.519531 C 5.535156 12.519531 5.621094 12.480469 5.621094 12.433594 C 5.621094 12.382812 5.535156 12.34375 5.429688 12.34375 C 5.320312 12.34375 5.234375 12.382812 5.234375 12.433594 C 5.234375 12.480469 5.320312 12.519531 5.429688 12.519531 Z M 5.429688 12.519531 "/>
<path style=" stroke:none;fill-rule:nonzero;fill:rgb(98.823529%,53.333333%,23.137255%);fill-opacity:1;" d="M 5.03125 12.667969 C 5.03125 12.78125 5.070312 12.867188 5.117188 12.867188 C 5.164062 12.867188 5.203125 12.78125 5.203125 12.667969 C 5.203125 12.558594 5.164062 12.46875 5.117188 12.46875 C 5.070312 12.46875 5.03125 12.558594 5.03125 12.667969 Z M 5.03125 12.667969 "/>
<path style=" stroke:none;fill-rule:nonzero;fill:rgb(98.823529%,53.333333%,23.137255%);fill-opacity:1;" d="M 4.832031 12.667969 C 4.832031 12.78125 4.871094 12.867188 4.917969 12.867188 C 4.964844 12.867188 5.003906 12.78125 5.003906 12.667969 C 5.003906 12.558594 4.964844 12.46875 4.917969 12.46875 C 4.871094 12.46875 4.832031 12.558594 4.832031 12.667969 Z M 4.832031 12.667969 "/>
<path style=" stroke:none;fill-rule:nonzero;fill:rgb(98.823529%,53.333333%,23.137255%);fill-opacity:1;" d="M 4.585938 12.320312 C 4.480469 12.320312 4.394531 12.359375 4.394531 12.40625 C 4.394531 12.453125 4.480469 12.492188 4.585938 12.492188 C 4.695312 12.492188 4.78125 12.453125 4.78125 12.40625 C 4.78125 12.359375 4.695312 12.320312 4.585938 12.320312 Z M 4.585938 12.320312 "/>
<path style=" stroke:none;fill-rule:nonzero;fill:rgb(98.823529%,53.333333%,23.137255%);fill-opacity:1;" d="M 4.566406 12.09375 C 4.460938 12.09375 4.375 12.132812 4.375 12.179688 C 4.375 12.230469 4.460938 12.269531 4.566406 12.269531 C 4.675781 12.269531 4.761719 12.230469 4.761719 12.179688 C 4.761719 12.132812 4.675781 12.09375 4.566406 12.09375 Z M 4.566406 12.09375 "/>
<path style="fill:none;stroke-width:0.146816;stroke-linecap:butt;stroke-linejoin:miter;stroke:rgb(84.705882%,48.627451%,7.843137%);stroke-opacity:1;stroke-miterlimit:4;" d="M 118.298437 175.548913 L 119.273537 176.810645 " transform="matrix(0.244366,0,0,0.238388,-24.294835,-28.821346)"/>
<path style="fill:none;stroke-width:0.146816;stroke-linecap:butt;stroke-linejoin:miter;stroke:rgb(84.705882%,48.627451%,7.843137%);stroke-opacity:1;stroke-miterlimit:4;" d="M 119.273537 176.810645 L 120.184696 175.925794 L 121.079869 176.761487 L 122.038984 175.548913 " transform="matrix(0.244366,0,0,0.238388,-24.294835,-28.821346)"/>
<path style="fill:none;stroke-width:0.146816;stroke-linecap:butt;stroke-linejoin:miter;stroke:rgb(84.705882%,48.627451%,7.843137%);stroke-opacity:1;stroke-miterlimit:4;" d="M 118.074644 168.322631 L 119.049743 167.077286 " transform="matrix(0.244366,0,0,0.238388,-24.294835,-28.821346)"/>
<path style="fill:none;stroke-width:0.146816;stroke-linecap:butt;stroke-linejoin:miter;stroke:rgb(84.705882%,48.627451%,7.843137%);stroke-opacity:1;stroke-miterlimit:4;" d="M 119.049743 167.077286 L 119.960902 167.962136 L 120.856076 167.126444 L 121.815191 168.322631 " transform="matrix(0.244366,0,0,0.238388,-24.294835,-28.821346)"/>
<path style=" stroke:none;fill-rule:nonzero;fill:rgb(47.45098%,59.215686%,0.784314%);fill-opacity:1;" d="M 10.113281 12.179688 C 9.992188 13.585938 8.726562 14.628906 7.285156 14.511719 C 5.847656 14.390625 4.777344 13.15625 4.898438 11.753906 C 5.019531 10.347656 6.285156 9.304688 7.726562 9.421875 C 9.164062 9.539062 10.234375 10.773438 10.113281 12.179688 Z M 10.113281 12.179688 "/>
<path style=" stroke:none;fill-rule:nonzero;fill:rgb(58.431373%,70.588235%,7.843137%);fill-opacity:1;" d="M 9.761719 11.957031 C 9.863281 10.777344 8.964844 9.742188 7.753906 9.644531 C 6.546875 9.542969 5.484375 10.417969 5.382812 11.597656 C 5.28125 12.777344 6.179688 13.816406 7.386719 13.914062 C 8.597656 14.011719 9.660156 13.136719 9.761719 11.957031 Z M 9.761719 11.957031 "/>
<path style=" stroke:none;fill-rule:nonzero;fill:rgb(72.941176%,79.215686%,18.039216%);fill-opacity:1;" d="M 9.386719 11.710938 C 9.46875 10.753906 8.742188 9.917969 7.761719 9.835938 C 6.785156 9.757812 5.925781 10.464844 5.84375 11.417969 C 5.761719 12.375 6.488281 13.210938 7.464844 13.292969 C 8.445312 13.371094 9.304688 12.664062 9.386719 11.710938 Z M 9.386719 11.710938 "/>
<path style=" stroke:none;fill-rule:nonzero;fill:rgb(80%,82.352941%,23.921569%);fill-opacity:1;" d="M 9.082031 11.492188 C 9.144531 10.761719 8.589844 10.121094 7.84375 10.0625 C 7.097656 10 6.441406 10.539062 6.378906 11.269531 C 6.316406 11.996094 6.867188 12.636719 7.617188 12.699219 C 8.363281 12.761719 9.019531 12.21875 9.082031 11.492188 Z M 9.082031 11.492188 "/>
<path style=" stroke:none;fill-rule:nonzero;fill:rgb(27.45098%,36.470588%,1.960784%);fill-opacity:1;" d="M 8 8.953125 L 8.253906 8.976562 L 8.203125 9.554688 L 7.953125 9.53125 Z M 8 8.953125 "/>
<path style=" stroke:none;fill-rule:nonzero;fill:rgb(27.45098%,36.470588%,1.960784%);fill-opacity:1;" d="M 8.886719 9.097656 L 8.898438 8.964844 L 7.683594 8.867188 L 7.671875 8.996094 Z M 8.886719 9.097656 "/>
</g>
</svg>
