<svg width="19" height="19" viewBox="0 0 19 19" fill="none" xmlns="http://www.w3.org/2000/svg">
<path d="M2.25088 14.574C2.29682 14.1605 2.31979 13.9537 2.38235 13.7605C2.43785 13.589 2.51627 13.4259 2.61547 13.2754C2.72729 13.1059 2.87438 12.9588 3.16857 12.6646L13.4582 2.37499C14.3326 1.50054 15.7504 1.50054 16.6249 2.37499V2.37499C17.4993 3.24944 17.4993 4.66721 16.6249 5.54166L6.33523 15.8313C6.04105 16.1254 5.89396 16.2725 5.72439 16.3844C5.57395 16.4836 5.41079 16.562 5.23935 16.6175C5.04611 16.68 4.83936 16.703 4.42587 16.749L1.979 17.0208L2.25088 14.574Z" stroke="#23262A" stroke-width="1.3" stroke-linecap="round" stroke-linejoin="round"/>
</svg>
