<svg xmlns="http://www.w3.org/2000/svg"  viewBox="0 0 72 72" width="100%" height="100%"><path d="M 49 10 C 41.28 10 35 16.28 35 24 L 35 28 L 18 28 C 13.582 28 10 31.582 10 36 L 10 52 C 10 56.418 13.582 60 18 60 L 40 60 C 44.418 60 48 56.418 48 52 L 48 36 C 48 32.643974 45.930202 29.775473 43 28.587891 L 43 24 C 43 20.691 45.691 18 49 18 C 52.309 18 55 20.691 55 24 L 55 32 C 55 34.209 56.791 36 59 36 C 61.209 36 63 34.209 63 32 L 63 24 C 63 16.28 56.72 10 49 10 z M 19 36 L 39 36 C 39.552 36 40 36.448 40 37 L 40 51 C 40 51.552 39.552 52 39 52 L 19 52 C 18.448 52 18 51.552 18 51 L 18 37 C 18 36.448 18.448 36 19 36 z" stroke="currentColor" stroke-width="1"/></svg>