<svg width="100%" height="100%" viewBox="0 0 175 53" fill="none" xmlns="http://www.w3.org/2000/svg">
<path d="M59.9497 1.11475H0.3125V52.5105H59.9497V1.11475Z" fill="#EBEBEB"/>
<path d="M0.312606 1.11485H1.15317H3.64293H13.3466L49.629 1.04934L174.33 0.937012H174.596V1.18038C174.596 17.3825 174.596 34.6985 174.596 52.5574V52.8008H174.319L0.301956 52.7165H0.121094V52.4638C0.121094 36.3365 0.195548 23.4478 0.227468 14.6307C0.227468 10.2409 0.227468 6.84318 0.227468 4.54062C0.227468 3.40806 0.227468 2.53757 0.227468 1.94789C0.227468 1.35821 0.227468 1.07742 0.227468 1.07742C0.227468 1.07742 0.227468 1.3863 0.227468 2.01342C0.227468 2.64054 0.227468 3.49229 0.227468 4.63421C0.227468 6.95549 0.227468 10.3532 0.227468 14.7711C0.227468 23.5882 0.291314 36.4114 0.333874 52.5013L0.142362 52.3421L174.16 52.2579L173.883 52.5013V1.11485L174.16 1.34885L49.6715 1.23654L13.3147 1.17101H3.56844H1.03612L0.312606 1.11485Z" fill="#263238"/>
<path d="M106.042 10.3345H71.5156V14.4716H106.042V10.3345Z" fill="#8BAA36"/>
<path d="M162.583 20.5369H71.5156V23.1857H162.583V20.5369Z" fill="#E0E0E0"/>
<path d="M162.583 25.8345H71.5156V28.4834H162.583V25.8345Z" fill="#E0E0E0"/>
<path d="M138.377 41.4844H136.654V42.9633H135.377V41.4844H133.653V40.4267H135.377V38.9385H136.654V40.4267H138.377V41.4844Z" fill="#8BAA36"/>
<path d="M147.644 37.8997V44.0398H146.037V39.0697H144.654V37.9371L147.644 37.8997Z" fill="#8BAA36"/>
<path d="M154.582 41.0073H157.391V42.0931H154.582V41.0073Z" fill="#8BAA36"/>
<path d="M162.584 47.9992C162.584 47.9992 162.584 47.9056 162.584 47.7278C162.584 47.5499 162.584 47.2785 162.584 46.9696C162.584 46.277 162.584 45.3129 162.53 44.0961C162.53 41.597 162.467 38.0401 162.424 33.6784L162.626 33.8562L128.227 33.9218L128.504 33.6784V41.0447C128.504 43.4409 128.504 45.7247 128.504 47.9805L128.238 47.7558L152.869 47.8588L160.03 47.9243H161.956H162.637C162.431 47.9374 162.225 47.9374 162.02 47.9243H160.147L153.05 47.9898L128.238 48.1022H127.972V47.8682C127.972 45.6498 127.972 43.3285 127.972 40.9324V33.7439C127.908 33.7439 128.493 33.2759 128.248 33.4912L162.647 33.5567H162.85V33.7439C162.85 38.1525 162.775 41.7467 162.743 44.2739C162.743 45.472 162.743 46.4174 162.69 47.0819V47.8026C162.605 47.9243 162.594 48.0086 162.584 47.9992Z" fill="#263238"/>
<path d="M78.4631 43.4314C77.8552 43.9017 77.0893 44.1844 76.2819 44.2364V45.4813H75.0157V44.2644C74.411 44.2411 73.8129 44.1434 73.2389 43.9743C72.747 43.8498 72.2853 43.6468 71.877 43.3753L72.5685 42.0274C72.9124 42.2433 73.2883 42.4165 73.6857 42.5422C74.1122 42.6876 74.56 42.779 75.0157 42.8136V40.9416C74.5009 40.8345 73.9959 40.6937 73.5049 40.5204C73.0918 40.373 72.7263 40.1384 72.4409 39.8372C72.1503 39.4916 72.0037 39.0685 72.0259 38.6391C72.0225 38.3432 72.0889 38.0499 72.2207 37.7776C72.3526 37.5054 72.5471 37.2601 72.792 37.0573C73.4043 36.5814 74.1791 36.2982 74.9945 36.2523V35.0261H76.2606V36.2336C77.1613 36.2729 78.0377 36.5041 78.8142 36.9075L78.1865 38.274C77.596 37.9693 76.9404 37.7749 76.2606 37.7031V39.5751C76.7687 39.6737 77.2668 39.8083 77.7502 39.9776C78.1625 40.1263 78.5276 40.3608 78.8142 40.6609C79.1049 40.9993 79.2517 41.4165 79.2292 41.8402C79.236 42.1379 79.1713 42.4336 79.0393 42.7078C78.9073 42.982 78.7109 43.2286 78.4631 43.4314ZM74.3241 39.0229C74.5281 39.1665 74.7636 39.2716 75.0157 39.3317V37.7499C74.749 37.7955 74.5021 37.9057 74.3029 38.0681C74.1554 38.204 74.0751 38.3857 74.0794 38.5736C74.0773 38.6601 74.0984 38.7458 74.1409 38.8239C74.1834 38.9019 74.2462 38.9701 74.3241 39.0229ZM76.9522 42.4767C77.0278 42.4165 77.0878 42.3427 77.1281 42.2604C77.1685 42.178 77.1884 42.089 77.1863 41.9993C77.1896 41.9136 77.1702 41.8284 77.1296 41.7504C77.0889 41.6724 77.0282 41.6038 76.9522 41.55C76.7536 41.4099 76.5259 41.305 76.2819 41.2412V42.7669C76.5338 42.7328 76.7678 42.6315 76.9522 42.4767Z" fill="#E0E0E0"/>
<path d="M87.135 43.4314C86.5284 43.9035 85.7617 44.1864 84.9538 44.2364V45.4813H83.6876V44.2644C83.0829 44.2402 82.485 44.1426 81.9107 43.9743C81.4188 43.8498 80.9572 43.6468 80.5488 43.3753L81.2404 42.0274C81.5868 42.2451 81.9665 42.4184 82.3683 42.5422C82.7911 42.6875 83.2354 42.7789 83.6876 42.8136V40.9416C83.1732 40.833 82.6683 40.6923 82.1767 40.5204C81.763 40.3741 81.3973 40.1392 81.1127 39.8372C80.8184 39.4928 80.6681 39.0696 80.6872 38.6391C80.6838 38.3432 80.7501 38.0499 80.882 37.7776C81.0138 37.5054 81.2083 37.2601 81.4532 37.0573C82.0655 36.5814 82.8403 36.2982 83.6557 36.2523V35.0261H84.9219V36.2336C85.8256 36.2743 86.705 36.5054 87.4861 36.9075L86.8477 38.274C86.2572 37.9693 85.6016 37.7749 84.9219 37.7031V39.5751C85.4299 39.6737 85.9281 39.8083 86.4114 39.9776C86.8252 40.1239 87.1909 40.3588 87.4754 40.6609C87.7661 40.9993 87.9129 41.4165 87.8904 41.8402C87.8986 42.1372 87.8355 42.4324 87.7054 42.7066C87.5752 42.9807 87.3809 43.2277 87.135 43.4314ZM82.996 39.0229C83.2013 39.1647 83.4363 39.2697 83.6876 39.3317V37.7499C83.4231 37.7931 83.1789 37.9038 82.9854 38.0681C82.835 38.2031 82.751 38.3846 82.7513 38.5736C82.7492 38.6601 82.7703 38.7458 82.8128 38.8239C82.8553 38.9019 82.9181 38.9701 82.996 39.0229ZM85.6347 42.4767C85.7073 42.4149 85.7646 42.3406 85.803 42.2585C85.8415 42.1764 85.8603 42.0881 85.8582 41.9993C85.8615 41.9136 85.8421 41.8284 85.8015 41.7504C85.7608 41.6724 85.7001 41.6038 85.6241 41.55C85.4269 41.408 85.1988 41.3029 84.9538 41.2412V42.7669C85.2089 42.7329 85.4463 42.6317 85.6347 42.4767Z" fill="#E0E0E0"/>
<path d="M59.9925 52.9881C59.8329 52.9881 59.7158 41.4378 59.7158 27.2013C59.7158 12.9647 59.8329 1.42383 59.9925 1.42383C60.1521 1.42383 60.2691 12.9647 60.2691 27.2013C60.2691 41.4378 60.1627 52.9881 59.9925 52.9881Z" fill="#263238"/>
<path d="M33.0305 24.0844C34.0565 22.8737 34.6891 21.4404 34.8606 19.9379C35.0731 18.5933 34.821 17.2236 34.1371 16.0067C34.0839 15.9224 34.0307 15.8288 33.9243 15.8008C33.8219 15.7643 33.7074 15.7643 33.6051 15.8008C32.7515 16.1717 32.0245 16.7343 31.4975 17.4318C30.9705 18.1292 30.6622 18.9368 30.6039 19.7727C30.5456 20.6086 30.7393 21.4432 31.1654 22.1921C31.5915 22.941 32.2349 23.5776 33.0305 24.0376" fill="#455A64"/>
<path d="M36.3393 20.6399C37.5544 20.2341 38.6211 19.5449 39.4249 18.6463C40.1944 17.8556 40.6664 16.8746 40.7762 15.8383C40.8069 15.7723 40.8069 15.6983 40.7762 15.6323C40.7166 15.5803 40.6367 15.5501 40.5527 15.5481C39.8373 15.4794 39.1139 15.5781 38.4558 15.8343C37.7977 16.0905 37.2282 16.4951 36.8049 17.0071C36.3816 17.5191 36.1196 18.1203 36.0453 18.7501C35.971 19.3798 36.0871 20.0156 36.3818 20.5931" fill="#455A64"/>
<path d="M35.7756 23.9813C35.8548 23.64 35.8285 23.2863 35.6993 22.9571C35.5702 22.6278 35.343 22.335 35.0415 22.1093C34.4427 21.6751 33.6894 21.4399 32.9135 21.4447C32.2238 21.4251 31.5429 21.5846 30.9557 21.9034C30.6621 22.0638 30.4075 22.2737 30.2066 22.5211C30.0058 22.7685 29.8625 23.0485 29.7853 23.3448C29.7138 23.721 29.7513 24.1069 29.8946 24.4669C30.0378 24.8269 30.282 25.1492 30.6046 25.404C31.2592 25.9109 32.1053 26.1846 32.9773 26.1715C33.7097 26.1864 34.4211 25.9555 34.967 25.5257C35.2206 25.3305 35.4267 25.0923 35.5729 24.8253C35.7192 24.5583 35.8026 24.268 35.8182 23.9719" fill="#8BAA36"/>
<path d="M43.2773 25.8628C46.2246 26.3214 49.1506 23.4479 49.8529 21.5852C49.9079 21.4928 49.9366 21.3901 49.9366 21.2857C49.9366 21.1814 49.9079 21.0786 49.8529 20.9862C49.7611 20.9092 49.6474 20.8555 49.5238 20.8308C49.4001 20.8061 49.2712 20.8113 49.1506 20.8458C47.6943 21.0188 46.3401 21.5997 45.2883 22.5025C44.2408 23.4113 43.5447 24.5868 43.2986 25.8628" fill="#455A64"/>
<path d="M25.0506 20.3965C25.1298 20.0552 25.1035 19.7015 24.9743 19.3723C24.8452 19.043 24.618 18.7502 24.3165 18.5245C23.715 18.0945 22.9635 17.8598 22.1885 17.8599C21.4985 17.8485 20.8192 18.0109 20.2307 18.3279C19.8921 18.4994 19.6053 18.74 19.3946 19.0295C19.1838 19.3189 19.0553 19.6487 19.0198 19.991C18.9844 20.3333 19.043 20.6781 19.1908 20.9963C19.3386 21.3144 19.5712 21.5967 19.869 21.8192C20.5252 22.3299 21.3763 22.604 22.2523 22.5867C22.9847 22.6016 23.6961 22.3707 24.242 21.9409C24.4956 21.7457 24.7017 21.5075 24.8479 21.2405C24.9942 20.9735 25.0776 20.6832 25.0932 20.3871" fill="#8BAA36"/>
<path d="M31.3918 25.0016C31.1614 23.505 30.4737 22.0913 29.4022 20.9113C28.4909 19.815 27.2216 18.989 25.7633 18.5432C25.6637 18.511 25.5543 18.511 25.4547 18.5432C25.4051 18.5673 25.3622 18.6008 25.3291 18.6413C25.296 18.6818 25.2734 18.7282 25.2632 18.7772C24.948 19.5668 24.8754 20.4157 25.0526 21.2379C25.2298 22.0602 25.6505 22.8267 26.2723 23.4601C26.8941 24.0935 27.6949 24.5713 28.5938 24.8453C29.4927 25.1192 30.4579 25.1796 31.3918 25.0203" fill="#455A64"/>
<path d="M20.6247 22.6896C20.0438 22.108 19.5239 21.4815 19.0713 20.8176C18.6244 20.1351 18.3964 19.3587 18.4116 18.5712C18.4095 18.5127 18.4206 18.4544 18.4443 18.3998C18.4681 18.3452 18.504 18.2952 18.5499 18.2529C18.6103 18.2297 18.6755 18.2178 18.7414 18.2178C18.8074 18.2178 18.8726 18.2297 18.933 18.2529C20.5956 18.5827 22.0991 19.3621 23.2326 20.4817C24.3661 21.6014 25.0726 23.0052 25.2531 24.4961L25.3382 24.8892C23.9327 25.6146 22.2623 25.8327 20.6779 25.4976C19.3981 25.2936 18.1762 24.8707 17.0816 24.2527C15.9854 23.6192 15.2053 22.6417 14.9004 21.5196C15.8938 21.3361 16.9209 21.3457 17.9096 21.5478C18.8984 21.7499 19.825 22.1396 20.6247 22.6896Z" fill="#455A64"/>
<path d="M38.9998 20.4058C40.4527 19.2116 42.2603 18.4036 44.2134 18.0752C44.3305 18.933 44.2536 19.8027 43.9871 20.6343C43.7207 21.4658 43.2699 22.2428 42.6607 22.9205C42.0515 23.5982 41.296 24.1632 40.4376 24.583C39.5793 25.0028 38.635 25.2691 37.6592 25.3666L37.5421 25.1794C37.2667 24.3425 37.257 23.4552 37.5139 22.6137C37.7709 21.7723 38.2847 21.0087 38.9998 20.4058Z" fill="#455A64"/>
<path d="M49.1821 24.0093C48.0631 27.8324 46.0521 31.4088 43.2769 34.5112C36.7546 41.578 21.9969 39.6124 18.0282 34.0806C16.4854 31.9653 12.4209 24.0841 12.4209 24.0841L49.1821 24.0093Z" fill="white"/>
<path d="M49.1817 24.0095H48.4475H46.3195H38.5736L12.3779 24.1124L12.4737 23.972C13.6654 26.2652 14.9316 28.652 16.2828 31.0388C16.634 31.6566 16.9957 32.265 17.3468 32.9108C17.6879 33.5129 18.1016 34.0809 18.581 34.605C19.54 35.6227 20.7283 36.4545 22.071 37.0479C24.5996 38.2059 27.3931 38.8458 30.2425 38.9199C32.8202 39.0261 35.3943 38.6529 37.7969 37.8248C39.8825 37.091 41.7312 35.9179 43.1808 34.4084C45.2058 32.1617 46.8277 29.6553 47.99 26.9766C48.405 26.0406 48.6816 25.273 48.8625 24.7676L49.1179 23.9814C48.8535 25.012 48.4977 26.0229 48.0539 27.0046C46.9105 29.7008 45.3028 32.2263 43.2871 34.4926C41.825 36.0303 39.9537 37.2264 37.8395 37.9746C35.4162 38.8217 32.8154 39.2046 30.2106 39.0978C27.3287 39.036 24.5009 38.3957 21.9433 37.2258C20.5762 36.6203 19.3663 35.7726 18.3895 34.736C17.9041 34.2 17.48 33.6231 17.1234 33.0138C16.7616 32.4054 16.3999 31.7876 16.0594 31.1418C14.6975 28.7456 13.4419 26.3682 12.2396 24.075L12.1758 23.9346H49.1072L49.1817 24.0095Z" fill="#263238"/>
<path d="M46.7666 29.2886C46.7666 29.3449 39.7122 29.3824 31.0087 29.3824C22.3052 29.3824 15.2402 29.3825 15.2402 29.2886C15.2402 29.1948 22.2946 29.1948 31.0087 29.1948C39.7229 29.1948 46.7666 29.2324 46.7666 29.2886Z" fill="#8BAA36"/>
<path d="M47.4053 28.4931C47.4053 28.5494 40.0956 28.5869 31.0835 28.5869C22.0714 28.5869 14.7617 28.5869 14.7617 28.4931C14.7617 28.3993 22.0608 28.3899 31.0835 28.3899C40.1062 28.3899 47.4053 28.4368 47.4053 28.4931Z" fill="#8BAA36"/>
</svg>
