<svg xmlns="http://www.w3.org/2000/svg" width="64" height="64" fill="none"><path stroke="#fff" stroke-linecap="round" stroke-linejoin="round" d="M56.381 22.8571V13.696c.0001-1.6134-.6396-3.161-1.7787-4.30356-1.1392-1.14256-2.6848-1.78687-4.2982-1.79171L41.143 7.5733m15.238 33.5695v9.1429c0 1.6165-.6421 3.1669-1.7852 4.31-1.1431 1.143-2.6934 1.7852-4.31 1.7852H41.143M22.8572 7.5733l-9.1611.03048c-1.6134.00484-3.159.64915-4.29818 1.79171C8.2588 10.538 7.61913 12.0856 7.61914 13.699v9.1581M22.8572 56.3809h-9.1428c-1.6166 0-3.1669-.6422-4.31001-1.7852-1.14307-1.1431-1.78525-2.6935-1.78525-4.31v-9.1429"/><path fill="#fff" d="M32 37.5c1.25 0 2.3127-.4373 3.188-1.312.8747-.8753 1.312-1.938 1.312-3.188 0-1.25-.4373-2.3127-1.312-3.188C34.3127 28.9373 33.25 28.5 32 28.5c-1.25 0-2.3127.4373-3.188 1.312-.8747.8753-1.312 1.938-1.312 3.188 0 1.25.4373 2.3127 1.312 3.188.8753.8747 1.938 1.312 3.188 1.312ZM24 41c-.55 0-1.0207-.1957-1.412-.587C22.196 40.021 22 39.55 22 39V27c0-.55.196-1.0207.588-1.412.3913-.392.862-.588 1.412-.588h3.15L29 23h6l1.85 2H40c.55 0 1.021.196 1.413.588.3913.3913.587.862.587 1.412v12c0 .55-.1957 1.021-.587 1.413-.392.3913-.863.587-1.413.587H24Z"/></svg>