<svg width="20" height="20" viewBox="0 0 24 24" fill="none" xmlns="http://www.w3.org/2000/svg">
<path d="M16.9998 1.99982C18.3248 2.00378 19.5943 2.53187 20.5312 3.46876C21.4681 4.40566 21.9962 5.67522 22.0002 7.00018V16.9998C21.9962 18.3248 21.4681 19.5943 20.5312 20.5312C19.5943 21.4681 18.3248 21.9962 16.9998 22.0002H7.00018C5.67522 21.9962 4.40566 21.4681 3.46876 20.5312C2.53187 19.5943 2.00378 18.3248 1.99982 16.9998V7.00018C2.00378 5.67522 2.53187 4.40566 3.46876 3.46876C4.40566 2.53187 5.67522 2.00378 7.00018 1.99982H16.9998ZM16.9998 0H7.00018C3.15 0 0 3.15 0 7.00018V16.9998C0 20.85 3.15 24 7.00018 24H16.9998C20.85 24 24 20.85 24 16.9998V7.00018C24 3.15 20.85 0 16.9998 0Z" fill="#8BAA36"/>
<path d="M18.4998 7.00226C18.2032 7.00226 17.9131 6.91429 17.6665 6.74946C17.4198 6.58464 17.2275 6.35037 17.114 6.07628C17.0005 5.80219 16.9708 5.50059 17.0286 5.20962C17.0865 4.91865 17.2294 4.65138 17.4392 4.4416C17.6489 4.23182 17.9162 4.08896 18.2072 4.03108C18.4982 3.9732 18.7998 4.00291 19.0738 4.11644C19.3479 4.22997 19.5822 4.42223 19.747 4.6689C19.9119 4.91558 19.9998 5.20559 19.9998 5.50226C20.0002 5.69936 19.9617 5.8946 19.8865 6.07678C19.8113 6.25896 19.7008 6.42449 19.5614 6.56386C19.4221 6.70324 19.2565 6.81371 19.0744 6.88894C18.8922 6.96417 18.6969 7.00268 18.4998 7.00226ZM12 8.0019C12.7912 8.0019 13.5646 8.23651 14.2224 8.67605C14.8802 9.1156 15.3929 9.74034 15.6957 10.4713C15.9985 11.2022 16.0777 12.0065 15.9233 12.7825C15.769 13.5584 15.388 14.2712 14.8286 14.8306C14.2691 15.3901 13.5564 15.771 12.7804 15.9254C12.0044 16.0797 11.2001 16.0005 10.4692 15.6978C9.73826 15.395 9.11352 14.8823 8.67398 14.2245C8.23443 13.5666 7.99982 12.7932 7.99982 12.0021C8.00096 10.9415 8.42277 9.92471 9.1727 9.17478C9.92264 8.42485 10.9394 8.00304 12 8.0019ZM12 6.00208C10.8133 6.00208 9.65328 6.35397 8.66658 7.01326C7.67989 7.67255 6.91085 8.60962 6.45673 9.70598C6.0026 10.8023 5.88378 12.0087 6.11529 13.1726C6.3468 14.3365 6.91825 15.4056 7.75736 16.2447C8.59648 17.0838 9.66558 17.6553 10.8295 17.8868C11.9933 18.1183 13.1997 17.9995 14.2961 17.5454C15.3925 17.0912 16.3295 16.3222 16.9888 15.3355C17.6481 14.3488 18 13.1888 18 12.0021C18 10.4108 17.3679 8.88466 16.2426 7.75944C15.1174 6.63422 13.5913 6.00208 12 6.00208Z" fill="#8BAA36"/>
</svg>
