
<svg
   width="800px"
   height="800px"
   viewBox="0 0 1024 1024"
   fill="current"
   version="1.1"
   id="svg9">
  

 
  <g
     id="SVGRepo_bgCarrier"
     stroke-width="0" />
  <g
     id="SVGRepo_tracerCarrier"
     stroke-linecap="round"
     stroke-linejoin="round" />
  <path
     d="m 273,495.9 v 428 l 0.3,-428 z M 811.2,407.6 H 496.8 l 9.6,-198.4 c 0.6,-11.9 -4.7,-23.1 -14.6,-30.5 -6.1,-4.5 -13.6,-6.8 -21.1,-6.7 -19.6,0.1 -36.9,13.4 -42.2,32.3 C 391.4,338.7 363.6,439.5 345,506.8 V 852 H 744.4 A 56.85,56.85 0 0 0 778,800.2 c 0,-9.7 -2.3,-18.9 -6.9,-27.3 l -13.9,-25.4 21.9,-19 a 56.76,56.76 0 0 0 19.6,-43 c 0,-9.7 -2.3,-18.9 -6.9,-27.3 l -13.9,-25.4 21.9,-19 a 56.76,56.76 0 0 0 19.6,-43 c 0,-9.7 -2.3,-18.9 -6.9,-27.3 l -14,-25.5 21.9,-19 A 56.76,56.76 0 0 0 840,456 c 0,-19.1 -11,-37.5 -28.8,-48.4 z"
     id="path4"
      />
  <path
     d="m 112,528 v 364 c 0,17.7 14.3,32 32,32 h 65 V 496 h -65 c -17.7,0 -32,14.3 -32,32 z m 773.9,5.7 C 902.7,511.5 912,484.3 912,456 912,411.1 886.9,368.5 846.5,345 a 67.67,67.67 0 0 0 -34.3,-9.3 H 572.3 l 6,-122.9 c 1.5,-29.7 -9,-57.9 -29.5,-79.4 A 106.4,106.4 0 0 0 470.9,100 c -52,0 -98,35 -111.8,85.1 l -85.8,310.8 -0.3,428 h 472.1 c 9.3,0 18.2,-1.8 26.5,-5.4 47.6,-20.3 78.3,-66.8 78.3,-118.4 0,-12.6 -1.8,-25 -5.4,-37 16.8,-22.2 26.1,-49.4 26.1,-77.7 0,-12.6 -1.8,-25 -5.4,-37 16.8,-22.2 26.1,-49.4 26.1,-77.7 0,-12.6 -1.8,-25 -5.4,-37 z m -65.5,-34.7 -21.9,19 14,25.5 a 56.2,56.2 0 0 1 6.9,27.3 c 0,16.5 -7.1,32.2 -19.6,43 l -21.9,19 13.9,25.4 a 56.2,56.2 0 0 1 6.9,27.3 c 0,16.5 -7.1,32.2 -19.6,43 l -21.9,19 13.9,25.4 a 56.2,56.2 0 0 1 6.9,27.3 c 0,22.4 -13.2,42.6 -33.6,51.8 H 345 V 506.8 c 18.6,-67.2 46.4,-168 83.5,-302.5 A 44.28,44.28 0 0 1 470.7,172 c 7.5,-0.1 15,2.2 21.1,6.7 9.9,7.4 15.2,18.6 14.6,30.5 l -9.6,198.4 h 314.4 c 17.8,10.9 28.8,29.3 28.8,48.4 0,16.5 -7.1,32.2 -19.6,43 z"
     id="path6"
     fill = "#ffffff" />
</svg>
