<svg width="100%" height="100%" viewBox="0 0 24 25" fill="none" xmlns="http://www.w3.org/2000/svg">
<g opacity="0.8">
<path d="M17 11.5V8.5C17 5.73858 14.7614 3.5 12 3.5C9.23858 3.5 7 5.73858 7 8.5V11.5M7.8 21.5H16.2C17.8802 21.5 18.7202 21.5 19.362 21.173C19.9265 20.8854 20.3854 20.4265 20.673 19.862C21 19.2202 21 18.3802 21 16.7V16.3C21 14.6198 21 13.7798 20.673 13.138C20.3854 12.5735 19.9265 12.1146 19.362 11.827C18.7202 11.5 17.8802 11.5 16.2 11.5H7.8C6.11984 11.5 5.27976 11.5 4.63803 11.827C4.07354 12.1146 3.6146 12.5735 3.32698 13.138C3 13.7798 3 14.6198 3 16.3V16.7C3 18.3802 3 19.2202 3.32698 19.862C3.6146 20.4265 4.07354 20.8854 4.63803 21.173C5.27976 21.5 6.11984 21.5 7.8 21.5Z" fill="current" stroke="white" stroke-width="2" stroke-linecap="round" stroke-linejoin="round"/>
</g>
</svg>
