<svg width="100%" height="100%" viewBox="0 0 24 25" fill="none" xmlns="http://www.w3.org/2000/svg">
<g opacity="0.8">
<path d="M2 7.5L10.1649 13.2154C10.8261 13.6783 11.1567 13.9097 11.5163 13.9993C11.8339 14.0785 12.1661 14.0785 12.4837 13.9993C12.8433 13.9097 13.1739 13.6783 13.8351 13.2154L22 7.5M6.8 20.5H17.2C18.8802 20.5 19.7202 20.5 20.362 20.173C20.9265 19.8854 21.3854 19.4265 21.673 18.862C22 18.2202 22 17.3802 22 15.7V9.3C22 7.61984 22 6.77976 21.673 6.13803C21.3854 5.57354 20.9265 5.1146 20.362 4.82698C19.7202 4.5 18.8802 4.5 17.2 4.5H6.8C5.11984 4.5 4.27976 4.5 3.63803 4.82698C3.07354 5.1146 2.6146 5.57354 2.32698 6.13803C2 6.77976 2 7.61984 2 9.3V15.7C2 17.3802 2 18.2202 2.32698 18.862C2.6146 19.4265 3.07354 19.8854 3.63803 20.173C4.27976 20.5 5.11984 20.5 6.8 20.5Z" stroke="white" stroke-width="2" stroke-linecap="round" stroke-linejoin="round"/>
</g>
</svg>
