<svg width="20" height="16" viewBox="0 0 25 22" fill="none" xmlns="http://www.w3.org/2000/svg">
<path d="M25 2.60677C24.0622 3.05499 23.07 3.35029 22.0547 3.48333C23.1217 2.79605 23.9241 1.70418 24.3115 0.412508C23.3027 1.06139 22.2008 1.51667 21.0531 1.75886C20.5698 1.20172 19.9886 0.758494 19.3448 0.456133C18.7009 0.153772 18.0079 -0.00141357 17.3078 9.70198e-06C14.4734 9.70198e-06 12.1797 2.48646 12.1797 5.55155C12.1777 5.9779 12.2221 6.40297 12.312 6.8177C10.2795 6.71289 8.28934 6.14256 6.46874 5.14321C4.64815 4.14386 3.03723 2.73749 1.73906 1.01407C1.28363 1.85861 1.04278 2.82221 1.04167 3.80416C1.04167 5.72916 1.95469 7.43072 3.33333 8.42759C2.51652 8.40626 1.71645 8.16846 1.00104 7.73436V7.80311C1.00104 10.4958 2.77187 12.7359 5.11562 13.2458C4.67489 13.375 4.22071 13.4405 3.76458 13.4406C3.44093 13.4412 3.118 13.4067 2.80052 13.3375C3.45208 15.5432 5.34844 17.1474 7.59479 17.1932C5.76947 18.7406 3.52845 19.5769 1.22396 19.5708C0.814905 19.5701 0.406232 19.5433 0 19.4906C2.34436 21.1373 5.0695 22.0083 7.85104 21.9999C17.2969 21.9999 22.4573 13.538 22.4573 6.19895C22.4573 5.95832 22.4516 5.7177 22.4411 5.4828C23.4428 4.69909 24.3093 3.72517 25 2.60677Z" fill="#8BAA36"/>
</svg>
