<svg width="100%" height="100%" viewBox="0 0 91 92" fill="none" xmlns="http://www.w3.org/2000/svg">
<path d="M6.17595 0.258057H84.2735C85.755 0.258057 87.1759 0.77578 88.2234 1.69733C89.271 2.61889 89.8595 3.86878 89.8595 5.17206V73.8745C89.8595 75.1777 89.271 76.4276 88.2234 77.3492C87.1759 78.2707 85.755 78.7885 84.2735 78.7885H26.1047C20.7847 82.7571 10.6235 90.7505 10.6235 90.7505L9.86803 78.7885H6.17595C4.6963 78.786 3.2782 78.2672 2.23292 77.3459C1.18764 76.4246 0.600583 75.1761 0.600586 73.8745V5.17206C0.600583 3.8704 1.18764 2.62193 2.23292 1.70064C3.2782 0.779355 4.6963 0.260536 6.17595 0.258057Z" fill="white"/>
<path d="M6.17575 0.258057C5.56869 0.296368 4.96878 0.396888 4.38822 0.557576C3.55585 0.822863 2.80618 1.25682 2.19989 1.82433C1.59359 2.39184 1.14769 3.07695 0.898297 3.82421C0.668376 4.94475 0.600448 6.08637 0.696135 7.2219C0.696135 8.49486 0.696135 9.87078 0.696135 11.359C0.696135 14.3449 0.696135 17.7706 0.696135 21.5989C0.696135 29.2647 0.696148 38.5592 0.759988 49.1921C0.759988 54.5086 0.759988 60.1621 0.759988 66.115V70.6359C0.759988 71.3941 0.759988 72.1616 0.759988 72.9291C0.705965 73.6861 0.777648 74.446 0.972785 75.1849C1.21225 75.9152 1.65032 76.5832 2.24911 77.1311C2.84791 77.6791 3.5894 78.0905 4.4095 78.3298C5.2581 78.5494 6.14492 78.6318 7.02695 78.5732H10.0274V78.7697C10.2721 82.5137 10.5275 86.5853 10.7935 90.7412L10.3679 90.5821L25.9342 78.6481L26.0087 78.5919H75.2719C78.4639 78.5919 81.5814 78.5919 84.6564 78.5919C85.7657 78.5191 86.8211 78.1422 87.6742 77.5142C88.5273 76.8863 89.1352 76.0389 89.4125 75.0913C89.5665 74.4486 89.6237 73.7908 89.5827 73.135V57.1201C89.5827 46.6556 89.5827 36.5281 89.5827 26.9434C89.5827 22.1324 89.5827 17.4524 89.5827 12.9034C89.5827 10.6289 89.5827 8.38254 89.5827 6.17358C89.5975 5.63337 89.5798 5.09285 89.5295 4.55429C89.4497 4.03521 89.2698 3.53191 88.9975 3.06606C88.4616 2.13802 87.5892 1.39366 86.5184 0.950695C85.9917 0.728568 85.4276 0.583157 84.8479 0.520136C84.284 0.520136 83.6775 0.520136 83.0817 0.520136H72.6332H59.6524L20.4972 0.445254L59.6524 0.370379H72.6332H83.0817C83.6775 0.370379 84.2733 0.370379 84.9011 0.370379C85.851 0.471125 86.7585 0.774484 87.5448 1.25408C88.331 1.73367 88.9722 2.37497 89.4125 3.12221C89.7086 3.62881 89.903 4.17664 89.987 4.7415C90.0554 5.29782 90.0768 5.85784 90.0509 6.41694C90.0509 8.6259 90.0509 10.8723 90.0509 13.1468C90.0509 17.702 90.0509 22.382 90.0509 27.1868C90.0509 36.7995 90.0509 46.8989 90.0509 57.3634C90.0509 62.5925 90.0509 67.8965 90.0509 73.2754C90.0918 73.9725 90.0274 74.6712 89.8593 75.3533C89.6582 76.0362 89.2957 76.6741 88.7953 77.2253C88.2951 77.7936 87.664 78.2625 86.9434 78.6013C86.2228 78.94 85.4289 79.1409 84.6138 79.1909C81.4218 79.1909 78.3469 79.1909 75.1868 79.1909H26.1045L26.2853 79.1348C20.9653 83.2625 15.6453 87.2967 10.7935 91.0875L10.3998 91.3964V90.9284C10.1445 86.7725 9.88911 82.7103 9.65503 78.9663L9.89974 79.1722H7.13334C6.19673 79.2257 5.25672 79.1339 4.3563 78.9008C3.46668 78.633 2.66316 78.1812 2.01328 77.5835C1.36339 76.9857 0.886144 76.2594 0.621663 75.4657C0.416716 74.6901 0.341437 73.8923 0.398216 73.0976V66.2835C0.398216 60.3305 0.398216 54.6771 0.398216 49.3606C0.398216 38.7277 0.398219 29.4332 0.451419 21.7673C0.451419 17.9391 0.451419 14.5133 0.451419 11.5275C0.451419 10.0393 0.451419 8.66334 0.451419 7.39038C0.364601 6.24085 0.446849 5.08626 0.696135 3.95525C0.951294 3.18966 1.41375 2.48993 2.04383 1.91609C2.67391 1.34224 3.45282 0.91141 4.31375 0.660537C4.75232 0.538336 5.206 0.462918 5.66503 0.435899L6.17575 0.258057Z" fill="#263238"/>
<path d="M64.2384 38.344L61.4082 50.5588L70.6224 50.3716L64.2384 38.344Z" fill="#BFE25D"/>
<g opacity="0.3">
<path d="M64.2384 38.344L61.4082 50.5588L70.6224 50.3716L64.2384 38.344Z" fill="black"/>
</g>
<path d="M24.7208 38.7371L27.5511 50.9519L18.3262 50.7647L24.7208 38.7371Z" fill="#BFE25D"/>
<g opacity="0.3">
<path d="M24.7208 38.7371L27.5511 50.9519L18.3262 50.7647L24.7208 38.7371Z" fill="black"/>
</g>
<path d="M48.3318 41.0022C48.0314 41.0024 47.7427 40.9001 47.5264 40.7168C47.3101 40.5335 47.1831 40.2835 47.172 40.0194L45.8207 11.4059C45.8165 11.2679 45.8436 11.1306 45.9003 11.0019C45.9571 10.8732 46.0425 10.7557 46.1515 10.6564C46.2604 10.557 46.3908 10.4778 46.535 10.4233C46.6791 10.3688 46.8342 10.3401 46.9912 10.3389H48.6191C48.7723 10.3389 48.924 10.3656 49.0654 10.4174C49.2068 10.4693 49.3351 10.5453 49.4429 10.641C49.5508 10.7367 49.636 10.8503 49.6936 10.9752C49.7513 11.1 49.7802 11.2337 49.7788 11.3685L49.5022 39.982C49.4994 40.2534 49.3748 40.5129 49.1556 40.704C48.9365 40.8951 48.6404 41.0022 48.3318 41.0022Z" fill="#AFE814"/>
<path d="M49.7893 13.9893H45.9482V16.4697H49.7893V13.9893Z" fill="#BFE25D"/>
<path d="M50.9273 41.1145C50.6431 41.0232 50.4101 40.8387 50.2772 40.5996C50.1443 40.3606 50.1218 40.0855 50.2144 39.8322L60.1202 12.5571C60.1668 12.4246 60.2436 12.3019 60.3459 12.1964C60.4483 12.0909 60.574 12.0048 60.7154 11.9435C60.8568 11.8822 61.0109 11.8469 61.1684 11.8397C61.3258 11.8326 61.4833 11.8537 61.6311 11.9019L63.1526 12.3886C63.4437 12.4854 63.6796 12.6792 63.8091 12.9281C63.9386 13.177 63.9512 13.4607 63.8442 13.7178L52.4169 40.5061C52.3068 40.7577 52.0899 40.9618 51.8119 41.0753C51.534 41.1889 51.2168 41.2029 50.9273 41.1145Z" fill="#AFE814"/>
<path d="M59.2483 15.0139L58.2803 17.3435L61.8878 18.5036L62.8559 16.174L59.2483 15.0139Z" fill="#BFE25D"/>
<path d="M62.0362 33.8417C61.4383 33.0426 60.6554 32.3636 59.7386 31.8491C58.8218 31.3345 57.7919 30.9961 56.7162 30.8559C54.5993 30.6282 52.453 30.9537 50.545 31.7919C49.0448 32.419 47.4913 33.2894 45.8847 32.9993C44.7655 32.6666 43.729 32.1487 42.831 31.4736C41.6328 30.7507 40.2815 30.2472 38.8576 29.9931C37.4336 29.7391 35.9661 29.7396 34.5424 29.9947C31.6032 30.5887 29.0336 32.1492 27.3604 34.3565C26.6661 35.1673 26.1808 36.1014 25.9383 37.0939C25.6957 38.0863 25.7018 39.1133 25.9559 40.1035L62.6852 39.9912C63.1204 38.991 63.2881 37.9162 63.1756 36.8499C63.063 35.7836 62.6732 34.7543 62.0362 33.8417Z" fill="#E0E0E0"/>
<path d="M61.0572 39.3362C61.0987 38.8064 61.0987 38.2747 61.0572 37.745C60.8932 36.3098 60.136 34.9775 58.9292 34.001C58.0916 33.3579 57.046 32.9618 55.9394 32.8684C54.6598 32.7725 53.3721 32.9324 52.1728 33.3364C50.896 33.7295 49.6831 34.4596 48.236 34.9744C47.4875 35.2452 46.683 35.3758 45.8739 35.3582C45.0434 35.3067 44.233 35.1093 43.4906 34.7778C42.001 34.1507 40.7561 33.299 39.4367 32.6999C38.186 32.1135 36.777 31.8384 35.3616 31.9043C34.0853 31.9604 32.842 32.2811 31.7334 32.8403C30.769 33.3468 29.9268 34.0146 29.2543 34.8059C28.2698 35.9621 27.5967 37.2999 27.2859 38.7184C27.0731 39.7293 27.0837 40.3096 27.0305 40.3002C27.0055 40.1638 27.0055 40.0248 27.0305 39.8884C27.0242 39.4877 27.0527 39.0872 27.1156 38.6903C27.353 37.2149 27.9918 35.8117 28.9776 34.6C29.6669 33.7567 30.5382 33.0411 31.5419 32.494C32.7067 31.8731 34.024 31.5072 35.3829 31.427C36.8883 31.3471 38.3898 31.632 39.724 32.2506C41.1072 32.8684 42.3627 33.7202 43.7672 34.3098C44.4314 34.6053 45.1537 34.7864 45.8952 34.8434C46.6244 34.8612 47.3496 34.7432 48.0232 34.497C49.3851 34.029 50.63 33.2896 51.9813 32.8871C53.255 32.4716 54.6198 32.318 55.9713 32.4378C57.1627 32.5577 58.2802 33.0066 59.1633 33.7202C60.3975 34.7782 61.1247 36.2116 61.1955 37.7262C61.2144 38.1271 61.1859 38.5286 61.1104 38.9243C61.1211 39.1677 61.0785 39.3362 61.0572 39.3362Z" fill="#263238"/>
<path d="M59.3123 39.6824C59.3401 39.2209 59.3401 38.7585 59.3123 38.2971C59.2502 37.6776 59.0376 37.077 58.6888 36.5361C58.34 35.9951 57.8632 35.5263 57.2907 35.1615C56.5007 34.6769 55.5302 34.476 54.5775 34.5999C53.4781 34.8025 52.4361 35.1972 51.5132 35.7605C50.4489 36.4193 49.2802 36.9366 48.0445 37.2956C46.6446 37.5785 45.1783 37.4571 43.863 36.9493C41.1924 36.0133 39.075 34.4595 36.7236 34.0477C35.7037 33.8607 34.6466 33.9043 33.6511 34.1744C32.6556 34.4444 31.7542 34.9322 31.0312 35.5921C30.0452 36.5068 29.3578 37.6385 29.0415 38.8681C28.8074 39.7385 28.8181 40.2533 28.7649 40.244C28.7117 40.2346 28.7649 40.1223 28.7649 39.8789C28.7683 39.5276 28.8039 39.177 28.8713 38.8306C29.1197 37.5332 29.7842 36.3252 30.7865 35.3487C31.4946 34.678 32.3682 34.1593 33.3401 33.8324C34.4641 33.4467 35.691 33.3557 36.8725 33.5703C39.3942 34.0009 41.5541 35.5827 44.1077 36.4625C45.3161 36.9269 46.66 37.0448 47.9488 36.7995C49.1351 36.4538 50.26 35.9623 51.2897 35.3393C52.2729 34.7497 53.3857 34.3479 54.5562 34.16C55.6191 34.0393 56.6939 34.284 57.5567 34.8433C58.2602 35.2893 58.8091 35.8985 59.1421 36.6029C59.3967 37.1214 59.5409 37.6766 59.5676 38.2409C59.5765 38.6092 59.5336 38.977 59.44 39.3361C59.4199 39.457 59.3767 39.5741 59.3123 39.6824Z" fill="#263238"/>
<path d="M57.0345 39.6918C57.0409 39.3287 56.9612 38.9685 56.8004 38.6341C56.5808 38.1931 56.1918 37.8342 55.7015 37.6203C55.2113 37.4064 54.6511 37.3511 54.1191 37.4641C53.3605 37.6174 52.6395 37.8901 51.9911 38.269C51.2093 38.7258 50.3747 39.1086 49.5014 39.411C47.3669 39.8648 45.1168 39.6011 43.1919 38.6715C41.357 37.7932 39.4336 37.0663 37.4463 36.5C36.6518 36.2823 35.8136 36.2165 34.9879 36.3069C34.1621 36.3973 33.3679 36.6418 32.6583 37.0242C31.7236 37.5849 31.0362 38.4109 30.7111 39.3642C30.4877 40.0474 30.5409 40.4593 30.4771 40.4593C30.4445 40.3651 30.4266 40.2675 30.4239 40.1691C30.4074 39.8836 30.4324 39.5973 30.4983 39.3174C30.7656 38.2804 31.4543 37.365 32.4348 36.7434C33.1821 36.3089 34.0279 36.0227 34.9135 35.9047C35.7991 35.7867 36.7033 35.8397 37.5633 36.0601C39.5909 36.6116 41.5512 37.339 43.4153 38.2316C45.2225 39.1043 47.3284 39.3704 49.3418 38.9804C50.1851 38.6999 50.9943 38.3456 51.7571 37.9227C52.4556 37.5327 53.2318 37.2627 54.0446 37.1271C54.7448 37.0043 55.4718 37.1215 56.0769 37.4547C56.5113 37.7195 56.8479 38.0905 57.0451 38.5218C57.1662 38.7922 57.21 39.0847 57.1728 39.3735C57.1691 39.4903 57.1203 39.6026 57.0345 39.6918Z" fill="#263238"/>
<path d="M24.6572 38.6342C24.6572 39.4672 31.403 69.9527 31.403 69.9527L57.8647 69.569L64.2487 38.344L24.6572 38.6342Z" fill="#BFE25D"/>
<path d="M24.6572 38.634C24.9017 38.6202 25.1469 38.6202 25.3914 38.634L27.5939 38.5872L35.8718 38.4655L64.238 38.1379H64.6849L64.4828 38.4936L60.3864 45.654C59.216 47.6945 58.0668 49.7069 56.9496 51.6444L56.8751 51.7848H56.7049L32.0414 51.7193H31.9137V51.6257C29.6793 47.6383 27.8599 44.3904 26.5937 42.0972L25.1786 39.5419L24.8168 38.8774C24.7757 38.8123 24.7436 38.7432 24.7211 38.6715L24.87 38.9055L25.285 39.5887L26.8171 42.1534C28.1259 44.3998 30.0091 47.5635 32.2861 51.4572L32.1052 51.3543L56.7688 51.2981L56.524 51.4291L59.9608 45.4294L64.0572 38.2783L64.3019 38.6247L36.1697 38.6995H25.5297L24.6572 38.634Z" fill="#263238"/>
<g opacity="0.3">
<path d="M32.7441 51.5042L33.4144 52.7678H57.4077L63.6108 39.4485L56.7054 51.5042H32.7441Z" fill="black"/>
</g>
<path d="M49.864 64.3367C48.3158 64.5764 46.7413 64.6581 45.1717 64.5801C43.6022 64.6586 42.0276 64.577 40.4795 64.3367C42.0276 64.0965 43.6022 64.0148 45.1717 64.0934C46.7413 64.0154 48.3158 64.0971 49.864 64.3367Z" fill="white"/>
<path d="M48.182 59.4788C48.182 59.4788 48.1182 59.2448 47.9799 58.8423C47.7807 58.2919 47.3852 57.8127 46.852 57.4757C46.4676 57.2322 46.0208 57.0758 45.5513 57.0203C45.0818 56.9648 44.604 57.0119 44.1601 57.1575C43.7809 57.2831 43.4368 57.479 43.151 57.7317C42.8653 57.9845 42.6445 58.2883 42.5038 58.6225C42.363 58.9568 42.3055 59.3138 42.3351 59.6693C42.3647 60.0248 42.4808 60.3706 42.6754 60.6833C42.87 60.9959 43.1387 61.2682 43.4633 61.4816C43.7878 61.6951 44.1607 61.8447 44.5567 61.9204C44.9527 61.9961 45.3625 61.9961 45.7585 61.9204C46.1545 61.8448 46.5274 61.6952 46.852 61.4818C47.3874 61.1467 47.7835 60.6668 47.9799 60.1152C48.1182 59.7221 48.1288 59.4788 48.182 59.4788C48.2512 59.7025 48.2512 59.9383 48.182 60.162C48.0563 60.7903 47.6788 61.3582 47.118 61.7626C46.687 62.0649 46.1757 62.2656 45.6321 62.3458C45.0885 62.426 44.5307 62.3832 44.0111 62.2212C43.3675 62.0198 42.8106 61.648 42.4168 61.157C42.0229 60.6659 41.8115 60.0797 41.8115 59.4788C41.8115 58.8778 42.0229 58.2916 42.4168 57.8006C42.8106 57.3095 43.3675 56.9378 44.0111 56.7363C44.5308 56.5711 45.0902 56.5273 45.6348 56.6094C46.1794 56.6914 46.6905 56.8964 47.118 57.2043C47.6803 57.6036 48.0585 58.1691 48.182 58.7955C48.2512 59.0192 48.2512 59.2551 48.182 59.4788Z" fill="white"/>
<path d="M32.8396 27.8327C32.9904 27.7772 33.1262 27.6944 33.238 27.5895C33.3499 27.4847 33.4353 27.3602 33.4886 27.2243C33.6121 26.9217 33.6121 26.5908 33.4886 26.2883C33.2519 25.8761 32.9511 25.495 32.5949 25.1557C31.839 24.3365 31.479 23.289 31.5925 22.2386C31.7059 21.1883 32.2837 20.2191 33.2013 19.5397C33.8291 19.0249 34.5526 18.5195 34.6378 17.8269C34.62 17.4666 34.516 17.1136 34.3327 16.791C34.1494 16.4685 33.8908 16.1835 33.5738 15.9549C32.9566 15.4334 32.4361 14.8302 32.031 14.1671C31.7143 13.5857 31.5377 12.953 31.512 12.3088C31.4864 11.6645 31.6124 11.0225 31.882 10.4231C32.2487 9.62141 32.8784 8.93389 33.6908 8.44813C33.9617 8.2443 34.2879 8.10564 34.6378 8.04565C34.6378 8.04565 34.3292 8.2235 33.8185 8.5979C33.1109 9.11606 32.5683 9.78688 32.2438 10.5448C32.0182 11.1021 31.9235 11.6939 31.9656 12.2844C32.0077 12.8749 32.1855 13.4517 32.4885 13.9799C32.8927 14.5946 33.3943 15.1556 33.9781 15.646C34.292 15.9309 34.5703 16.2447 34.808 16.582C35.078 16.9651 35.1976 17.4156 35.1485 17.8643C35.0716 18.3086 34.8455 18.7225 34.4994 19.053C34.1893 19.3391 33.8626 19.6109 33.5206 19.8673C32.7158 20.4807 32.2016 21.3371 32.0795 22.2676C31.9574 23.1981 32.2362 24.1351 32.8609 24.8937C33.2204 25.2682 33.5145 25.6877 33.7333 26.1385C33.8964 26.5024 33.8964 26.9072 33.7333 27.2711C33.6254 27.4998 33.4188 27.6815 33.1588 27.7765C32.9247 27.8608 32.8396 27.8421 32.8396 27.8327Z" fill="#263238"/>
<path d="M36.9149 27.8327C37.0658 27.7772 37.2015 27.6944 37.3134 27.5895C37.4253 27.4847 37.5107 27.3602 37.564 27.2243C37.6874 26.9217 37.6874 26.5908 37.564 26.2883C37.3272 25.8761 37.0264 25.495 36.6702 25.1557C35.9144 24.3365 35.5544 23.289 35.6678 22.2386C35.7813 21.1883 36.359 20.2191 37.2767 19.5397C37.9045 19.0249 38.628 18.5195 38.7131 17.8269C38.6953 17.4666 38.5914 17.1136 38.4081 16.791C38.2247 16.4685 37.9661 16.1835 37.6491 15.9549C37.0321 15.4355 36.5147 14.8318 36.1169 14.1671C35.7929 13.5879 35.6112 12.9551 35.5837 12.31C35.5562 11.665 35.6835 11.022 35.9573 10.4231C36.3311 9.62508 36.9593 8.93919 37.7662 8.44813C38.04 8.24285 38.3701 8.1041 38.7237 8.04565C38.7237 8.04565 38.4045 8.2235 37.8938 8.5979C37.188 9.11543 36.6487 9.7867 36.3297 10.5448C36.1017 11.1017 36.0057 11.6938 36.0478 12.2846C36.0899 12.8754 36.2691 13.4524 36.5745 13.9799C36.9709 14.5966 37.4693 15.1581 38.0534 15.646C38.3674 15.9309 38.6456 16.2447 38.8833 16.582C39.1533 16.9651 39.2729 17.4156 39.2238 17.8643C39.1521 18.31 38.9254 18.7252 38.5748 19.053C38.2556 19.3619 37.9151 19.6146 37.6065 19.8673C36.9971 20.3101 36.5463 20.8984 36.3085 21.5615C36.1035 22.1213 36.0546 22.7162 36.1657 23.2961C36.2768 23.876 36.5447 24.4239 36.9469 24.8937C37.3033 25.2684 37.5938 25.688 37.8087 26.1385C37.9772 26.5015 37.9772 26.9081 37.8087 27.2711C37.7007 27.4998 37.4941 27.6815 37.2342 27.7765C37.0107 27.8608 36.9149 27.8421 36.9149 27.8327Z" fill="#263238"/>
</svg>
