<svg width="100%" height="100%" viewBox="0 0 266 316" fill="none" xmlns="http://www.w3.org/2000/svg">
<path d="M43.7785 272.882L36.373 315.246H44.8318L59.1214 272.882H43.7785Z" fill="#263238"/>
<path d="M227.616 272.882L235.022 315.246H226.552L212.273 272.882H227.616Z" fill="#263238"/>
<path d="M5.29354 160.516C4.6977 179.629 -0.9415 263.944 18.7106 279.996H43.1187C49.5027 279.996 49.141 277.347 48.8963 271.759L44.2572 162.359C44.1824 160.255 43.335 158.229 41.8419 156.584C38.6499 153.102 32.1915 147.72 23.3496 148.245C18.5781 148.447 13.9604 149.793 9.99642 152.138C8.51714 153.11 7.31996 154.375 6.50262 155.831C5.68529 157.287 5.27098 158.892 5.29354 160.516Z" fill="#535455"/>
<path d="M226.51 281.222L43.1191 279.996V230.154H226.51V281.222Z" fill="#535455"/>
<path d="M225.786 230.154L42.0654 231.483V201.587L226.51 198.545L225.786 230.154Z" fill="#535455"/>
<path d="M8.7627 154.909C8.7627 154.909 10.1246 113.407 62.0478 111.263C113.971 109.12 191.015 111.263 191.015 111.263C191.015 111.263 256.238 109.11 257.749 145.249L244.79 214.513H43.4065L8.7627 154.909Z" fill="#535455"/>
<path d="M265.463 164.924C264.09 193.528 261.09 277.431 238.469 281.222H221.647L226.85 158.662C226.85 158.662 234.65 146.7 247.641 147.43H248.035C252.952 147.787 257.52 149.811 260.772 153.076C264.024 156.34 265.706 160.589 265.463 164.924Z" fill="#535455"/>
<path d="M256.195 149.208L255.578 149.077L253.822 148.656L252.546 148.347L250.95 148.132C250.375 148.067 249.758 147.964 249.098 147.898H246.97C243.337 147.924 239.763 148.71 236.543 150.191L235.83 150.5L235.139 150.875L233.734 151.651C232.795 152.231 231.893 152.856 231.031 153.523C229.156 154.989 227.511 156.666 226.137 158.512V158.428C225.456 171.092 224.605 187.088 223.679 204.442C222.615 225.567 221.839 244.69 221.402 258.552C221.2 265.469 221.051 271.066 220.934 274.96C220.934 276.879 220.838 278.386 220.817 279.425C220.817 279.921 220.817 280.305 220.764 280.585C220.711 280.866 220.764 280.979 220.764 280.979C220.764 280.979 220.764 280.848 220.764 280.585C220.764 280.323 220.764 279.911 220.764 279.425C220.764 278.376 220.764 276.879 220.764 274.96C220.764 271.085 220.902 265.478 221.062 258.552C221.413 244.69 222.126 225.549 223.19 204.423C224.073 187.06 224.999 171.055 225.743 158.409C225.734 158.385 225.734 158.359 225.743 158.334C227.142 156.466 228.82 154.772 230.734 153.299C231.609 152.613 232.529 151.972 233.489 151.38L234.915 150.594L235.617 150.219L236.341 149.91C239.612 148.429 243.238 147.659 246.917 147.664L249.045 147.73C249.705 147.795 250.322 147.907 250.907 147.982L252.503 148.216L253.78 148.553L255.525 149.031L256.195 149.208Z" fill="#202324"/>
<path d="M43.4062 231.352H44.3213H47.0026H57.334L95.3295 231.436C127.409 231.539 171.725 231.848 220.658 231.23H222.69L222.424 231.446C222.605 226.335 222.775 221.281 222.946 216.31C223.031 213.814 223.116 211.343 223.201 208.897L223.329 205.238C223.329 204.638 223.393 204.011 223.329 203.44C223.296 202.863 223.115 202.299 222.797 201.793C222.469 201.284 222.023 200.841 221.488 200.494C220.953 200.148 220.34 199.904 219.69 199.781C219.012 199.675 218.323 199.64 217.636 199.678H215.508H207.188L191.079 199.771L135.378 200.277C119.535 200.417 106.725 200.473 97.8724 200.483H87.6899H85.0406C84.4447 200.483 84.1362 200.483 84.1362 200.483H85.0406H87.6899L97.8724 200.417L135.378 200.071L191.068 199.462L207.188 199.359H215.508H217.636C218.348 199.322 219.063 199.359 219.764 199.472C220.484 199.61 221.163 199.881 221.755 200.266C222.348 200.652 222.84 201.143 223.201 201.709C223.555 202.266 223.759 202.887 223.797 203.525C223.797 204.17 223.797 204.751 223.797 205.397C223.797 206.604 223.722 207.83 223.68 209.056C223.595 211.496 223.51 213.964 223.424 216.46C223.254 221.452 223.084 226.5 222.914 231.605C222.904 231.662 222.872 231.714 222.824 231.754C222.776 231.793 222.713 231.816 222.648 231.82H220.626C171.682 232.438 127.366 232.082 95.2869 231.895L57.2914 231.68L46.96 231.614H44.2787L43.4062 231.352Z" fill="#202324"/>
<g opacity="0.2">
<path d="M42.0654 231.483C84.1573 239.514 104.203 238.905 143.337 239.495C178.449 240.029 217.104 234.459 222.69 231.146L42.0654 231.483Z" fill="black"/>
</g>
<path d="M43.1184 279.996C43.1092 279.859 43.1092 279.721 43.1184 279.584C43.1184 279.284 43.1184 278.882 43.1184 278.367C43.1184 277.281 43.1184 275.709 43.1184 273.687C43.1184 269.606 43.2142 263.756 43.2887 256.53C43.4908 242.022 43.7568 222.02 44.0547 199.93C44.2356 188.876 44.3952 178.346 44.5442 168.771C44.6235 166.454 44.2639 164.142 43.4802 161.929C42.7068 159.858 41.5648 157.909 40.0967 156.154C38.679 154.544 37.0014 153.125 35.1171 151.942C33.3648 150.889 31.4519 150.06 29.4354 149.48C25.9065 148.523 22.1553 148.391 18.5507 149.096C15.8237 149.608 13.2406 150.594 10.9537 151.998C9.52223 152.9 8.25567 153.989 7.19779 155.227C6.47427 156.079 6.18699 156.584 6.13379 156.565C6.18976 156.437 6.2611 156.315 6.34659 156.2C6.57276 155.845 6.82141 155.501 7.09139 155.171C8.11611 153.891 9.3702 152.765 10.8047 151.839C13.0992 150.389 15.7061 149.366 18.4655 148.834C22.1222 148.086 25.9378 148.196 29.5311 149.152C31.6062 149.734 33.5766 150.572 35.3831 151.642C37.3114 152.844 39.0316 154.284 40.4903 155.92C43.6646 159.608 45.2685 164.159 45.023 168.78C44.8847 178.365 44.7357 188.895 44.5761 199.949C44.2143 222.039 43.8845 242.069 43.6504 256.54C43.5015 263.766 43.3844 269.644 43.2993 273.696C43.2993 275.709 43.2142 277.272 43.1823 278.376C43.1823 278.901 43.1823 279.312 43.1823 279.593C43.1721 279.729 43.1507 279.863 43.1184 279.996Z" fill="#202324"/>
<path d="M146.295 192.265C146.683 172.628 148.854 153.05 152.786 133.718C153.381 130.769 154.169 127.596 156.765 125.668C158.999 124.002 162.085 123.637 165 123.431C185.908 121.934 207.22 130.142 226.202 139.034C228.284 140.005 229.964 141.529 231.001 143.39C232.039 145.251 232.381 147.353 231.979 149.396C228.787 165.401 222.403 177.476 213.008 192.761C191.671 200.37 168.235 202.195 145.71 198.002" fill="#8BAA36"/>
<path d="M108.832 47.6339C107.512 39.3877 107.598 39.6592 106.427 31.7687C104.172 16.4557 98.6813 -0.907094 73.8369 0.347146C73.8369 0.347146 55.1211 1.28314 49.3649 13.0393C46.3006 19.3854 45.4919 41.344 44.4598 61.0936C44.4405 61.4129 44.3688 61.7282 44.247 62.0296L43.0873 65.0154C41.5532 68.9412 40.6542 73.0373 40.4166 77.1834L38.8419 104.599C38.7897 105.502 39.1469 106.387 39.835 107.059C40.5231 107.731 41.4861 108.135 42.5127 108.184C50.8864 108.539 70.0171 107.603 73.6986 106.433C81.2506 103.999 88.1194 100.165 93.8397 95.1909C99.56 90.217 103.998 84.2194 106.853 77.6046C107.236 76.6686 112.652 76.2661 113.673 75.9198C115.354 75.3488 109.087 49.2064 108.832 47.6339Z" fill="#202324"/>
<path d="M69.0487 7.41391L70.6234 6.13159L87.3601 12.2905C88.5311 12.3607 89.6293 12.8153 90.4373 13.5642C91.2452 14.3131 91.7039 15.3016 91.7225 16.334L90.8075 64.435C90.8075 67.7017 91.8715 71.4737 89.552 74.0477L86.8281 77.408C81.3592 83.5856 68.7401 81.3485 64.6012 74.4221C64.3458 74.0289 64.1525 73.607 64.0266 73.1679C63.9247 72.8134 63.8466 72.454 63.7925 72.0915C63.3563 68.2165 63.3776 64.8562 63.3776 64.8562C63.1435 60.6068 63.0796 58.8565 63.069 58.9033C63.0584 58.9501 52.812 57.752 50.2159 46.0613C48.9284 40.2769 49.3115 32.3302 49.8222 24.5333C50.5351 13.76 59.1641 7.28287 69.0487 7.41391Z" fill="#FFBF9D"/>
<path d="M71.6768 32.3678C71.6879 32.7601 71.8736 33.1329 72.194 33.406C72.5143 33.679 72.9437 33.8306 73.3898 33.828C73.6071 33.8368 73.8242 33.8072 74.0283 33.7409C74.2324 33.6746 74.4193 33.5731 74.578 33.4422C74.7367 33.3113 74.8639 33.1538 74.9522 32.9789C75.0406 32.804 75.0882 32.6153 75.0922 32.424C75.0811 32.0309 74.8957 31.6571 74.5757 31.3825C74.2556 31.108 73.8262 30.9544 73.3792 30.9545C73.1613 30.947 72.944 30.9778 72.7399 31.0451C72.5357 31.1124 72.3489 31.2149 72.1904 31.3465C72.0319 31.4781 71.9048 31.6363 71.8166 31.8116C71.7284 31.987 71.6808 32.1761 71.6768 32.3678Z" fill="#202324"/>
<path d="M54.5244 32.4801C54.5356 32.8724 54.7213 33.2452 55.0416 33.5183C55.362 33.7913 55.7914 33.9429 56.2375 33.9403C56.4548 33.9491 56.6719 33.9195 56.8759 33.8532C57.08 33.7869 57.2669 33.6854 57.4256 33.5545C57.5843 33.4236 57.7116 33.2661 57.7999 33.0912C57.8882 32.9163 57.9358 32.7276 57.9399 32.5363C57.9287 32.1431 57.7434 31.7694 57.4233 31.4948C57.1033 31.2203 56.6739 31.0667 56.2268 31.0668C56.009 31.0593 55.7916 31.0901 55.5875 31.1574C55.3834 31.2247 55.1966 31.3272 55.0381 31.4588C54.8795 31.5904 54.7524 31.7486 54.6642 31.9239C54.576 32.0993 54.5285 32.2884 54.5244 32.4801Z" fill="#202324"/>
<path d="M51.5349 27.6316C51.7477 27.8282 53.0139 26.939 54.844 26.8922C56.674 26.8454 58.036 27.6036 58.2488 27.3976C58.4616 27.1917 58.1211 26.9577 57.5146 26.602C56.7016 26.1419 55.7458 25.9162 54.7801 25.9562C53.8253 25.979 52.904 26.271 52.152 26.7892C51.5988 27.1917 51.4179 27.5474 51.5349 27.6316Z" fill="#202324"/>
<path d="M70.1555 28.034C70.4002 28.2025 71.5493 27.2103 73.3475 26.9857C75.1456 26.761 76.6246 27.4069 76.7948 27.1822C76.9651 26.9576 76.614 26.761 75.9649 26.4615C75.1014 26.0773 74.1242 25.9367 73.1666 26.059C72.2223 26.1782 71.3441 26.5546 70.6556 27.1354C70.1768 27.5847 70.0384 27.9591 70.1555 28.034Z" fill="#202324"/>
<path d="M63.5583 39.7059C62.5793 39.4735 61.5716 39.3477 60.5578 39.3315C60.079 39.3315 59.6321 39.2379 59.4938 38.9571C59.4324 38.5309 59.5255 38.0986 59.7598 37.7216C60.1535 36.7107 60.5684 35.6437 61.0153 34.5392C62.7603 29.9996 63.9945 26.2743 63.7924 26.2182C63.5902 26.162 62.0048 29.7843 60.2599 34.3239L59.0576 37.5251C58.7837 38.0331 58.7233 38.6102 58.8873 39.1537C58.9604 39.2954 59.0693 39.4205 59.2058 39.5194C59.3423 39.6184 59.5026 39.6886 59.6747 39.7247C59.9388 39.7833 60.2111 39.8086 60.4833 39.7995C61.5086 39.8861 62.5423 39.8546 63.5583 39.7059Z" fill="#202324"/>
<path d="M63.0684 58.8752C69.3419 58.7552 75.4552 57.1094 80.7308 54.1204C80.7308 54.1204 76.5812 62.3665 63.2067 61.702L63.0684 58.8752Z" fill="#FF9A6C"/>
<path d="M64.4948 43.5809C64.8267 43.1802 65.2701 42.8612 65.7825 42.6547C66.2949 42.4482 66.8591 42.361 67.4208 42.4015C67.8289 42.4233 68.2278 42.5174 68.5935 42.6783C68.9592 42.8391 69.2841 43.0634 69.5488 43.3375C69.803 43.6015 69.9605 43.927 70.0003 44.2711C70.0402 44.6153 69.9607 44.962 69.7722 45.2657C69.4861 45.5638 69.1061 45.7806 68.68 45.8889C68.2539 45.9972 67.801 45.992 67.3782 45.8741C66.5106 45.621 65.708 45.2203 65.0162 44.6947C64.8031 44.5743 64.6188 44.4185 64.4735 44.2361C64.4067 44.1472 64.3711 44.0431 64.3711 43.9366C64.3711 43.8301 64.4067 43.7259 64.4735 43.637" fill="#FF9A6C"/>
<path d="M69.0061 40.6513C68.7082 40.6513 68.7826 42.4016 67.1228 43.7026C65.463 45.0037 63.335 44.8726 63.335 45.1254C63.335 45.2283 63.8138 45.4436 64.7182 45.4436C65.8937 45.4208 67.023 45.0367 67.9102 44.3578C68.7394 43.7135 69.2508 42.8104 69.3359 41.84C69.3891 41.0631 69.1444 40.6419 69.0061 40.6513Z" fill="#202324"/>
<path d="M68.4848 20.181C68.7296 20.5928 70.5171 20.181 72.6876 20.1342C74.8582 20.0874 76.667 20.3963 76.9436 19.9751C77.0394 19.7692 76.6776 19.3948 75.8796 19.0391C74.8813 18.631 73.7878 18.4354 72.6876 18.4681C71.5737 18.4907 70.481 18.7406 69.4956 19.1982C68.7189 19.5913 68.3784 19.9844 68.4848 20.181Z" fill="#202324"/>
<path d="M51.9077 20.7052C52.2482 21.0609 53.4931 20.6397 55.0146 20.5742C56.5361 20.5087 57.8342 20.724 58.1108 20.3308C58.2385 20.1436 58.0151 19.7786 57.4405 19.451C56.6663 19.0615 55.7784 18.8822 54.8886 18.9355C53.9988 18.9888 53.1468 19.2723 52.4397 19.7505C51.9183 20.1436 51.7587 20.5274 51.9077 20.7052Z" fill="#202324"/>
<path d="M91.0096 36.8604C91.0096 36.8604 81.5719 39.3127 76.5711 18.8331C74.8687 11.8318 67.6016 6.0941 67.6016 6.0941L70.5914 5.33594C70.5914 5.33594 89.0624 10.1657 89.371 10.3716C89.6796 10.5775 93.9143 18.8611 93.9143 18.8611L91.0096 36.8604Z" fill="#202324"/>
<path d="M88.7109 36.0649C88.7109 35.1945 89.7749 33.1072 90.7113 32.9387C93.3074 32.4988 98.0316 32.5362 98.3189 38.3675C98.7019 46.3516 89.5089 45.0505 89.4877 44.8165C89.4664 44.5825 88.828 39.0789 88.7109 36.0649Z" fill="#FFBF9D"/>
<path d="M92.1057 41.6903C92.1057 41.6903 92.276 41.7838 92.542 41.8774C92.9205 42.0132 93.3445 42.0132 93.723 41.8774C94.67 41.5311 95.4148 40.1646 95.3828 38.7231C95.3754 38.0381 95.1936 37.3633 94.8508 36.7482C94.7528 36.5021 94.5882 36.2808 94.3714 36.1031C94.1545 35.9253 93.8919 35.7966 93.606 35.7279C93.4228 35.6926 93.2314 35.7144 93.0645 35.7895C92.8976 35.8646 92.7655 35.9885 92.6909 36.1398C92.5845 36.3738 92.6909 36.5235 92.5952 36.5422C92.4994 36.561 92.4036 36.4112 92.4568 36.0836C92.5007 35.8852 92.6164 35.7046 92.7867 35.5688C93.0301 35.398 93.338 35.3144 93.6485 35.3348C94.0232 35.3867 94.3767 35.5212 94.6763 35.7258C94.9758 35.9304 95.2116 36.1984 95.3616 36.5048C95.7854 37.1819 96.0121 37.9408 96.0212 38.7138C96.0212 40.3237 95.1807 41.8681 93.8932 42.2425C93.6532 42.3161 93.3973 42.3409 93.1448 42.3149C92.8924 42.289 92.6498 42.213 92.4356 42.0927C92.1376 41.8868 92.0844 41.709 92.1057 41.6903Z" fill="#FF9A6C"/>
<path d="M84.7001 32.8732C84.2444 32.8122 83.7932 32.7278 83.3488 32.6205C82.1516 32.2779 81.0596 31.6983 80.1568 30.9264C79.5259 30.4035 78.9686 29.8158 78.4969 29.1761C77.9695 28.432 77.5241 27.6453 77.1669 26.8267C76.4102 24.9217 75.7883 22.9774 75.3049 21.0048C74.6985 18.9175 74.0388 16.9425 73.3046 15.1829C72.6746 13.6236 71.9098 12.1091 71.017 10.6526C70.4201 9.67338 69.7408 8.73477 68.9848 7.8446C68.7188 7.517 68.4953 7.29237 68.3464 7.12389C68.2759 7.0403 68.1976 6.96203 68.1123 6.88989C68.1708 6.98229 68.2385 7.06999 68.3145 7.15197C68.4421 7.32045 68.6656 7.56381 68.9103 7.89141C69.6272 8.79149 70.281 9.72923 70.8681 10.6994C71.7353 12.1604 72.482 13.6744 73.1025 15.2297C73.8153 16.98 74.4644 18.9737 75.0709 21.0329C75.559 23.0156 76.188 24.9694 76.9541 26.8829C77.321 27.7104 77.7808 28.5037 78.3267 29.2509C78.8167 29.8978 79.3917 30.4915 80.0397 31.02C80.9681 31.797 82.0959 32.3653 83.3275 32.6767C83.7717 32.8008 84.2341 32.867 84.7001 32.8732Z" fill="#202324"/>
<path d="M111.991 75.8357L91.7753 69.1245L63.0473 63.6208L39.9053 66.3165C35.0216 66.4101 26.5628 75.4332 20.1256 85.1114C14.3587 93.7788 9.81543 102.493 9.81543 102.493L36.7453 111.347C38.2774 121.428 40.5331 134.747 42.4802 139.998C45.7999 148.975 46.8107 161.292 46.8107 161.292L110.768 153.954L111.672 115.307L132.707 112.892C132.718 111.535 124.6 79.2801 111.991 75.8357Z" fill="#8BAA36"/>
<path d="M110.374 91.3264C110.375 91.6412 110.414 91.955 110.491 92.2624C110.597 92.8802 110.746 93.7787 110.906 94.8832C111.314 97.7772 111.52 100.691 111.523 103.607C111.509 106.52 111.296 109.43 110.884 112.321C110.725 113.435 110.576 114.333 110.469 114.951C110.393 115.259 110.35 115.572 110.342 115.887C110.482 115.586 110.582 115.272 110.64 114.951C110.81 114.333 111.001 113.444 111.204 112.33C112.239 106.528 112.239 100.62 111.204 94.8177C111.001 93.7132 110.81 92.8147 110.65 92.2063C110.595 91.9049 110.502 91.6099 110.374 91.3264Z" fill="#202324"/>
<path d="M131.899 113.444L111.119 115.419L111.449 120.436L106.832 114.614L99.8623 127.334C99.8623 127.334 102.671 134.766 104.193 138.866C108.247 149.864 114.726 162.135 122.281 161.33C131.378 160.394 137.815 150.79 137.517 144.641C137.273 139.081 131.899 113.444 131.899 113.444Z" fill="#FFBF9D"/>
<path d="M141.635 186.349L177.673 198.779L163.968 213.353L133.314 208.663L141.635 186.349Z" fill="#FFBF9D"/>
<path d="M46.9283 160.637C46.9283 160.637 45.9813 196.795 49.7479 203.085C53.5144 209.375 89.9458 209.637 89.9458 209.637L147.402 212.201L154.105 188.558C154.105 188.558 112.3 171.485 108.353 169.51C104.406 167.536 95.0636 164.082 95.0636 164.082L80.9976 148.17L46.9283 160.637Z" fill="#202324"/>
<path d="M113.3 210.03C113.152 209.972 112.999 209.925 112.842 209.89L111.523 209.553L106.607 208.364L90.0833 204.498H90.0195C89.0947 204.49 88.1712 204.437 87.2531 204.339C85.4711 204.173 83.7196 203.811 82.0395 203.263C80.468 202.774 78.9566 202.146 77.5281 201.391C73.4429 199.243 70.125 196.13 67.9521 192.405C67.6436 191.881 67.4521 191.469 67.2925 191.17C67.2282 191.017 67.1424 190.873 67.0371 190.739C67.0756 190.897 67.1326 191.05 67.2073 191.198C67.335 191.488 67.5053 191.937 67.7925 192.48C68.6183 194.015 69.6507 195.458 70.8675 196.776C72.6976 198.725 74.8839 200.392 77.3366 201.709C78.7861 202.486 80.3228 203.129 81.9225 203.628C82.7655 203.901 83.6251 204.132 84.4973 204.32C85.3962 204.501 86.3055 204.638 87.2212 204.732C88.1607 204.83 89.1054 204.883 90.0514 204.891L106.618 208.635L111.565 209.702L112.906 209.974C113.034 210.007 113.166 210.026 113.3 210.03Z" fill="#535455"/>
<path d="M111.587 171.635L121.376 118.994C121.376 118.994 120.078 81.1052 144.262 83.8196C168.447 86.534 165.542 119.874 165.542 119.874C165.542 119.874 162.414 165.579 160.701 172.178C158.988 178.777 158.126 186.115 153.189 188.755L131.239 185.75L111.587 171.635Z" fill="#202324"/>
<path d="M130.452 93.4043L124.6 105.844L128.228 153.355C128.228 153.355 159.403 155.704 159.084 154.956C158.765 154.207 164.67 131.294 164.67 131.294C164.67 131.294 166.606 100.883 157.371 95.0798C148.135 89.2766 130.452 93.4043 130.452 93.4043Z" fill="#202324"/>
<path d="M129.483 153.439L129.888 176.128L151.668 186.639L157.584 155.096L129.483 153.439Z" fill="#FFBF9D"/>
<path d="M80.9551 148.16L104.735 139.54L118.961 150.753L111.066 173.114L90.2012 166.263L80.9551 148.16Z" fill="#202324"/>
<path d="M152.732 188.539L152.445 188.39L151.572 188.006L148.21 186.564L135.815 181.304L117.397 173.592L106.512 169.08L100.756 166.684L97.8085 165.458L96.3189 164.84C95.8256 164.615 95.3134 164.424 94.7868 164.269C92.7093 163.599 90.5279 163.211 88.3177 163.118C86.1816 163.002 84.0374 163.118 81.9337 163.464C77.9516 164.128 74.1472 165.446 70.7191 167.348C67.6227 169.068 64.8422 171.192 62.4731 173.648C60.4219 175.783 58.6083 178.087 57.0573 180.527C54.8416 184.057 53.0138 187.765 51.599 191.6C51.0883 192.957 50.7372 194.024 50.535 194.754L50.2797 195.578C50.2446 195.669 50.2232 195.763 50.2158 195.859C50.2158 195.859 50.2158 195.775 50.3329 195.588L50.6308 194.773C50.8861 194.052 51.2692 193.004 51.8012 191.656C53.2672 187.84 55.1263 184.149 57.3553 180.63C58.9208 178.222 60.7374 175.947 62.7817 173.835C65.1359 171.414 67.8947 169.321 70.9638 167.629C74.3488 165.761 78.1024 164.469 82.0294 163.82C84.1013 163.477 86.2138 163.364 88.3177 163.483C90.4986 163.574 92.6511 163.956 94.7017 164.615C95.2214 164.767 95.7266 164.955 96.2126 165.177L97.7022 165.795L100.649 167.021L106.406 169.408L117.29 173.928L135.751 181.557L148.21 186.677L151.604 188.043L152.498 188.39C152.572 188.445 152.65 188.495 152.732 188.539Z" fill="#535455"/>
<path d="M107.427 170.072C107.41 168.919 107.499 167.767 107.693 166.627C108.371 163.911 109.523 161.303 111.109 158.896C112.719 156.475 114.086 153.935 115.194 151.305C115.498 150.493 115.725 149.66 115.875 148.815C115.945 148.507 115.97 148.193 115.95 147.879C115.865 147.879 115.716 149.199 114.886 151.212C113.69 153.791 112.289 156.293 110.694 158.7C109.089 161.14 107.967 163.801 107.374 166.571C107.227 167.42 107.187 168.28 107.257 169.136C107.27 169.453 107.327 169.767 107.427 170.072Z" fill="#535455"/>
<path d="M164.734 131.294L164.649 131.537C164.649 131.724 164.532 131.967 164.436 132.267C164.255 132.941 164.01 133.877 163.68 135.075C163.042 137.518 162.116 141.056 161.031 145.437C160.488 147.627 159.903 150.023 159.339 152.616C159.201 153.271 159.052 153.917 158.956 154.609C158.95 154.709 158.95 154.809 158.956 154.909V155.002C158.956 155.049 158.956 155.002 158.956 154.918V154.862C158.956 154.862 158.956 154.862 158.903 154.862C158.72 154.888 158.535 154.903 158.35 154.909H157.169C155.583 154.909 153.977 154.806 152.264 154.722C145.539 154.366 138.166 153.851 130.42 153.29L128.292 153.13L128.494 153.318C127.43 140.111 126.536 128.252 125.855 119.622C125.504 115.354 125.217 111.9 125.015 109.485C124.908 108.315 124.823 107.398 124.759 106.742C124.759 106.443 124.706 106.209 124.685 106.031C124.697 105.95 124.697 105.868 124.685 105.788C124.673 105.868 124.673 105.95 124.685 106.031C124.685 106.209 124.685 106.452 124.685 106.742C124.685 107.398 124.791 108.324 124.855 109.494C125.025 111.909 125.259 115.363 125.557 119.64C126.196 128.233 127.079 140.101 128.058 153.336V153.514H128.26L130.388 153.673C138.134 154.244 145.518 154.74 152.253 155.077C153.934 155.152 155.573 155.227 157.179 155.246H158.371C158.578 155.241 158.784 155.222 158.988 155.19C159.066 155.174 159.141 155.149 159.212 155.115C159.252 155.089 159.281 155.053 159.297 155.012C159.307 154.978 159.307 154.943 159.297 154.909C159.158 154.909 159.297 154.862 159.297 154.909C159.292 154.837 159.292 154.765 159.297 154.694C159.382 154.038 159.531 153.374 159.658 152.728C160.212 150.135 160.776 147.739 161.297 145.54C162.361 141.178 163.212 137.64 163.808 135.159L164.478 132.351C164.542 132.042 164.606 131.799 164.638 131.612C164.697 131.514 164.73 131.405 164.734 131.294Z" fill="#535455"/>
<path d="M136.027 89.8193C135.773 89.9681 135.541 90.1442 135.336 90.3435C134.9 90.6992 134.272 91.2795 133.612 91.9441C130.008 95.6298 127.422 99.9995 126.058 104.711C125.802 105.647 125.632 106.349 125.547 106.864C125.478 107.128 125.449 107.398 125.462 107.669C125.536 107.669 125.792 106.555 126.366 104.786C127.888 100.169 130.438 95.8644 133.867 92.1219C135.176 90.6898 136.091 89.8661 136.027 89.8193Z" fill="#535455"/>
<path d="M100.426 164.035C100.412 163.778 100.362 163.523 100.277 163.277C100.149 162.799 99.9361 162.107 99.6382 161.264C98.8467 159.065 97.8502 156.927 96.659 154.871C95.4621 152.82 94.0779 150.857 92.52 149.003C91.9242 148.301 91.456 147.739 91.041 147.374C90.8706 147.165 90.6662 146.979 90.4346 146.822C90.4346 146.822 91.1262 147.758 92.254 149.171C93.7216 151.059 95.0541 153.025 96.244 155.059C97.42 157.099 98.447 159.203 99.319 161.358C99.9999 163.005 100.351 164.054 100.426 164.035Z" fill="#535455"/>
<path d="M61.3128 161.292C61.2383 161.292 60.9298 162.088 60.2488 163.342C59.3793 164.975 58.3089 166.52 57.0568 167.947C55.8073 169.369 54.3797 170.663 52.8008 171.804C51.5879 172.674 50.7686 173.152 50.8112 173.208C50.8537 173.264 51.0452 173.133 51.4389 172.946C51.9804 172.661 52.5027 172.348 53.003 172.01C54.6897 170.925 56.2003 169.644 57.4931 168.2C58.7576 166.746 59.7954 165.15 60.5787 163.455C60.8152 162.944 61.0177 162.422 61.1852 161.892C61.2646 161.699 61.3078 161.497 61.3128 161.292Z" fill="#535455"/>
<path d="M177.14 213.699C190.568 213.1 193.951 213.474 207.379 212.875C210.656 212.726 222.583 213.091 225.318 211.499C227.818 210.058 231.021 208.691 231.702 206.136C232.766 201.812 231.436 196.916 226.914 194.211C225.33 193.279 223.495 192.731 221.594 192.62C213.667 192.068 206.421 197.16 198.494 195.644C196.366 195.241 194.43 194.193 192.302 193.772C189.127 193.222 185.834 193.687 183.013 195.082C180.172 196.374 179.513 196.589 179.513 196.589L165.404 192.386L161.01 214.064L177.14 213.699Z" fill="#FAFAFA"/>
<path d="M165.181 187.238L172.629 189.372C173.175 189.532 173.635 189.862 173.921 190.301C174.208 190.739 174.301 191.255 174.183 191.75L168.405 215C168.287 215.497 167.961 215.937 167.493 216.233C167.024 216.53 166.446 216.661 165.873 216.601L158.34 215.861C158.017 215.831 157.705 215.741 157.424 215.598C157.143 215.455 156.9 215.261 156.709 215.03C156.519 214.799 156.386 214.535 156.318 214.256C156.251 213.977 156.251 213.688 156.318 213.409L162.181 188.792C162.244 188.508 162.376 188.24 162.566 188.004C162.756 187.768 163.001 187.57 163.285 187.423C163.568 187.276 163.884 187.184 164.21 187.152C164.537 187.12 164.868 187.15 165.181 187.238Z" fill="#FAFAFA"/>
<path d="M168.224 215.936C168.785 214.806 169.244 213.638 169.596 212.445C170.352 210.264 171.299 207.231 172.15 203.824C173.001 200.417 173.565 197.272 173.873 195.045C174.022 193.912 174.129 192.985 174.171 192.349C174.233 192.02 174.233 191.685 174.171 191.357C173.842 192.553 173.593 193.766 173.427 194.988C173.001 197.225 172.363 200.324 171.533 203.703C170.703 207.081 169.798 210.142 169.16 212.342C168.756 213.52 168.443 214.721 168.224 215.936Z" fill="#202324"/>
<path d="M172.894 194.717C171.281 193.561 169.348 192.8 167.293 192.513C165.238 192.225 163.132 192.42 161.19 193.079C161.19 193.257 163.914 192.573 167.202 193.079C170.49 193.584 172.799 194.866 172.894 194.717Z" fill="#202324"/>
<path d="M172.012 203.497C170.023 202.696 167.929 202.118 165.777 201.774C163.671 201.244 161.497 200.952 159.308 200.904C161.376 201.498 163.488 201.97 165.628 202.317C169.128 203.029 171.959 203.656 172.012 203.497Z" fill="#202324"/>
<path d="M168.628 212.604C168.628 212.426 165.744 212.735 162.563 211.537C159.382 210.339 157.573 208.383 157.435 208.504C157.296 208.626 157.733 209.103 158.499 209.843C159.585 210.788 160.867 211.541 162.276 212.061C163.689 212.579 165.204 212.846 166.734 212.847C167.378 212.903 168.029 212.82 168.628 212.604Z" fill="#202324"/>
<path d="M128.92 168.874L129.484 178.683L151.743 188.081L155.445 171.701L128.92 168.874Z" fill="#FAFAFA"/>
<path d="M159.127 165.944L157.456 172.777C157.333 173.282 157.002 173.729 156.527 174.031C156.051 174.334 155.465 174.471 154.881 174.415L127.473 171.766C126.887 171.713 126.344 171.47 125.951 171.084C125.558 170.698 125.342 170.197 125.345 169.679V162.874C125.349 162.584 125.422 162.297 125.559 162.033C125.695 161.769 125.893 161.532 126.139 161.339C126.385 161.145 126.674 160.999 126.988 160.908C127.302 160.818 127.634 160.787 127.962 160.815L156.988 163.427C157.326 163.449 157.653 163.535 157.95 163.679C158.247 163.822 158.505 164.02 158.707 164.258C158.91 164.497 159.052 164.771 159.124 165.061C159.197 165.352 159.198 165.653 159.127 165.944Z" fill="#FAFAFA"/>
<path d="M126.409 171.71C127.765 172.103 129.157 172.391 130.569 172.571C133.166 173.002 136.762 173.507 140.773 173.938C144.784 174.368 148.423 174.499 151.073 174.537C152.392 174.537 153.456 174.537 154.201 174.537C154.584 174.551 154.968 174.516 155.339 174.434C153.929 174.26 152.507 174.166 151.083 174.153C148.455 174.013 144.827 173.779 140.837 173.385C136.847 172.992 133.251 172.524 130.644 172.187C129.246 171.946 127.831 171.787 126.409 171.71Z" fill="#202324"/>
<path d="M151.338 173.61C152.598 172.09 153.279 170.259 153.285 168.378C153.498 165.233 152.104 162.902 151.976 162.987C151.849 163.071 152.849 165.355 152.636 168.341C152.423 171.326 151.2 173.535 151.338 173.61Z" fill="#202324"/>
<path d="M141.123 173.76C141.838 171.901 142.285 169.97 142.453 168.013C142.922 164.793 142.954 162.163 142.773 162.154C142.592 162.144 142.273 164.746 141.815 167.938C141.358 171.13 140.943 173.723 141.123 173.76Z" fill="#202324"/>
<path d="M130.281 171.71C130.483 171.71 129.834 169.145 130.866 166.188C131.899 163.23 133.973 161.405 133.814 161.292C133.654 161.18 133.165 161.62 132.399 162.425C130.433 164.579 129.502 167.323 129.802 170.072C129.814 170.643 129.978 171.204 130.281 171.71Z" fill="#202324"/>
<path d="M79.3692 96.858C79.3692 96.858 90.7434 98.2714 91.4669 98.8892C92.1905 99.5069 106.831 114.614 106.831 114.614L99.8619 127.334L86.9556 121.484C85.6406 121 84.2711 120.639 82.8698 120.408C82.8698 120.408 69.9529 118.863 69.0378 117.516C68.1228 116.168 68.6335 115.84 69.5805 115.644C70.5274 115.447 78.252 116.046 79.9757 116.289C81.6846 116.405 83.4022 116.374 85.1042 116.196C85.1042 116.196 79.731 115.194 78.5074 114.848C77.2838 114.502 65.2606 112.368 65.4096 110.467C65.5585 108.567 67.0269 107.865 74.5706 109.531C78.7491 110.486 83.0433 110.992 87.3599 111.038L70.6657 106.255C70.6657 106.255 63.9413 104.496 66.048 102.774C68.1547 101.051 82.54 104.252 82.54 104.252L88.924 106.237L87.0513 102.914C87.0513 102.914 78.0073 100.733 76.8369 99.9656C75.3899 99.0296 75.1665 98.0936 76.2198 97.2792C77.2732 96.4649 79.3692 96.858 79.3692 96.858Z" fill="#FFBF9D"/>
<path d="M40.5434 80.9368C40.5357 81.3146 40.4858 81.6908 40.3945 82.06C40.2455 82.8743 40.054 83.8852 39.8199 85.0832C39.3411 87.6385 38.7559 91.1766 38.1282 95.0891C37.5004 99.0016 37.1386 102.577 36.862 105.151C36.7343 106.359 36.6173 107.379 36.5322 108.202C36.5118 108.581 36.4513 108.957 36.3513 109.326C36.297 108.95 36.297 108.569 36.3513 108.193C36.3513 107.463 36.4151 106.415 36.5002 105.123C36.6811 102.53 37.0322 98.9548 37.5642 95.0329C38.0962 91.1111 38.841 87.5449 39.4262 85.0271C39.7242 83.7541 39.9795 82.7245 40.171 82.0225C40.2421 81.6481 40.3672 81.2833 40.5434 80.9368Z" fill="#202324"/>
<path d="M115.737 81.9195C115.737 81.6574 112.907 66.2883 111.587 60.8501L90.7756 63.6581C90.4883 65.9326 90.3926 73.8605 90.4564 76.5281C90.4208 79.2198 91.4305 81.8416 93.3186 83.9599C94.2802 84.9992 95.553 85.7812 96.9931 86.2178C98.4333 86.6545 99.9835 86.7283 101.469 86.431C103.071 88.4925 105.513 89.9335 108.289 90.4558C111.055 90.8302 114.216 89.5666 115.099 87.2266C115.725 85.5152 115.942 83.7083 115.737 81.9195Z" fill="#202324"/>
<path d="M85.4238 84.0256L82.1041 112.04C82.0502 112.494 81.7982 112.911 81.4013 113.204C81.0043 113.498 80.4933 113.644 79.9761 113.612L60.2709 112.227C59.7465 112.191 59.2596 111.974 58.9167 111.623C58.5737 111.273 58.4026 110.817 58.4408 110.355L60.7603 80.8993C60.7789 80.6546 60.8554 80.4159 60.985 80.1988C61.1146 79.9816 61.2943 79.7906 61.5127 79.6381C61.7312 79.4857 61.9834 79.375 62.2533 79.3134C62.5231 79.2517 62.8047 79.2403 63.0798 79.28L83.7427 82.088C84.2542 82.1554 84.7158 82.3954 85.0296 82.7571C85.3435 83.1187 85.4848 83.5737 85.4238 84.0256Z" fill="#202324"/>
<path d="M68.7826 93.32C68.7826 93.32 57.3127 93.0673 56.4721 93.5727C55.6315 94.0782 38.416 106.892 38.416 106.892L42.9061 120.464C42.9061 120.464 55.3017 116.963 56.7381 116.552C58.1343 116.264 59.5606 116.104 60.9941 116.074C60.9941 116.074 74.0281 116.421 75.1347 115.213C76.2412 114.006 75.8369 113.622 74.9431 113.257C74.0494 112.892 66.3141 112.405 64.5691 112.405C62.8613 112.272 61.1722 111.993 59.5258 111.572C59.5258 111.572 65.016 111.357 66.2822 111.188C67.5483 111.02 79.8163 110.645 80.0291 108.764C80.2419 106.883 78.9651 105.956 71.1659 106.499C66.9115 106.846 62.6253 106.745 58.3979 106.199L75.656 103.869C75.656 103.869 82.6146 103.101 80.859 101.061C79.1034 99.0203 64.3031 100.125 64.3031 100.125L57.6531 101.164L60.111 98.1498C60.111 98.1498 69.4423 97.3074 70.751 96.7177C72.3576 95.9876 72.7513 95.1265 71.815 94.1624C70.8787 93.1983 68.7826 93.32 68.7826 93.32Z" fill="#FFBF9D"/>
<path d="M14.2205 103.944L33.4577 110.262L33.0959 112.611L38.8841 106.546L44.2041 118.714C44.2041 118.714 35.2558 134.186 33.3193 138.154C27.7759 149.648 17.9233 155.648 10.8583 153.102C2.34629 150.051 -2.52683 142.151 1.35677 133.39C3.66565 128.177 14.2205 103.944 14.2205 103.944Z" fill="#FFBF9D"/>
<path d="M38.416 106.892C38.416 106.892 38.5756 106.752 38.8842 106.508L40.2993 105.432L45.747 101.342L54.376 94.9299L55.6741 93.9939L56.3551 93.5072C56.6403 93.392 56.9465 93.3223 57.2595 93.3013C58.4405 93.189 59.6535 93.1703 60.8983 93.1515C63.3987 93.1515 66.0268 93.1515 68.7932 93.1515C69.4969 93.1321 70.199 93.2208 70.868 93.4136C71.2258 93.5146 71.5557 93.6804 71.8363 93.9003C72.1194 94.1309 72.3317 94.4207 72.4534 94.7427C72.5223 94.9119 72.5495 95.0922 72.533 95.2713C72.5164 95.4505 72.4567 95.6245 72.3576 95.7817C72.1545 96.0753 71.8824 96.3274 71.5596 96.5211C71.2345 96.7291 70.8759 96.8932 70.4956 97.0079C70.1232 97.1015 69.7615 97.1763 69.4316 97.2419C66.4843 97.7379 63.3775 98.0468 60.1642 98.3557L60.3131 98.2902L57.8553 101.295L57.6531 101.005L64.3031 99.9656C67.0908 99.7784 69.9636 99.6567 72.8896 99.6661C74.3579 99.6661 75.8475 99.7223 77.3371 99.872C78.0958 99.9383 78.8467 100.06 79.5822 100.237C79.9604 100.33 80.3195 100.476 80.6462 100.668C80.8308 100.771 80.988 100.908 81.1073 101.07C81.2266 101.231 81.3052 101.413 81.3378 101.604C81.3376 101.803 81.2823 101.999 81.1766 102.175C81.071 102.351 80.9181 102.502 80.7313 102.614C80.4048 102.828 80.0469 103.001 79.6673 103.129C78.9401 103.388 78.189 103.592 77.4223 103.738C75.8901 104.028 74.3473 104.168 72.8045 104.393L63.3987 105.647L58.2915 106.321V105.928C62.214 106.411 66.1836 106.527 70.1339 106.274C72.0649 106.117 74.0045 106.058 75.9433 106.096C76.9216 106.099 77.8913 106.258 78.8055 106.564C79.3058 106.739 79.7126 107.073 79.9439 107.5C80.1447 107.92 80.2002 108.382 80.1035 108.83C80.0287 109.072 79.8543 109.283 79.6141 109.419C79.4095 109.543 79.1922 109.649 78.9651 109.737C78.5269 109.899 78.0751 110.031 77.6138 110.131C76.7228 110.328 75.8207 110.484 74.9112 110.599C73.1131 110.833 71.3362 110.982 69.5912 111.104L66.9844 111.272C66.1439 111.329 65.2714 111.441 64.4202 111.478C62.7284 111.572 61.0686 111.647 59.43 111.712V111.357C61.217 111.851 63.07 112.138 64.9415 112.208C66.7929 112.274 68.5911 112.396 70.3467 112.527C71.2191 112.602 72.0916 112.677 72.9428 112.77C73.3684 112.817 73.794 112.864 74.209 112.929C74.433 112.964 74.6536 113.014 74.8687 113.079C75.0726 113.159 75.2654 113.26 75.4432 113.378C75.5454 113.445 75.631 113.529 75.6951 113.626C75.7591 113.722 75.8001 113.829 75.8156 113.94C75.8337 114.148 75.7819 114.357 75.6667 114.539C75.5697 114.71 75.4558 114.873 75.3262 115.026L75.1347 115.241C75.0578 115.324 74.964 115.394 74.858 115.447C74.1029 115.725 73.3016 115.892 72.4853 115.943C69.56 116.174 66.6224 116.261 63.686 116.205H61.6963C61.0622 116.168 60.4259 116.168 59.7918 116.205C58.6157 116.242 57.4498 116.412 56.3231 116.711L46.3428 119.519L43.7041 120.23L43.0338 120.408L42.7997 120.464L43.0231 120.389L43.6935 120.183L46.3109 119.416L56.2487 116.552C58.6794 116.006 61.1958 115.816 63.6967 115.99C66.6196 116.033 69.5431 115.933 72.4534 115.69C73.2256 115.642 73.9838 115.484 74.6984 115.222C74.7677 115.189 74.8291 115.145 74.8793 115.091L75.0602 114.885C75.1773 114.749 75.2772 114.601 75.3581 114.446C75.539 114.137 75.539 113.847 75.2304 113.659C75.077 113.554 74.909 113.466 74.7303 113.397C74.5601 113.35 74.3579 113.313 74.1558 113.276C73.7515 113.21 73.3259 113.163 72.9109 113.116C72.0597 113.035 71.1979 112.96 70.3254 112.892C68.5804 112.761 66.7823 112.648 64.9415 112.583C63.0388 112.518 61.1538 112.235 59.3343 111.74C59.2834 111.727 59.24 111.698 59.2124 111.658C59.1849 111.618 59.1752 111.571 59.1853 111.525C59.1982 111.489 59.2235 111.457 59.2577 111.433C59.292 111.41 59.3335 111.396 59.3768 111.394C61.0154 111.329 62.6752 111.254 64.367 111.151C65.2182 111.151 66.0375 111.001 66.9206 110.936L69.5274 110.767C71.2723 110.636 73.0492 110.496 74.8474 110.252C75.7428 110.142 76.6308 109.989 77.5074 109.794C77.9435 109.699 78.3705 109.573 78.7842 109.419C79.1672 109.269 79.6141 109.045 79.6673 108.783C79.7461 108.421 79.7017 108.046 79.5396 107.706C79.3443 107.378 79.0186 107.125 78.6246 106.995C77.7597 106.712 76.8447 106.566 75.922 106.564C74.0008 106.529 72.0788 106.592 70.1658 106.752C66.2023 107.019 62.2175 106.909 58.2809 106.424C58.2508 106.422 58.2216 106.414 58.1951 106.401C58.1687 106.389 58.1456 106.371 58.1275 106.35C58.1094 106.328 58.0966 106.304 58.09 106.278C58.0835 106.252 58.0832 106.225 58.0894 106.199C58.0959 106.157 58.1182 106.117 58.1528 106.087C58.1874 106.056 58.2324 106.037 58.2809 106.031L63.3881 105.348L72.7939 104.093C74.3367 103.869 75.8901 103.728 77.3797 103.448C78.1065 103.308 78.8185 103.114 79.5077 102.867C79.8435 102.745 80.1614 102.588 80.4547 102.399C80.5839 102.329 80.6913 102.231 80.7673 102.115C80.8434 101.999 80.8859 101.868 80.8909 101.735C80.8271 101.182 80.1248 100.855 79.4332 100.696C78.737 100.523 78.0249 100.404 77.3052 100.34C75.8418 100.206 74.3716 100.138 72.9003 100.134C69.9849 100.134 67.1227 100.237 64.3883 100.415L57.7276 101.444C57.701 101.448 57.6738 101.448 57.6475 101.442C57.6213 101.437 57.5965 101.427 57.5747 101.413C57.5529 101.399 57.5345 101.381 57.5205 101.361C57.5066 101.341 57.4974 101.318 57.4935 101.295C57.4728 101.25 57.4728 101.199 57.4935 101.154C58.3554 100.115 59.1959 99.0764 59.962 98.1498C59.9991 98.1091 60.0523 98.0824 60.111 98.0749C63.303 97.7754 66.4205 97.4665 69.3359 96.9891C69.6948 96.9311 70.05 96.8561 70.3999 96.7645C70.7277 96.6623 71.0362 96.5171 71.3149 96.3339C71.8895 95.9876 72.3257 95.4541 72.0916 94.9206C71.9779 94.6529 71.7961 94.4116 71.56 94.2153C71.3239 94.019 71.0399 93.8728 70.7297 93.788C70.1035 93.6012 69.4432 93.5186 68.7826 93.5447C66.0268 93.4791 63.3881 93.4511 60.909 93.4791C59.6641 93.4791 58.4511 93.4791 57.2914 93.6102C57.0274 93.6233 56.7681 93.6772 56.5253 93.7693L55.855 94.2373L54.5569 95.1733L45.864 101.482L40.3419 105.488L38.8948 106.527C38.5756 106.78 38.416 106.892 38.416 106.892Z" fill="#FF9A6C"/>
<path d="M38.4162 106.892C38.5333 106.976 33.0962 113.004 26.3292 120.342C19.5622 127.681 13.9443 133.568 13.7847 133.493C13.6251 133.418 19.1046 127.39 25.8717 120.043C32.6387 112.695 38.2779 106.808 38.4162 106.892Z" fill="#FF9A6C"/>
</svg>
