<svg width="100%" height="100%" viewBox="0 0 532 468" fill="none" xmlns="http://www.w3.org/2000/svg">
<path d="M86.7376 176.717C86.73 176.642 86.73 176.567 86.7376 176.492V175.874C86.7376 175.313 86.7376 174.517 86.7376 173.506C86.7376 171.428 86.7376 168.433 86.6525 164.67L86.8121 164.811L35.0485 164.895L35.3038 164.67V176.717L35.0485 176.483L71.9374 176.586L82.8221 176.651H85.7694H86.5354H86.8121H86.5674H85.8332H82.9391L72.1182 176.717L34.974 176.904H34.708V164.736L34.974 164.502L86.7376 164.586H86.8972V164.736C86.8972 168.536 86.8227 171.559 86.8121 173.656C86.8121 174.658 86.8121 175.434 86.8121 175.996V176.586C86.7896 176.63 86.7647 176.674 86.7376 176.717Z" fill="#E0E0E0"/>
<path d="M93.7493 164.67C93.7493 164.67 93.7493 164.586 93.7493 164.436C93.7493 164.287 93.7493 164.053 93.7493 163.8C93.7493 163.201 93.7493 162.396 93.7493 161.385C93.7493 159.27 93.7493 156.284 93.6535 152.615L93.8344 152.783L62.7337 152.849C62.4996 153.055 63.0529 152.568 62.9997 152.624V158.802C62.9997 160.824 62.9997 162.77 62.9997 164.642L62.7443 164.427L84.9925 164.53L91.4723 164.596H93.2279H93.845H93.2811L91.5042 164.736L85.1202 164.802L62.7018 164.904H62.457V164.68C62.457 162.808 62.457 160.861 62.457 158.839C62.457 157.838 62.457 156.808 62.457 155.778V152.662L62.723 152.428L93.8238 152.493H94.0153V152.652C94.0153 156.396 93.9408 159.382 93.9195 161.526C93.9195 162.527 93.9195 163.313 93.9195 163.903C93.8872 164.163 93.8303 164.419 93.7493 164.67Z" fill="#E0E0E0"/>
<path d="M243.497 67.9348C243.488 67.8633 243.488 67.7911 243.497 67.7195V67.1018C243.497 66.5308 243.497 65.7446 243.497 64.7243C243.497 62.6464 243.444 59.6606 243.401 55.8885L243.571 56.0289L191.733 56.1599C191.85 56.057 191.467 56.3939 191.989 55.9259V67.9348L191.723 67.7102L228.612 67.8131L239.507 67.8787H242.454H243.22H243.497C243.416 67.8869 243.333 67.8869 243.252 67.8787H242.518H239.624L228.761 68.0565L191.691 68.1595H191.521V58.9679C191.521 58.4625 191.521 57.9477 191.521 57.4329V55.9072L191.797 55.6732L243.561 55.7668H243.657V55.9072C243.657 59.7167 243.582 62.7307 243.561 64.8273C243.561 65.8288 243.561 66.6151 243.561 67.1673V67.7663C243.544 67.8239 243.523 67.8802 243.497 67.9348Z" fill="#E0E0E0"/>
<path d="M250.509 55.8886C250.509 55.8886 250.509 55.8043 250.509 55.6639C250.509 55.5235 250.509 55.2802 250.509 55.0181C250.509 54.4284 250.509 53.6234 250.509 52.6032C250.509 50.4972 250.445 47.5114 250.402 43.8422L250.594 44.0107L219.493 44.0762L219.759 43.8422V46.9591C219.759 47.9981 219.759 49.0183 219.759 50.0292V55.8698L219.504 55.6452L241.752 55.7575L248.232 55.8137H249.977H250.604C250.417 55.8271 250.228 55.8271 250.041 55.8137H248.349L241.965 55.8698L219.408 56.16H219.185V55.9354C219.185 54.0634 219.185 52.1071 219.185 50.0947V43.861L219.451 43.627L250.551 43.6925H250.743V43.861C250.743 47.605 250.668 50.5908 250.636 52.7249C250.636 53.7264 250.636 54.522 250.636 55.1023C250.613 55.3665 250.57 55.6291 250.509 55.8886Z" fill="#E0E0E0"/>
<path d="M195.17 45.9108V124.366H67.0855L62.4678 46.463L195.17 45.9108Z" fill="#E0E0E0"/>
<path d="M62.4678 46.4631L62.4678 124.198H190.552V46.4631H62.4678Z" fill="white"/>
<path d="M191.169 124.731H61.8613V45.9202H191.169V124.731ZM63.0743 123.664H189.956V46.9966H63.0743V123.664Z" fill="#E0E0E0"/>
<path d="M176.689 56.1132H76.3428V114.538H176.689V56.1132Z" fill="white"/>
<path d="M176.688 56.1599C176.521 56.1681 176.354 56.1681 176.188 56.1599H174.762H169.25L148.577 56.2255L76.342 56.3565L76.608 56.1599C76.608 74.0095 76.608 93.7871 76.608 114.576L76.2888 114.295L176.635 114.351L176.379 114.576C176.432 96.7917 176.486 82.2182 176.518 72.0719C176.518 66.9988 176.518 63.0302 176.581 60.3158C176.581 58.9773 176.581 57.9383 176.581 57.227C176.581 56.5156 176.581 56.1506 176.581 56.1506C176.581 56.1506 176.581 56.4969 176.581 57.1802C176.581 57.8635 176.581 58.9024 176.581 60.2315C176.581 62.9366 176.581 66.8771 176.645 71.9315C176.645 82.1152 176.72 96.7355 176.773 114.576V114.8H176.518L76.1717 114.857H75.8525V114.576C75.8525 93.7871 75.8525 74.0095 75.8525 56.1599V55.9072H76.1398L148.566 56.0383L169.176 56.1038H174.624H176.017L176.688 56.1599Z" fill="#E0E0E0"/>
<path d="M62.4675 46.2384C63.2562 46.5773 63.9956 46.9984 64.67 47.4926C65.9787 48.3257 67.7662 49.505 69.6921 50.8622C71.6179 52.2194 73.3097 53.5018 74.512 54.4658C75.1996 54.9615 75.8144 55.5306 76.3421 56.16C76.225 56.2817 73.1501 54.0446 69.2984 51.349C65.4467 48.6533 62.3611 46.3694 62.4675 46.2384Z" fill="#E0E0E0"/>
<path d="M190.563 46.463C188.448 48.2692 186.194 49.9455 183.817 51.48C181.57 53.1633 179.187 54.7023 176.688 56.0851C178.798 54.2678 181.048 52.5821 183.424 51.0401C187.265 48.4005 190.457 46.3413 190.563 46.463Z" fill="#E0E0E0"/>
<path d="M190.457 124.207L176.178 114.024L190.457 124.207Z" fill="white"/>
<path d="M176.177 114.024C178.743 115.506 181.196 117.135 183.519 118.9C185.963 120.531 188.281 122.304 190.456 124.207C187.884 122.733 185.431 121.103 183.114 119.331C179.178 116.523 176.06 114.192 176.177 114.024Z" fill="#E0E0E0"/>
<path d="M62.4678 124.198C64.5604 122.394 66.7969 120.723 69.1603 119.2C71.3861 117.531 73.7473 116.007 76.2253 114.641C74.1395 116.445 71.9101 118.115 69.554 119.639C67.3214 121.309 64.953 122.832 62.4678 124.198Z" fill="#E0E0E0"/>
<path d="M96.7178 74.3183V93.8807H159.856V74.3183H96.7178Z" fill="#E0E0E0"/>
<path d="M321.371 413.88V449.701H380.913H446.583V413.88H321.371Z" fill="#F5F5F5"/>
<path d="M316.114 403.865V413.881H450.955V403.865H380.912H316.114Z" fill="#E0E0E0"/>
<path d="M383.54 449.701H446.582V413.881H450.955V403.865H380.912V412.954L383.54 449.701Z" fill="#E0E0E0"/>
<path d="M364.282 419.656H338.885V425.047H364.282V419.656Z" fill="#E0E0E0"/>
<path d="M368.219 431.786H335.618V443.168H368.219V431.786Z" fill="white"/>
<path d="M259.255 208.223H207.491V220.269H259.255V208.223Z" fill="#EBEBEB"/>
<path d="M237.368 232.961C237.361 232.886 237.361 232.811 237.368 232.736V232.128C237.368 231.566 237.368 230.771 237.368 229.76C237.368 227.682 237.315 224.687 237.283 220.924L237.443 221.064L185.679 221.149L185.934 220.924V232.952L185.679 232.727L222.568 232.83L233.453 232.886H236.4H237.166H237.443H237.198H236.464H233.57L222.749 232.952L185.679 233.055H185.413V220.896L185.679 220.662L237.443 220.756H237.602V220.896C237.602 224.696 237.538 227.719 237.517 229.816C237.517 230.818 237.517 231.594 237.517 232.156C237.517 232.399 237.517 232.596 237.517 232.746C237.474 232.821 237.424 232.893 237.368 232.961Z" fill="#E0E0E0"/>
<path d="M510.082 136.375H458.318V148.422H510.082V136.375Z" fill="#EBEBEB"/>
<path d="M488.196 161.114C488.196 161.114 488.196 161.029 488.196 160.889V160.271C488.196 159.71 488.196 158.914 488.196 157.903C488.196 155.825 488.142 152.83 488.11 149.067L488.27 149.208L436.506 149.292L436.772 149.067V152.147C436.772 153.167 436.772 154.178 436.772 155.189V161.114L436.517 160.88L473.406 160.983L484.291 161.048H487.238H488.004H488.281H488.047H487.302H484.418L473.587 161.114L436.517 161.217H436.262V160.992C436.262 159.054 436.262 157.07 436.262 155.067V148.946L436.528 148.712L488.291 148.796H488.376V148.946C488.376 152.746 488.313 155.769 488.291 157.866C488.291 158.867 488.291 159.644 488.291 160.206C488.291 160.449 488.291 160.646 488.291 160.795C488.285 160.906 488.252 161.015 488.196 161.114Z" fill="#E0E0E0"/>
<path d="M504.017 450.862C504.017 450.993 397.447 451.105 266.011 451.105C134.575 451.105 27.9834 450.993 27.9834 450.862C27.9834 450.731 134.532 450.618 266.011 450.618C397.489 450.618 504.017 450.721 504.017 450.862Z" fill="#2C2E2F"/>
<path d="M454.126 27.5465H299.973C285.083 27.5465 273.012 38.1655 273.012 51.2647V366.304C273.012 379.403 285.083 390.022 299.973 390.022H454.126C469.016 390.022 481.088 379.403 481.088 366.304V51.2647C481.088 38.1655 469.016 27.5465 454.126 27.5465Z" fill="#455A64"/>
<path d="M477.811 366.341V51.246C477.811 39.7545 467.221 30.4387 454.158 30.4387L299.942 30.4387C286.879 30.4387 276.289 39.7545 276.289 51.246V366.341C276.289 377.833 286.879 387.148 299.942 387.148H454.158C467.221 387.148 477.811 377.833 477.811 366.341Z" fill="#263238"/>
<path d="M362.111 41.8579C361.794 41.8768 361.476 41.8382 361.177 41.7445C360.877 41.6507 360.603 41.5039 360.371 41.313C360.138 41.1221 359.953 40.8912 359.827 40.6348C359.7 40.3783 359.635 40.1017 359.635 39.8221C359.635 39.5425 359.7 39.2659 359.827 39.0094C359.953 38.753 360.138 38.5221 360.371 38.3312C360.603 38.1403 360.877 37.9935 361.177 37.8997C361.476 37.806 361.794 37.7674 362.111 37.7863H391.903C392.49 37.8213 393.04 38.051 393.441 38.4289C393.842 38.8069 394.066 39.3048 394.066 39.8221C394.066 40.3394 393.842 40.8373 393.441 41.2152C393.04 41.5932 392.49 41.8229 391.903 41.8579H362.111Z" fill="#455A64"/>
<path d="M346.151 41.8579C345.692 41.8579 345.243 41.7383 344.862 41.5141C344.48 41.2898 344.183 40.9712 344.008 40.5983C343.832 40.2255 343.786 39.8152 343.876 39.4194C343.965 39.0236 344.186 38.66 344.51 38.3746C344.835 38.0893 345.248 37.8949 345.698 37.8162C346.148 37.7375 346.614 37.7779 347.038 37.9323C347.462 38.0867 347.824 38.3483 348.079 38.6838C348.334 39.0194 348.47 39.4139 348.47 39.8175C348.47 40.3586 348.226 40.8776 347.791 41.2603C347.356 41.643 346.766 41.8579 346.151 41.8579Z" fill="#455A64"/>
<path d="M354.674 41.8579C354.215 41.8598 353.765 41.7417 353.382 41.5186C353 41.2955 352.701 40.9775 352.523 40.6048C352.346 40.2321 352.299 39.8216 352.387 39.4251C352.475 39.0287 352.695 38.6642 353.019 38.3779C353.343 38.0916 353.757 37.8964 354.207 37.8169C354.657 37.7374 355.124 37.7772 355.548 37.9314C355.973 38.0856 356.336 38.3471 356.591 38.6828C356.846 39.0186 356.983 39.4135 356.983 39.8174C356.98 40.3562 356.736 40.8724 356.304 41.2543C355.872 41.6362 355.286 41.853 354.674 41.8579Z" fill="#455A64"/>
<path d="M407.959 41.8579C407.5 41.8598 407.05 41.7417 406.668 41.5186C406.285 41.2955 405.986 40.9775 405.809 40.6048C405.631 40.2321 405.584 39.8216 405.672 39.4251C405.76 39.0287 405.981 38.6642 406.304 38.3779C406.628 38.0916 407.042 37.8964 407.492 37.8169C407.942 37.7374 408.409 37.7772 408.834 37.9314C409.258 38.0856 409.621 38.3471 409.876 38.6828C410.132 39.0186 410.268 39.4135 410.268 39.8174C410.265 40.3562 410.021 40.8724 409.589 41.2543C409.157 41.6362 408.572 41.853 407.959 41.8579Z" fill="#455A64"/>
<path d="M399.436 41.8579C398.977 41.8579 398.529 41.7383 398.147 41.5141C397.766 41.2898 397.468 40.9712 397.293 40.5983C397.117 40.2255 397.071 39.8152 397.161 39.4194C397.25 39.0236 397.471 38.66 397.796 38.3746C398.12 38.0893 398.533 37.8949 398.983 37.8162C399.433 37.7375 399.9 37.7779 400.323 37.9323C400.747 38.0867 401.109 38.3483 401.364 38.6838C401.619 39.0194 401.755 39.4139 401.755 39.8175C401.755 40.3586 401.511 40.8776 401.076 41.2603C400.641 41.643 400.051 41.8579 399.436 41.8579Z" fill="#455A64"/>
<path d="M455.243 32.4885H426.026C423.782 32.4878 421.597 33.1254 419.799 34.3062C418 35.487 416.684 37.1477 416.046 39.0405L415.546 40.5381C414.877 42.5687 413.479 44.3543 411.561 45.6281C409.644 46.9019 407.309 47.5954 404.906 47.6049H349.248C346.836 47.604 344.49 46.9146 342.561 45.6403C340.633 44.366 339.227 42.5756 338.554 40.5381L338.065 39.0405C337.427 37.1462 336.109 35.4844 334.308 34.3034C332.507 33.1225 330.32 32.4858 328.074 32.4885H301.57C296.109 32.4885 290.873 34.3967 287.012 37.7933C283.151 41.1899 280.981 45.7966 280.981 50.6001V364.909C280.981 369.427 283.022 373.76 286.653 376.955C290.285 380.149 295.21 381.944 300.346 381.944H455.594C457.897 381.945 460.177 381.548 462.304 380.773C464.431 379.999 466.364 378.864 467.993 377.432C469.621 376.001 470.913 374.301 471.794 372.43C472.676 370.559 473.129 368.553 473.129 366.528V48.2227C473.126 44.0505 471.241 40.0499 467.887 37.0997C464.534 34.1495 459.986 32.491 455.243 32.4885Z" fill="white"/>
<path d="M481.311 147.991H481.077V106.33H481.311C481.613 106.33 481.902 106.435 482.116 106.623C482.329 106.811 482.449 107.066 482.449 107.331V146.989C482.449 147.255 482.329 147.51 482.116 147.698C481.902 147.885 481.613 147.991 481.311 147.991Z" fill="#455A64"/>
<path d="M272.735 131.976H273.012V158.353H272.735C272.433 158.353 272.143 158.247 271.93 158.059C271.716 157.871 271.596 157.617 271.596 157.351V133.015C271.591 132.88 271.616 132.746 271.671 132.62C271.725 132.494 271.808 132.38 271.915 132.283C272.021 132.186 272.148 132.108 272.289 132.056C272.43 132.003 272.582 131.976 272.735 131.976Z" fill="#455A64"/>
<path d="M272.735 97.5406H273.012V123.917H272.735C272.433 123.917 272.143 123.812 271.93 123.624C271.716 123.436 271.596 123.181 271.596 122.916V98.5796C271.591 98.445 271.616 98.3107 271.671 98.1848C271.725 98.059 271.808 97.9441 271.915 97.8471C272.021 97.7501 272.148 97.673 272.289 97.6203C272.43 97.5676 272.582 97.5406 272.735 97.5406Z" fill="#455A64"/>
<path d="M272.81 71.679H273.022V83.9406H272.81C272.542 83.9406 272.284 83.8469 272.095 83.6801C271.905 83.5134 271.799 83.2872 271.799 83.0514V72.5682C271.799 72.3323 271.905 72.1061 272.095 71.9394C272.284 71.7726 272.542 71.679 272.81 71.679Z" fill="#455A64"/>
<path d="M427.909 44.6659H426.483V46.4256H427.909V44.6659Z" fill="#263238"/>
<path d="M430.228 43.8798H428.803V46.4257H430.228V43.8798Z" fill="#263238"/>
<path d="M432.559 43.2994H431.133V46.435H432.559V43.2994Z" fill="#263238"/>
<path d="M434.889 42.1575H433.463V46.435H434.889V42.1575Z" fill="#263238"/>
<path d="M455.988 46.5192H448.816C448.68 46.5192 448.549 46.4722 448.451 46.3882C448.354 46.3042 448.298 46.1899 448.295 46.0699V42.9343C448.295 42.8143 448.348 42.699 448.444 42.6133C448.539 42.5275 448.669 42.4781 448.806 42.4757H455.988C456.019 42.4686 456.052 42.4686 456.083 42.4757C456.096 42.5027 456.096 42.5329 456.083 42.5599V43.5895H456.849C456.884 43.5894 456.918 43.601 456.944 43.6218C456.969 43.6426 456.985 43.6712 456.988 43.7018V45.2182C456.988 45.2337 456.984 45.2492 456.977 45.2634C456.97 45.2777 456.96 45.2905 456.947 45.3011C456.934 45.3117 456.918 45.3197 456.902 45.3248C456.885 45.3298 456.867 45.3318 456.849 45.3305H456.083V46.3694C456.09 46.3848 456.093 46.4012 456.091 46.4175C456.09 46.4338 456.084 46.4497 456.075 46.4639C456.066 46.4782 456.053 46.4905 456.038 46.5001C456.023 46.5096 456.006 46.5162 455.988 46.5192ZM455.86 42.7097H448.806C448.773 42.7097 448.74 42.7155 448.709 42.7269C448.679 42.7383 448.652 42.755 448.629 42.776C448.606 42.797 448.588 42.8219 448.576 42.8491C448.565 42.8763 448.559 42.9053 448.561 42.9343V46.0699C448.561 46.099 448.568 46.1278 448.581 46.1545C448.593 46.1813 448.612 46.2054 448.636 46.2256C448.66 46.2457 448.688 46.2613 448.719 46.2716C448.75 46.2818 448.783 46.2865 448.816 46.2852H455.86V45.2556C455.86 45.2258 455.873 45.1972 455.897 45.1762C455.921 45.1551 455.954 45.1433 455.988 45.1433H456.754V43.861H455.988C455.97 43.861 455.952 43.8578 455.936 43.8516C455.92 43.8454 455.905 43.8363 455.893 43.8248C455.881 43.8134 455.872 43.7999 455.866 43.7851C455.861 43.7704 455.859 43.7548 455.86 43.7393V42.7097Z" fill="#263238"/>
<path d="M449.146 45.7704V43.2245H455.275V44.3758V44.6285V45.7704H449.146Z" fill="#263238"/>
<path d="M441.73 46.2759C441.73 46.1829 441.698 46.0921 441.64 46.0149C441.581 45.9378 441.497 45.8778 441.399 45.8427C441.301 45.8076 441.194 45.7989 441.09 45.8177C440.987 45.8365 440.892 45.882 440.818 45.9484C440.744 46.0148 440.694 46.0991 440.675 46.1905C440.656 46.2819 440.668 46.3762 440.71 46.4616C440.752 46.5469 440.821 46.6193 440.91 46.6696C440.999 46.7199 441.103 46.7457 441.209 46.7439C441.278 46.7439 441.347 46.7317 441.411 46.7081C441.475 46.6845 441.533 46.6498 441.581 46.6063C441.63 46.5627 441.668 46.511 441.693 46.4543C441.719 46.3976 441.731 46.3369 441.73 46.2759Z" fill="#263238"/>
<path d="M439.432 45.1714L440.102 45.7517C440.405 45.4951 440.809 45.351 441.23 45.3492C441.647 45.3515 442.048 45.4957 442.347 45.7517L443.017 45.1714C442.782 44.9639 442.503 44.7994 442.195 44.6871C441.887 44.5748 441.558 44.517 441.224 44.517C440.891 44.517 440.562 44.5748 440.254 44.6871C439.946 44.7994 439.667 44.9639 439.432 45.1714Z" fill="#263238"/>
<path d="M441.209 43.2058C440.681 43.2055 440.158 43.2972 439.671 43.4755C439.183 43.6538 438.74 43.9153 438.368 44.2448L439.038 44.8251C439.618 44.3215 440.4 44.0391 441.214 44.0391C442.029 44.0391 442.811 44.3215 443.39 44.8251L444.061 44.2448C443.687 43.9141 443.243 43.652 442.753 43.4737C442.264 43.2953 441.739 43.2043 441.209 43.2058Z" fill="#263238"/>
<path d="M437.304 43.2807L437.974 43.8704C438.402 43.4931 438.91 43.1938 439.47 42.9896C440.029 42.7854 440.629 42.6803 441.235 42.6803C441.841 42.6803 442.441 42.7854 443.001 42.9896C443.56 43.1938 444.068 43.4931 444.496 43.8704L445.167 43.2807C444.123 42.3645 442.709 41.8499 441.235 41.8499C439.761 41.8499 438.347 42.3645 437.304 43.2807Z" fill="#263238"/>
<path d="M463.085 85.3258C463.085 85.4569 423.589 85.5692 374.879 85.5692C326.169 85.5692 286.674 85.4569 286.674 85.3258C286.674 85.1948 326.159 85.0731 374.879 85.0731C423.6 85.0731 463.085 85.1761 463.085 85.3258Z" fill="#263238"/>
<path d="M353.823 346.198C353.101 345.861 352.498 345.358 352.077 344.742C351.657 344.126 351.435 343.421 351.435 342.702C351.435 341.984 351.657 341.279 352.077 340.663C352.498 340.047 353.101 339.544 353.823 339.206C354.587 338.856 355.439 338.679 356.302 338.692C357.161 338.678 358.01 338.855 358.77 339.206C359.485 339.541 360.084 340.039 360.505 340.648C360.824 341.108 361.033 341.621 361.118 342.155C361.204 342.689 361.164 343.233 361.002 343.753C360.839 344.273 360.557 344.758 360.174 345.179C359.79 345.599 359.312 345.946 358.77 346.198C358.013 346.557 357.162 346.738 356.302 346.723C355.438 346.737 354.584 346.557 353.823 346.198ZM357.717 344.879C358.132 344.666 358.474 344.359 358.706 343.989C358.954 343.598 359.079 343.155 359.068 342.707C359.079 342.256 358.954 341.811 358.706 341.415C358.471 341.05 358.129 340.747 357.717 340.536C357.283 340.327 356.796 340.217 356.302 340.217C355.807 340.217 355.32 340.327 354.887 340.536C354.474 340.747 354.133 341.05 353.897 341.415C353.654 341.812 353.53 342.257 353.535 342.707C353.53 343.155 353.654 343.596 353.897 343.989C354.13 344.359 354.472 344.666 354.887 344.879C355.32 345.088 355.807 345.197 356.302 345.197C356.796 345.197 357.283 345.088 357.717 344.879Z" fill="white"/>
<path d="M368.303 346.591L366.601 344.429H364.718V346.591H362.675V338.832H366.495C367.195 338.817 367.891 338.932 368.537 339.169C369.088 339.373 369.554 339.72 369.875 340.163C370.196 340.606 370.357 341.124 370.336 341.649C370.358 342.173 370.195 342.691 369.869 343.13C369.543 343.569 369.07 343.908 368.516 344.102L370.495 346.601L368.303 346.591ZM367.782 340.638C367.379 340.38 366.886 340.254 366.388 340.283H364.718V342.997H366.388C366.886 343.026 367.379 342.9 367.782 342.641C367.943 342.517 368.069 342.363 368.152 342.189C368.235 342.016 368.272 341.828 368.261 341.64C368.274 341.452 368.237 341.264 368.154 341.09C368.071 340.916 367.944 340.762 367.782 340.638Z" fill="white"/>
<path d="M371.953 338.832H375.964C376.843 338.816 377.713 338.98 378.507 339.309C379.215 339.612 379.81 340.086 380.22 340.676C380.624 341.297 380.837 342.001 380.837 342.716C380.837 343.432 380.624 344.136 380.22 344.757C379.812 345.347 379.217 345.818 378.507 346.114C377.715 346.451 376.844 346.618 375.964 346.601H371.953V338.832ZM375.858 345.122C376.636 345.16 377.4 344.928 377.986 344.476C378.492 343.998 378.773 343.369 378.773 342.716C378.773 342.063 378.492 341.435 377.986 340.957C377.401 340.502 376.637 340.267 375.858 340.301H373.996V345.122H375.858Z" fill="white"/>
<path d="M337.056 75.112C336.235 75.112 335.499 74.9787 334.848 74.712C334.197 74.4453 333.675 74.0507 333.28 73.528C332.896 73.0053 332.693 72.376 332.672 71.64H335.584C335.627 72.056 335.771 72.376 336.016 72.6C336.261 72.8133 336.581 72.92 336.976 72.92C337.381 72.92 337.701 72.8293 337.936 72.648C338.171 72.456 338.288 72.1947 338.288 71.864C338.288 71.5867 338.192 71.3573 338 71.176C337.819 70.9947 337.589 70.8453 337.312 70.728C337.045 70.6107 336.661 70.4773 336.16 70.328C335.435 70.104 334.843 69.88 334.384 69.656C333.925 69.432 333.531 69.1013 333.2 68.664C332.869 68.2267 332.704 67.656 332.704 66.952C332.704 65.9067 333.083 65.0907 333.84 64.504C334.597 63.9067 335.584 63.608 336.8 63.608C338.037 63.608 339.035 63.9067 339.792 64.504C340.549 65.0907 340.955 65.912 341.008 66.968H338.048C338.027 66.6053 337.893 66.3227 337.648 66.12C337.403 65.9067 337.088 65.8 336.704 65.8C336.373 65.8 336.107 65.8907 335.904 66.072C335.701 66.2427 335.6 66.4933 335.6 66.824C335.6 67.1867 335.771 67.4693 336.112 67.672C336.453 67.8747 336.987 68.0933 337.712 68.328C338.437 68.5733 339.024 68.808 339.472 69.032C339.931 69.256 340.325 69.5813 340.656 70.008C340.987 70.4347 341.152 70.984 341.152 71.656C341.152 72.296 340.987 72.8773 340.656 73.4C340.336 73.9227 339.867 74.3387 339.248 74.648C338.629 74.9573 337.899 75.112 337.056 75.112ZM347.14 75.128C346.265 75.128 345.476 74.9413 344.772 74.568C344.078 74.1947 343.529 73.6613 343.124 72.968C342.729 72.2747 342.532 71.464 342.532 70.536C342.532 69.6187 342.734 68.8133 343.14 68.12C343.545 67.416 344.1 66.8773 344.804 66.504C345.508 66.1307 346.297 65.944 347.172 65.944C348.046 65.944 348.836 66.1307 349.54 66.504C350.244 66.8773 350.798 67.416 351.204 68.12C351.609 68.8133 351.812 69.6187 351.812 70.536C351.812 71.4533 351.604 72.264 351.188 72.968C350.782 73.6613 350.222 74.1947 349.508 74.568C348.804 74.9413 348.014 75.128 347.14 75.128ZM347.14 72.76C347.662 72.76 348.105 72.568 348.468 72.184C348.841 71.8 349.028 71.2507 349.028 70.536C349.028 69.8213 348.846 69.272 348.484 68.888C348.132 68.504 347.694 68.312 347.172 68.312C346.638 68.312 346.196 68.504 345.844 68.888C345.492 69.2613 345.316 69.8107 345.316 70.536C345.316 71.2507 345.486 71.8 345.828 72.184C346.18 72.568 346.617 72.76 347.14 72.76ZM366.766 63.768L362.878 71.288V75H360.142V71.288L356.254 63.768H359.358L361.534 68.472L363.694 63.768H366.766ZM376.924 66.072V75H374.188V73.784C373.911 74.1787 373.532 74.4987 373.052 74.744C372.583 74.9787 372.06 75.096 371.484 75.096C370.802 75.096 370.199 74.9467 369.676 74.648C369.154 74.3387 368.748 73.896 368.46 73.32C368.172 72.744 368.028 72.0667 368.028 71.288V66.072H370.748V70.92C370.748 71.5173 370.903 71.9813 371.212 72.312C371.522 72.6427 371.938 72.808 372.46 72.808C372.994 72.808 373.415 72.6427 373.724 72.312C374.034 71.9813 374.188 71.5173 374.188 70.92V66.072H376.924ZM390.522 65.976C391.631 65.976 392.511 66.312 393.162 66.984C393.823 67.656 394.154 68.5893 394.154 69.784V75H391.434V70.152C391.434 69.576 391.279 69.1333 390.97 68.824C390.671 68.504 390.255 68.344 389.722 68.344C389.188 68.344 388.767 68.504 388.458 68.824C388.159 69.1333 388.01 69.576 388.01 70.152V75H385.29V70.152C385.29 69.576 385.135 69.1333 384.826 68.824C384.527 68.504 384.111 68.344 383.578 68.344C383.044 68.344 382.623 68.504 382.314 68.824C382.015 69.1333 381.866 69.576 381.866 70.152V75H379.13V66.072H381.866V67.192C382.143 66.8187 382.506 66.5253 382.954 66.312C383.402 66.088 383.908 65.976 384.474 65.976C385.146 65.976 385.743 66.12 386.266 66.408C386.799 66.696 387.215 67.1067 387.514 67.64C387.823 67.1493 388.244 66.7493 388.778 66.44C389.311 66.1307 389.892 65.976 390.522 65.976ZM407.699 65.976C408.808 65.976 409.688 66.312 410.339 66.984C411 67.656 411.331 68.5893 411.331 69.784V75H408.611V70.152C408.611 69.576 408.456 69.1333 408.147 68.824C407.848 68.504 407.432 68.344 406.899 68.344C406.366 68.344 405.944 68.504 405.635 68.824C405.336 69.1333 405.187 69.576 405.187 70.152V75H402.467V70.152C402.467 69.576 402.312 69.1333 402.003 68.824C401.704 68.504 401.288 68.344 400.755 68.344C400.222 68.344 399.8 68.504 399.491 68.824C399.192 69.1333 399.043 69.576 399.043 70.152V75H396.307V66.072H399.043V67.192C399.32 66.8187 399.683 66.5253 400.131 66.312C400.579 66.088 401.086 65.976 401.651 65.976C402.323 65.976 402.92 66.12 403.443 66.408C403.976 66.696 404.392 67.1067 404.691 67.64C405 67.1493 405.422 66.7493 405.955 66.44C406.488 66.1307 407.07 65.976 407.699 65.976ZM422.605 66.072L417.005 79.24H414.061L416.109 74.696L412.477 66.072H415.533L417.597 71.656L419.645 66.072H422.605Z" fill="#8BAA36"/>
</svg>
