<svg width="100%" height="100%" viewBox="0 0 175 53" fill="none" xmlns="http://www.w3.org/2000/svg">
<path d="M59.9497 0.840332H0.3125V52.2361H59.9497V0.840332Z" fill="#EBEBEB"/>
<path d="M0.312206 0.840196H1.15278H3.59996H13.3036L49.586 0.765314L174.287 0.662354H174.553V0.896354C174.553 17.0985 174.553 34.4239 174.553 52.2828V52.5261H174.276L0.258987 52.4419H0.078125V52.2079C0.078125 36.0712 0.152611 23.1919 0.184531 14.3748C0.184531 9.97556 0.184531 6.58723 0.184531 4.27531C0.184531 3.14275 0.184531 2.27227 0.184531 1.68259C0.184531 1.09291 0.184531 0.81211 0.184531 0.81211C0.184531 0.81211 0.184531 1.12099 0.184531 1.74811C0.184531 2.37523 0.184531 3.22699 0.184531 4.37828C0.184531 6.6902 0.184531 10.0972 0.184531 14.5058C0.184531 23.3229 0.248378 36.1461 0.290938 52.2453L0.0993933 52.0768L174.117 52.002L173.84 52.2453V0.840196L174.117 1.0742L49.6286 0.971235L13.2717 0.896354H3.52547H0.993149L0.312206 0.840196Z" fill="#263238"/>
<path d="M43.2236 25.6443L41.2871 34.0028L47.5966 33.8811L43.2236 25.6443Z" fill="#8BAA36"/>
<g opacity="0.3">
<path d="M43.2236 25.6443L41.2871 34.0028L47.5966 33.8811L43.2236 25.6443Z" fill="black"/>
</g>
<path d="M16.1768 25.9158L18.1133 34.2742L11.8037 34.1432L16.1768 25.9158Z" fill="#8BAA36"/>
<g opacity="0.3">
<path d="M16.1768 25.9158L18.1133 34.2742L11.8037 34.1432L16.1768 25.9158Z" fill="black"/>
</g>
<path d="M32.3275 27.46C32.123 27.4602 31.9262 27.3914 31.7777 27.2678C31.6292 27.1441 31.5404 26.975 31.5295 26.7954L30.6144 7.21429C30.6086 7.11943 30.625 7.02454 30.6626 6.9355C30.7002 6.84646 30.7582 6.76517 30.8331 6.69669C30.9079 6.62822 30.998 6.57402 31.0976 6.53747C31.1973 6.50091 31.3045 6.48279 31.4124 6.48421H32.4764C32.6881 6.48421 32.891 6.55817 33.0407 6.68982C33.1903 6.82147 33.2744 7.00003 33.2744 7.18621L33.0829 26.7673C33.0805 26.9456 33.0011 27.1163 32.8608 27.245C32.7205 27.3736 32.5298 27.4505 32.3275 27.46Z" fill="#AFE814"/>
<path d="M33.339 8.9834H30.7109V10.6869H33.339V8.9834Z" fill="#8BAA36"/>
<path d="M34.1365 27.535C33.9434 27.4735 33.7852 27.3481 33.6958 27.1855C33.6063 27.0229 33.5927 26.8359 33.6577 26.6646L40.4353 8.00072C40.4658 7.90625 40.5187 7.81856 40.5905 7.74345C40.6624 7.66834 40.7516 7.60752 40.8522 7.56504C40.9528 7.52255 41.0625 7.49937 41.1741 7.49702C41.2857 7.49468 41.3965 7.51323 41.4993 7.55144L42.5633 7.8884C42.666 7.92038 42.7601 7.9705 42.8399 8.03568C42.9197 8.10086 42.9835 8.17972 43.0273 8.2674C43.0712 8.35508 43.0942 8.44973 43.0949 8.54552C43.0956 8.64132 43.0741 8.73622 43.0315 8.8244L35.2111 27.1513C35.173 27.2411 35.1141 27.3231 35.0381 27.3918C34.9621 27.4606 34.8707 27.5148 34.7696 27.5508C34.6686 27.5869 34.5601 27.6041 34.4512 27.6014C34.3422 27.5987 34.235 27.5761 34.1365 27.535Z" fill="#AFE814"/>
<path d="M39.8035 9.67446L39.1387 11.2744L41.607 12.0682L42.2718 10.4682L39.8035 9.67446Z" fill="#8BAA36"/>
<path d="M41.7125 22.5648C41.3029 22.0149 40.7644 21.5484 40.1332 21.1965C39.5019 20.8446 38.7925 20.6154 38.0524 20.5243C36.5902 20.3708 35.1092 20.6021 33.7964 21.1888C32.7324 21.6194 31.6684 22.2091 30.6044 22.0125C29.8231 21.7906 29.0997 21.4343 28.4764 20.9642C27.6556 20.4714 26.7309 20.1281 25.757 19.9545C24.783 19.7809 23.7794 19.7805 22.8053 19.9533C20.7962 20.3654 19.0395 21.4325 17.8896 22.9392C17.4137 23.4951 17.0814 24.1358 16.916 24.8164C16.7506 25.497 16.7561 26.2012 16.932 26.8797L42.0637 26.7955C42.3814 26.1145 42.5151 25.3779 42.4541 24.6438C42.3932 23.9096 42.1393 23.1979 41.7125 22.5648Z" fill="white"/>
<path d="M41.0424 26.2993C41.0903 25.9386 41.0903 25.5742 41.0424 25.2136C40.9549 24.2189 40.4506 23.2882 39.6273 22.6021C39.0514 22.1468 38.3236 21.8677 37.5525 21.8065C36.6673 21.7358 35.7755 21.8446 34.9457 22.1247C34.0625 22.3868 33.2326 22.8923 32.2537 23.2386C31.7486 23.4229 31.2042 23.5091 30.6577 23.4913C30.1023 23.4565 29.5601 23.3261 29.0617 23.1076C28.0509 22.6864 27.1998 22.0967 26.2847 21.6848C25.4207 21.2755 24.4449 21.0844 23.4651 21.1326C22.6289 21.1768 21.814 21.3826 21.0784 21.7353C20.3429 22.088 19.7046 22.5788 19.2091 23.1731C18.538 23.9742 18.0832 24.8993 17.8791 25.8781C17.8047 26.2244 17.7834 26.4959 17.7621 26.6831C17.7759 26.7763 17.7759 26.8707 17.7621 26.9639C17.7338 26.5979 17.7552 26.2303 17.8259 25.8687C17.9933 24.8556 18.4348 23.8926 19.1133 23.0607C19.6139 22.446 20.2625 21.9359 21.0129 21.567C21.7633 21.1981 22.597 20.9795 23.4545 20.9267C24.4733 20.8748 25.4888 21.069 26.3911 21.4883C27.3275 21.9095 28.1786 22.4898 29.1575 22.9016C29.6164 23.1201 30.1251 23.2453 30.6462 23.2679C31.1673 23.2906 31.6875 23.2102 32.1686 23.0327C33.1156 22.6957 33.9562 22.1996 34.8818 21.9282C35.7397 21.6425 36.6606 21.5336 37.5738 21.6099C38.3671 21.6969 39.1105 21.9977 39.7018 22.4711C40.5441 23.1818 41.0432 24.1504 41.0956 25.1761C41.1594 25.5501 41.1413 25.9313 41.0424 26.2993Z" fill="#263238"/>
<path d="M39.8503 26.5616C39.8766 26.25 39.8766 25.9372 39.8503 25.6256C39.8137 25.1955 39.6711 24.7775 39.4322 24.4009C39.1933 24.0243 38.8639 23.6979 38.467 23.4447C37.9146 23.1081 37.2394 22.9646 36.5731 23.0422C35.81 23.1783 35.0861 23.449 34.4451 23.8378C33.7226 24.2847 32.9306 24.6378 32.0937 24.8862C31.1487 25.0762 30.1591 24.9908 29.2741 24.6428C27.4653 24.0157 26.0076 22.9486 24.3797 22.6678C23.6676 22.5393 22.93 22.5733 22.2371 22.7666C21.5443 22.96 20.9192 23.3062 20.4216 23.7723C19.7471 24.4099 19.2804 25.1956 19.0703 26.0468C18.9214 26.6458 18.9427 26.9828 18.9108 26.9828C18.8931 26.6693 18.9181 26.3551 18.9852 26.0468C19.1647 25.1681 19.6262 24.3529 20.3152 23.6974C20.824 23.2032 21.4701 22.8337 22.1901 22.6253C22.9101 22.4169 23.6793 22.3767 24.4223 22.5087C26.114 22.7989 27.6142 23.8753 29.3592 24.4837C30.2021 24.8099 31.1412 24.8918 32.0405 24.7177C32.857 24.4778 33.6308 24.1375 34.3388 23.7068C35.0029 23.3093 35.7524 23.0353 36.5412 22.9018C37.2524 22.8164 37.9735 22.9775 38.5522 23.3511C38.9619 23.619 39.2986 23.9638 39.5378 24.3605C39.7771 24.7571 39.9129 25.1957 39.9354 25.6443C39.9718 25.9521 39.9429 26.2631 39.8503 26.5616Z" fill="#263238"/>
<path d="M38.2965 26.5709C38.318 26.3183 38.2706 26.0648 38.1582 25.8315C38.0179 25.5681 37.7968 25.3445 37.5198 25.1856C37.1343 24.998 36.685 24.9382 36.2536 25.0172C35.2535 25.1482 34.3704 25.9532 33.0616 26.3369C31.6209 26.6397 30.1036 26.4595 28.8056 25.8315C27.5417 25.2283 26.2166 24.73 24.8476 24.3432C24.295 24.1961 23.7131 24.1543 23.1407 24.2204C22.5683 24.2866 22.0185 24.4593 21.5279 24.727C20.8843 25.1228 20.4147 25.7011 20.1979 26.365C20.1319 26.6111 20.0892 26.8615 20.0702 27.1138C20.0118 26.8605 20.0118 26.5995 20.0702 26.3463C20.2629 25.6473 20.7349 25.0327 21.4002 24.6147C21.9053 24.324 22.4765 24.134 23.0739 24.058C23.6712 23.982 24.2802 24.0219 24.8582 24.1748C26.2417 24.5475 27.5786 25.043 28.8482 25.6536C30.0992 26.2624 31.5608 26.4456 32.9552 26.1684C34.1788 25.8034 35.0832 24.9984 36.1472 24.8861C36.6111 24.8048 37.0928 24.8782 37.4985 25.092C37.7922 25.2678 38.0215 25.515 38.1582 25.8034C38.2447 25.9835 38.2777 26.18 38.254 26.3744C38.2794 26.4376 38.2937 26.5039 38.2965 26.5709Z" fill="#263238"/>
<path d="M16.1338 25.8408C16.1338 26.4118 20.7515 47.2752 20.7515 47.2752L38.8395 47.0132L43.202 25.6443L16.1338 25.8408Z" fill="#8BAA36"/>
<path d="M16.1338 25.8409H16.6445H18.166L23.8478 25.7753L43.2232 25.5881H43.3935L43.319 25.7285L40.5207 30.6238C39.712 32.0278 38.9282 33.3975 38.1692 34.7329V34.7797H38.0948H21.2197L16.2402 25.9345L21.3687 34.7141L21.2942 34.6673H38.1692L38.0735 34.7141L40.4249 30.6144C41.3825 28.939 42.3188 27.2917 43.2232 25.7192L43.3296 25.8596L16.1338 25.8409Z" fill="#263238"/>
<g opacity="0.3">
<path d="M21.6768 34.6486L22.1343 35.5191H38.5518L42.7865 26.3931L38.0624 34.6486H21.6768Z" fill="black"/>
</g>
<path d="M33.3918 43.4285C31.2666 43.5643 29.133 43.5643 27.0078 43.4285C29.1335 43.3051 31.2661 43.3051 33.3918 43.4285Z" fill="white"/>
<path d="M32.2324 40.1053C32.2324 40.1053 32.2324 39.9462 32.126 39.6654C32.0435 39.3674 31.8747 39.0932 31.6362 38.8695C31.3976 38.6459 31.0973 38.4803 30.7645 38.3888C30.4317 38.2974 30.0777 38.2832 29.7368 38.3477C29.396 38.4122 29.0798 38.5532 28.8192 38.7569C28.5585 38.9606 28.3622 39.2202 28.2493 39.5104C28.1363 39.8005 28.1106 40.1115 28.1747 40.413C28.2387 40.7145 28.3903 40.9963 28.6147 41.231C28.8391 41.4658 29.1287 41.6455 29.4554 41.7526C29.7694 41.8584 30.1089 41.8924 30.4419 41.8515C30.775 41.8106 31.0908 41.6961 31.3599 41.5186C31.7247 41.2887 31.9938 40.9599 32.126 40.5826C32.2111 40.3112 32.2112 40.1427 32.2324 40.1427C32.265 40.2943 32.265 40.4498 32.2324 40.6014C32.128 41.023 31.8611 41.4 31.477 41.6684C31.1904 41.8689 30.8498 42.001 30.4882 42.0518C30.1266 42.1026 29.7562 42.0705 29.4128 41.9586C28.9822 41.8292 28.6083 41.5846 28.3436 41.259C28.0788 40.9333 27.9365 40.543 27.9365 40.1427C27.9365 39.7424 28.0788 39.3521 28.3436 39.0265C28.6083 38.7009 28.9822 38.4563 29.4128 38.3269C29.7571 38.2162 30.128 38.1856 30.4896 38.2381C30.8513 38.2906 31.1914 38.4243 31.477 38.6264C31.8645 38.8882 32.1325 39.2634 32.2324 39.6841C32.26 39.8234 32.26 39.9659 32.2324 40.1053Z" fill="white"/>
<path d="M21.6874 18.4558C21.7967 18.4242 21.896 18.3705 21.9773 18.2989C22.0586 18.2274 22.1197 18.1401 22.1556 18.0439C22.2535 17.8243 22.2535 17.5803 22.1556 17.3607C22.0026 17.074 21.8017 16.809 21.5598 16.5744C21.0658 16.0241 20.8331 15.3269 20.9104 14.6289C20.9878 13.931 21.3692 13.2865 21.9747 12.8304C22.4003 12.4841 22.9217 12.1378 22.9855 11.623C22.9794 11.3676 22.9117 11.1162 22.787 10.8855C22.6623 10.6547 22.4833 10.4499 22.262 10.2845C21.8413 9.93414 21.4826 9.5303 21.198 9.08643C20.9813 8.69508 20.8591 8.26853 20.8389 7.8336C20.8188 7.39866 20.9012 6.96478 21.0809 6.55923C21.3277 6.01842 21.7448 5.55082 22.2833 5.21139C22.4751 5.08022 22.691 4.97892 22.9217 4.91187C22.9217 4.91187 22.6982 5.01482 22.3365 5.26754C21.8525 5.62226 21.4851 6.08439 21.2725 6.60602C21.1113 6.99344 21.0414 7.40564 21.067 7.81757C21.0926 8.2295 21.2132 8.63254 21.4214 9.00218C21.7132 9.43062 22.0713 9.82125 22.4854 10.1628C22.7311 10.3441 22.9289 10.5703 23.0649 10.8257C23.2009 11.0812 23.2718 11.3596 23.2728 11.6417C23.1084 12.1817 22.7313 12.6527 22.2088 12.9708C21.6342 13.3944 21.2673 13.9964 21.184 14.6518C21.1008 15.3071 21.3078 15.9655 21.7619 16.4902C22.009 16.7386 22.2101 17.0198 22.3578 17.3232C22.4656 17.5638 22.4656 17.8314 22.3578 18.072C22.0705 18.5119 21.6874 18.5119 21.6874 18.4558Z" fill="#263238"/>
<path d="M24.5283 18.4558C24.6375 18.4242 24.7368 18.3705 24.8181 18.2989C24.8994 18.2274 24.9605 18.1401 24.9964 18.0439C25.0943 17.8243 25.0943 17.5803 24.9964 17.3607C24.8434 17.074 24.6425 16.809 24.4005 16.5744C23.9066 16.0241 23.6739 15.3269 23.7513 14.6289C23.8286 13.931 24.21 13.2865 24.8155 12.8304C25.2411 12.4841 25.7625 12.1378 25.8263 11.623C25.8202 11.3676 25.7525 11.1162 25.6278 10.8855C25.5031 10.6547 25.3241 10.4499 25.1028 10.2845C24.6821 9.93414 24.3234 9.5303 24.0388 9.08643C23.8221 8.69508 23.6999 8.26853 23.6797 7.8336C23.6596 7.39866 23.742 6.96478 23.9218 6.55923C24.1685 6.01842 24.5856 5.55082 25.1241 5.21139C25.3159 5.08022 25.5318 4.97892 25.7625 4.91187C25.7625 4.91187 25.5284 5.01482 25.1773 5.26754C24.6933 5.62226 24.3259 6.08439 24.1133 6.60602C23.9496 6.99299 23.8784 7.40549 23.904 7.81776C23.9296 8.23002 24.0516 8.63322 24.2623 9.00218C24.554 9.43062 24.9121 9.82125 25.3263 10.1628C25.572 10.3441 25.7697 10.5703 25.9057 10.8257C26.0417 11.0812 26.1126 11.3596 26.1136 11.6417C25.9492 12.1817 25.5721 12.6527 25.0496 12.9708C24.6278 13.285 24.3145 13.6968 24.1452 14.1595C24.0023 14.5517 23.9693 14.9684 24.049 15.3742C24.1286 15.78 24.3186 16.1629 24.6027 16.4902C24.8498 16.7386 25.0509 17.0198 25.1985 17.3232C25.3064 17.5638 25.3064 17.8314 25.1985 18.072C24.8793 18.5119 24.4963 18.5119 24.5283 18.4558Z" fill="#263238"/>
<path d="M106.041 10.0598H71.5146V14.1969H106.041V10.0598Z" fill="#8BAA36"/>
<path d="M162.582 20.2622H71.5146V22.9111H162.582V20.2622Z" fill="#E0E0E0"/>
<path d="M162.582 25.5693H71.5146V28.2182H162.582V25.5693Z" fill="#E0E0E0"/>
<path d="M138.377 41.2099H136.653V42.6981H135.376V41.2099H133.652V40.1522H135.376V38.6733H136.653V40.1522H138.377V41.2099Z" fill="#8BAA36"/>
<path d="M150.145 42.5859V43.7279H144.91V42.7919L147.581 40.5642C147.81 40.3915 148.004 40.1858 148.155 39.9558C148.248 39.7962 148.299 39.6202 148.304 39.441C148.31 39.334 148.288 39.2273 148.238 39.1296C148.188 39.032 148.112 38.9462 148.017 38.8794C147.777 38.7335 147.488 38.6642 147.198 38.6828C146.914 38.679 146.634 38.7335 146.378 38.8419C146.13 38.9401 145.917 39.0953 145.761 39.2912L144.591 38.636C144.867 38.2715 145.254 37.9828 145.708 37.803C146.221 37.5935 146.781 37.491 147.347 37.5035C147.809 37.4972 148.268 37.5704 148.698 37.7187C149.055 37.8522 149.364 38.069 149.592 38.3459C149.811 38.6193 149.927 38.947 149.921 39.2819C149.923 39.6062 149.839 39.9265 149.677 40.2179C149.445 40.5963 149.135 40.9329 148.762 41.21L147.166 42.5391L150.145 42.5859Z" fill="#8BAA36"/>
<path d="M156.539 40.7327H159.348V41.8278H156.539V40.7327Z" fill="#8BAA36"/>
<path d="M162.583 47.7338C162.583 47.7338 162.583 47.6308 162.583 47.4623C162.583 47.2938 162.583 47.0037 162.583 46.7042C162.583 46.0022 162.583 45.0475 162.529 43.8307C162.529 41.3222 162.466 37.7747 162.423 33.4036L162.625 33.5815L128.226 33.647L128.503 33.4036V40.7793C128.503 43.1754 128.503 45.4593 128.503 47.7244L128.237 47.4904L152.868 47.6027L160.029 47.6589H161.955H162.636C162.43 47.672 162.224 47.672 162.019 47.6589H160.146L153.049 47.715L128.237 47.8274H127.971V47.6027C127.971 45.3751 127.971 43.0538 127.971 40.6576V33.2819L128.247 33.0386L162.646 33.1041H162.849V33.2819C162.849 37.6998 162.774 41.2847 162.742 43.8119C162.742 45.01 162.742 45.9647 162.689 46.6199V47.35C162.701 47.4847 162.664 47.6193 162.583 47.7338Z" fill="#263238"/>
<path d="M78.4631 43.1567C77.8578 43.6306 77.0904 43.9138 76.2819 43.9617V45.2066H75.0157V43.9991C74.4116 43.9712 73.8142 43.8736 73.2389 43.709C72.7487 43.5805 72.2878 43.3778 71.877 43.1099L72.5685 41.7527C72.9119 41.9717 73.2878 42.148 73.6857 42.2769C74.1142 42.4149 74.5613 42.503 75.0157 42.539V40.667C74.4983 40.5682 73.9925 40.4272 73.5049 40.2458C73.0898 40.1015 72.7235 39.8663 72.4409 39.5625C72.1526 39.2194 72.0062 38.8 72.0259 38.3738C72.0219 38.0778 72.088 37.7843 72.2198 37.512C72.3517 37.2397 72.5466 36.9944 72.792 36.7919C73.4016 36.3123 74.178 36.0286 74.9945 35.987V34.7515H76.2606V35.9589C77.1622 36.001 78.0386 36.2355 78.8142 36.6422L78.1865 38.0087C77.5965 37.7012 76.941 37.5037 76.2606 37.4284V39.3004C76.77 39.3946 77.2686 39.5293 77.7502 39.7029C78.1639 39.8449 78.53 40.0767 78.8142 40.3768C79.1025 40.7199 79.2489 41.1393 79.2292 41.5655C79.2367 41.8633 79.1723 42.1592 79.0402 42.4334C78.9082 42.7077 78.7114 42.9543 78.4631 43.1567ZM74.3241 38.7575C74.5291 38.8978 74.7644 38.9997 75.0157 39.0571V37.4846C74.75 37.527 74.5031 37.634 74.3029 37.7935C74.1592 37.9315 74.0795 38.1118 74.0794 38.2989C74.0781 38.3866 74.0995 38.4735 74.1419 38.553C74.1843 38.6324 74.2466 38.7023 74.3241 38.7575ZM76.9522 42.2114C77.0278 42.1512 77.0878 42.0774 77.1281 41.995C77.1685 41.9127 77.1884 41.8237 77.1863 41.734C77.1897 41.6469 77.1703 41.5603 77.1297 41.4808C77.0892 41.4013 77.0284 41.331 76.9522 41.2754C76.7516 41.138 76.5245 41.0334 76.2819 40.9665V42.5015C76.5308 42.4594 76.7624 42.3592 76.9522 42.2114Z" fill="#E0E0E0"/>
<path d="M88.0069 43.1567C87.3988 43.6326 86.6273 43.9159 85.8151 43.9617V45.2066H84.5596V43.9991C83.9553 43.9721 83.3578 43.8745 82.7827 43.709C82.2903 43.5784 81.8263 43.3759 81.4102 43.1099L82.1124 41.7527C82.4392 41.968 82.797 42.1442 83.1764 42.2769C83.6049 42.4149 84.052 42.503 84.5064 42.539V40.667C83.9859 40.5669 83.4767 40.4259 82.9849 40.2458C82.5705 40.1005 82.2045 39.8654 81.9209 39.5625C81.6326 39.2194 81.4862 38.8 81.5059 38.3738C81.5019 38.0778 81.5679 37.7843 81.6998 37.512C81.8317 37.2397 82.0266 36.9944 82.272 36.7919C82.8816 36.3123 83.658 36.0286 84.4745 35.987V34.7515H85.73V35.9589C86.6352 35.9995 87.5155 36.2341 88.2942 36.6422L87.6665 38.0087C87.0735 37.6997 86.4141 37.5021 85.73 37.4284V39.3004C86.2432 39.3934 86.7454 39.5281 87.2302 39.7029C87.6424 39.8473 88.0078 40.0788 88.2942 40.3768C88.5825 40.7199 88.7289 41.1393 88.7092 41.5655C88.7249 41.8592 88.6705 42.1525 88.5495 42.4265C88.4286 42.7006 88.2438 42.9493 88.0069 43.1567ZM83.868 38.7575C84.0729 38.8978 84.3083 38.9997 84.5596 39.0571V37.4846C84.2939 37.527 84.0469 37.634 83.8467 37.7935C83.7031 37.9315 83.6233 38.1118 83.6233 38.2989C83.6195 38.387 83.6398 38.4746 83.6823 38.5544C83.7249 38.6342 83.7886 38.7038 83.868 38.7575ZM86.4961 42.2114C86.5716 42.1512 86.6316 42.0774 86.672 41.995C86.7124 41.9127 86.7322 41.8237 86.7302 41.734C86.7312 41.6472 86.7109 41.5612 86.6704 41.482C86.63 41.4029 86.5705 41.3323 86.4961 41.2754C86.2922 41.137 86.0615 41.0324 85.8151 40.9665V42.5015C86.068 42.4614 86.3035 42.3611 86.4961 42.2114Z" fill="#E0E0E0"/>
<path d="M59.9915 52.7134C59.8319 52.7134 59.7148 41.1725 59.7148 26.936C59.7148 12.6994 59.8319 1.14917 59.9915 1.14917C60.1511 1.14917 60.2681 12.6901 60.2681 26.936C60.2681 41.1819 60.1617 52.7134 59.9915 52.7134Z" fill="#263238"/>
</svg>
