<svg width="100%" height="100%" viewBox="0 0 175 53" fill="none" xmlns="http://www.w3.org/2000/svg">
<path d="M0.311629 0.543077H1.1522H3.64195H13.3456L49.628 0.477564L174.329 0.365234H174.595V0.599234C174.595 16.8014 174.595 34.1268 174.595 51.9857V52.229H174.318L0.300979 52.1448H0.120117V51.9857C0.120117 35.849 0.194571 22.9696 0.226491 14.1525C0.226491 9.75333 0.226491 6.36501 0.226491 4.06245C0.226491 2.92053 0.226491 2.05939 0.226491 1.46035C0.226491 0.861313 0.226491 0.58988 0.226491 0.58988C0.226491 0.58988 0.226491 0.89876 0.226491 1.52588C0.226491 2.153 0.226491 2.9954 0.226491 4.14668C0.226491 6.4586 0.226491 9.86564 0.226491 14.2742C0.226491 23.0913 0.290338 35.9239 0.332898 52.0137L0.141385 51.8546L174.159 51.7704L173.882 52.0137V0.543077L174.159 0.777077L49.6706 0.674116L13.3137 0.608604H3.56747H1.03514L0.311629 0.543077Z" fill="#263238"/>
<path d="M106.041 9.7627H71.5146V13.8998H106.041V9.7627Z" fill="#8BAA36"/>
<path d="M162.582 19.9744H71.5146V22.6232H162.582V19.9744Z" fill="#E0E0E0"/>
<path d="M162.582 25.2722H71.5146V27.9211H162.582V25.2722Z" fill="#E0E0E0"/>
<path d="M138.377 40.9221H136.653V42.401H135.376V40.9221H133.652V39.8551H135.376V38.3762H136.653V39.8551H138.377V40.9221Z" fill="#8BAA36"/>
<path d="M147.644 37.3279V43.4306H146.037V38.4604H144.654V37.3279H147.644Z" fill="#8BAA36"/>
<path d="M154.581 40.4355H157.39V41.5307H154.581V40.4355Z" fill="#8BAA36"/>
<path d="M162.583 47.4367C162.583 47.4367 162.583 47.3337 162.583 47.1653C162.583 46.9968 162.583 46.716 162.583 46.4071C162.583 45.7051 162.583 44.7504 162.529 43.5336C162.529 41.0251 162.466 37.4777 162.423 33.1066L162.625 33.2844L128.226 33.3499L128.503 33.1066V40.4916C128.503 42.8878 128.503 45.1716 128.503 47.4273L128.237 47.1933L152.868 47.3057L160.029 47.3712H161.955H162.636C162.43 47.3843 162.224 47.3843 162.019 47.3712H160.146L153.049 47.4367L128.237 47.5397H127.971V47.3057C127.971 45.0874 127.971 42.7661 127.971 40.3699V33.1159L128.247 32.8726L162.646 32.9381H162.849V33.1159C162.849 37.5338 162.774 41.1187 162.742 43.6553C162.742 44.8533 162.742 45.7987 162.689 46.4633V47.1933C162.673 47.2801 162.637 47.3631 162.583 47.4367Z" fill="#263238"/>
<path d="M78.4631 42.8598C77.8578 43.3337 77.0904 43.6169 76.2819 43.6647V44.9096H75.0157V43.7022C74.411 43.6788 73.8129 43.5812 73.2389 43.412C72.7487 43.2836 72.2878 43.0809 71.877 42.813L72.5685 41.4558C72.9092 41.6785 73.2857 41.8552 73.6857 41.9799C74.1138 42.1209 74.5609 42.2121 75.0157 42.2514V40.3794C74.5009 40.2722 73.9959 40.1314 73.5049 39.9582C73.0918 39.8108 72.7263 39.5761 72.4409 39.2749C72.1503 38.9293 72.0037 38.5062 72.0259 38.0768C72.0219 37.7808 72.088 37.4873 72.2198 37.215C72.3517 36.9427 72.5466 36.6975 72.792 36.495C73.4016 36.0154 74.178 35.7316 74.9945 35.69V34.52H76.2606V35.7368C77.1613 35.7761 78.0377 36.0074 78.8142 36.4107L78.1865 37.7773C77.5965 37.4697 76.941 37.2722 76.2606 37.197V39.069C76.7687 39.1676 77.2668 39.3022 77.7502 39.4715C78.1646 39.6168 78.5306 39.8518 78.8142 40.1547C79.1049 40.4932 79.2517 40.9104 79.2292 41.3341C79.2269 41.621 79.1578 41.9044 79.026 42.1668C78.8943 42.4293 78.7026 42.6651 78.4631 42.8598ZM74.3241 38.4606C74.5264 38.6045 74.7627 38.7069 75.0157 38.7601V37.1876C74.7475 37.2291 74.4993 37.3399 74.3029 37.5059C74.1554 37.6418 74.0751 37.8235 74.0794 38.0113C74.0782 38.0977 74.0996 38.1832 74.142 38.2611C74.1845 38.339 74.2468 38.4073 74.3241 38.4606ZM76.9522 41.9144C77.0278 41.8542 77.0878 41.7804 77.1281 41.6981C77.1685 41.6157 77.1884 41.5267 77.1863 41.4371C77.1897 41.35 77.1703 41.2633 77.1297 41.1838C77.0892 41.1044 77.0284 41.0341 76.9522 40.9784C76.7484 40.8454 76.5223 40.7412 76.2819 40.6695V42.2046C76.5324 42.1667 76.7652 42.0659 76.9522 41.9144Z" fill="#E0E0E0"/>
<path d="M59.9915 52.4163C59.8319 52.4163 59.7148 40.8754 59.7148 26.6389C59.7148 12.4023 59.8532 0.823975 59.9915 0.823975C60.1298 0.823975 60.2681 12.3649 60.2681 26.6108C60.2681 40.8567 60.1617 52.4163 59.9915 52.4163Z" fill="#263238"/>
<path d="M18.4111 18.9355L20.6242 44.8159C20.6587 45.2043 20.8567 45.5673 21.1794 45.8339C21.5022 46.1006 21.9265 46.2516 22.3692 46.2574L34.3286 46.3416C34.7734 46.3432 35.2028 46.1979 35.5318 45.9345C35.8608 45.6711 36.0655 45.3087 36.1054 44.9189L38.5313 19.2257L18.4111 18.9355Z" fill="#8BAA36"/>
<g opacity="0.3">
<path d="M37.4878 30.2612C31.4053 30.4779 25.314 30.406 19.2402 30.0459L19.8148 37.8334C19.8148 37.8334 30.4548 39.434 36.8388 37.4777L37.4878 30.2612Z" fill="black"/>
</g>
<g opacity="0.3">
<path d="M38.3927 20.639C34.26 22.0984 29.7958 22.6851 25.3587 22.3518C19.5705 22.0336 18.5491 20.7981 18.5491 20.7981L18.4746 19.6375H38.4884L38.3927 20.639Z" fill="black"/>
</g>
<path d="M39.3715 17.8309L39.8396 19.6187C39.8396 19.6187 37.552 21.2848 28.1995 21.1725C19.8258 21.0789 17.7936 19.7123 17.7936 19.7123L17.1445 19.2256L17.7191 17.5408L39.3715 17.8309Z" fill="#E0E0E0"/>
<path d="M39.3716 17.8309H37.7011H33.1047L17.7086 17.6437H17.7724L17.2085 19.3285V19.263L17.8894 19.7684C18.1521 19.9081 18.4302 20.0242 18.7194 20.1148L19.1556 20.2458L19.6025 20.3675C20.1877 20.5079 20.7835 20.6202 21.3794 20.7138C22.5339 20.8932 23.6991 21.0151 24.8693 21.0788C26.9936 21.2141 29.1247 21.2485 31.2533 21.1818C32.9812 21.1453 34.7031 20.9888 36.403 20.7138C37.0763 20.6049 37.7409 20.4579 38.3927 20.2739C38.9114 20.1393 39.4057 19.9408 39.861 19.6842L39.5418 18.3644L39.4567 18.0181V17.8964C39.4607 17.9338 39.4607 17.9714 39.4567 18.0088L39.5418 18.3551C39.627 18.6546 39.7546 19.1039 39.9036 19.6748C39.4456 19.9379 38.9477 20.1427 38.4247 20.2832C37.7735 20.474 37.1088 20.6272 36.4349 20.7419C34.7321 21.0233 33.0066 21.1861 31.2746 21.2286C29.1464 21.3014 27.0153 21.2733 24.8906 21.1444C23.7169 21.0801 22.5482 20.9582 21.39 20.7793C20.7842 20.6876 20.184 20.5689 19.5918 20.4236C19.4429 20.4236 19.2939 20.3488 19.1449 20.3113C18.996 20.2739 18.8471 20.2271 18.7087 20.1709C18.4063 20.0832 18.1169 19.9638 17.8469 19.8152L17.1553 19.3098C17.3574 18.7295 17.549 18.1585 17.7298 17.625L33.1578 17.859L37.733 17.9339H38.9673H39.3822L39.3716 17.8309Z" fill="#263238"/>
<path d="M17.6982 17.672C17.6982 18.5331 22.5075 19.1508 28.5298 19.2912C32.6368 19.3848 38.6378 18.6922 39.3719 17.7843C39.9465 17.0916 34.5307 16.2024 28.5511 16.165C22.5714 16.1276 17.7089 16.8296 17.6982 17.672Z" fill="white"/>
<path d="M17.6979 17.672C17.6931 17.6378 17.6931 17.6032 17.6979 17.569C17.743 17.4753 17.8166 17.3943 17.9107 17.335C18.2797 17.1243 18.686 16.9693 19.113 16.8764C20.6735 16.5408 22.2654 16.3309 23.8691 16.2493C26.2417 16.1033 28.622 16.0783 30.9979 16.1744C32.3492 16.2399 33.7537 16.3335 35.2539 16.5113C35.9774 16.5956 36.7116 16.6985 37.4564 16.8483C37.8168 16.9164 38.1722 17.004 38.5204 17.1104C38.7067 17.1638 38.888 17.2295 39.063 17.3069L39.1907 17.3725L39.3184 17.4473C39.3593 17.477 39.3951 17.5117 39.4248 17.5503C39.4459 17.6017 39.4459 17.658 39.4248 17.7094C39.4154 17.7614 39.3896 17.8101 39.3503 17.8498L39.2333 17.9528C39.156 18.008 39.0743 18.058 38.9886 18.1025C38.8183 18.1846 38.6403 18.2534 38.4566 18.3085C38.1094 18.4254 37.754 18.5223 37.3926 18.5986C36.6478 18.7577 35.9136 18.8701 35.1901 18.973C33.743 19.1509 32.3386 19.2632 30.9979 19.31C29.7255 19.3664 28.4506 19.3664 27.1782 19.31C25.9865 19.31 24.8693 19.1977 23.8585 19.1134C22.2587 19.0172 20.6711 18.8011 19.113 18.4676C18.6837 18.3808 18.2762 18.2253 17.9107 18.0089C17.8141 17.9521 17.7397 17.8704 17.6979 17.7749C17.6937 17.7438 17.6937 17.7124 17.6979 17.6813C17.6979 17.6813 17.6979 17.6813 17.6979 17.7749C17.7417 17.8644 17.8161 17.9397 17.9107 17.9902C18.2813 18.1919 18.6877 18.3374 19.113 18.4208C20.6725 18.7427 22.2599 18.9494 23.8585 19.0385C24.8693 19.1134 25.9865 19.1696 27.1675 19.207C28.4364 19.2634 29.7078 19.2634 30.9767 19.207C32.3173 19.1509 33.7218 19.0479 35.1688 18.8607C35.8817 18.7671 36.6158 18.6454 37.35 18.4957C37.7108 18.4172 38.066 18.3203 38.414 18.2055C38.5925 18.1465 38.7666 18.0777 38.9354 17.9996C39.014 17.9582 39.0888 17.9112 39.1588 17.8592C39.2266 17.8216 39.2789 17.7658 39.3078 17.7001C39.307 17.6665 39.2969 17.6336 39.2783 17.6042C39.2598 17.5748 39.2334 17.5499 39.2014 17.5316C39.0844 17.4662 39.0844 17.4662 38.9674 17.4007C38.7982 17.3285 38.624 17.266 38.4459 17.2133C38.097 17.1115 37.7417 17.0272 37.3819 16.9606C36.6478 16.8109 35.9136 16.7079 35.1901 16.6237C33.7537 16.4458 32.3492 16.3429 31.0086 16.2867C28.6332 16.1826 26.2531 16.1982 23.8798 16.3335C22.2808 16.4019 20.6923 16.5993 19.1343 16.9232C18.713 17.0085 18.3105 17.1539 17.9427 17.3537C17.8507 17.4098 17.7744 17.4834 17.7192 17.569C17.7086 17.672 17.7086 17.672 17.6979 17.672Z" fill="#263238"/>
<path d="M34.7112 16.1651L34.9665 17.1666C34.9665 17.1666 33.6791 18.1962 28.4229 18.0464C23.1667 17.8966 22.5816 17.2227 22.5816 17.2227L22.4326 17.0636L22.539 15.9966L34.7112 16.1651Z" fill="#E0E0E0"/>
<path d="M34.7114 16.1649H33.7644H31.1789L22.5286 16.0619L22.603 16.0151C22.603 16.3521 22.5286 16.7078 22.4967 17.0728L22.6137 17.1851C22.6377 17.225 22.6748 17.2577 22.7201 17.2787C23.0194 17.4242 23.3424 17.5284 23.6777 17.5876C24.0075 17.6625 24.348 17.7187 24.6779 17.7655C25.3375 17.8497 25.9972 17.9059 26.6356 17.9527C27.814 18.0375 28.9967 18.0687 30.1788 18.0463C31.146 18.037 32.1106 17.9556 33.0622 17.8029C33.4239 17.7395 33.7796 17.6519 34.1262 17.5408C34.4157 17.4656 34.689 17.3486 34.9348 17.1945L34.7539 16.4457V16.2585C34.7514 16.2336 34.7514 16.2085 34.7539 16.1836C34.7568 16.2054 34.7568 16.2274 34.7539 16.2491L34.8071 16.4363C34.8603 16.6142 34.9242 16.8575 35.0199 17.1851C34.7683 17.3433 34.4925 17.4694 34.2007 17.5595C33.853 17.6699 33.4976 17.7606 33.1367 17.831C32.1825 17.9936 31.2143 18.0844 30.2426 18.1024C29.1786 18.1024 27.955 18.1024 26.6782 18.0182C26.0398 17.9714 25.3801 17.9152 24.7098 17.831C24.3799 17.831 24.0395 17.728 23.699 17.6531C23.348 17.5913 23.0103 17.4807 22.6988 17.3255C22.6454 17.2958 22.5985 17.2577 22.5605 17.2132L22.4541 17.1009L22.5605 16.0432V15.9871H22.6243L31.3066 16.1275L33.8708 16.1836H34.5624H34.7965L34.7114 16.1649Z" fill="#263238"/>
<path d="M22.5283 16.0808C22.5283 16.5675 25.2522 17.0168 28.6144 17.0168C31.9766 17.0168 34.7111 16.6517 34.7111 16.165C34.7111 15.6783 31.9873 15.229 28.625 15.229C25.2628 15.229 22.5283 15.594 22.5283 16.0808Z" fill="white"/>
<path d="M22.5282 16.0807C22.5282 16.0807 22.5281 15.9871 22.6558 15.8935C22.8579 15.7687 23.0855 15.6797 23.3262 15.6314C24.2052 15.4373 25.1028 15.3151 26.0074 15.2663C27.3459 15.1827 28.6888 15.1671 30.0293 15.2196C30.7848 15.2196 31.5721 15.2944 32.3914 15.388C32.7957 15.4442 33.2107 15.5004 33.6363 15.5846C33.8463 15.6279 34.0525 15.6842 34.2534 15.7531C34.3577 15.7873 34.4576 15.8312 34.5513 15.8841C34.6103 15.9082 34.6615 15.9447 34.7005 15.9904C34.7395 16.0362 34.765 16.0897 34.7748 16.1462C34.7657 16.2041 34.7406 16.2592 34.7017 16.3065C34.6627 16.3539 34.6111 16.392 34.5513 16.4176C34.4586 16.4696 34.3584 16.5105 34.2534 16.5393C34.0498 16.6083 33.8398 16.6615 33.6257 16.6984C33.2107 16.7827 32.7957 16.8388 32.3808 16.8856C31.5615 16.9699 30.7635 17.0073 30.0081 17.026C28.6701 17.0697 27.3303 17.0385 25.9968 16.9324C25.0946 16.88 24.2003 16.7515 23.3262 16.5487C23.0838 16.4917 22.8537 16.3999 22.6452 16.2772C22.5069 16.1836 22.5175 16.0807 22.5282 16.0807C22.5341 16.1177 22.5497 16.153 22.5737 16.1838C22.5977 16.2146 22.6294 16.2402 22.6665 16.2585C22.8739 16.3703 23.1001 16.4525 23.3368 16.5019C24.2138 16.6875 25.1073 16.8065 26.0074 16.8576C27.3386 16.9437 28.6742 16.9655 30.0081 16.9231C30.7635 16.9231 31.5509 16.8575 32.3702 16.7733C32.7813 16.7291 33.1897 16.6666 33.5937 16.5861C33.8001 16.5505 34.0029 16.5004 34.2002 16.4363L34.4875 16.3147C34.5726 16.3147 34.6471 16.2117 34.6471 16.1462C34.6471 16.0807 34.5726 16.0245 34.4875 15.9777C34.3986 15.9316 34.3061 15.8909 34.2108 15.856C34.0087 15.7905 33.8066 15.7437 33.6044 15.6969C33.1894 15.6127 32.7851 15.5565 32.3702 15.5003C31.5615 15.4067 30.7741 15.36 30.0187 15.3225C28.6861 15.2601 27.3507 15.2601 26.0181 15.3225C25.1189 15.3591 24.2252 15.4656 23.3474 15.6408C23.1075 15.6906 22.8779 15.7726 22.6665 15.8841C22.6273 15.9048 22.5943 15.9335 22.5703 15.9677C22.5462 16.0018 22.5318 16.0406 22.5282 16.0807Z" fill="#263238"/>
<path d="M27.6252 15.8654L27.3379 4.29648L28.9977 4.23096L29.2744 15.8748C28.6253 15.8561 28.221 16.0526 27.6252 15.8654Z" fill="white"/>
<path d="M27.6249 15.8654C27.7597 15.9017 27.899 15.9237 28.0398 15.931C28.2133 15.9435 28.3877 15.9435 28.5612 15.931C28.8 15.8943 29.0424 15.8786 29.2847 15.8841C29.2102 13.7781 29.0825 9.33215 28.9655 4.28711L29.0293 4.34327L27.3695 4.39944L27.4333 4.34327C27.5078 7.59119 27.5717 10.4834 27.6142 12.5613C27.6142 13.5909 27.6142 14.4334 27.6142 15.0137V15.9497C27.6165 15.931 27.6165 15.9122 27.6142 15.8935V15.725C27.6142 15.5753 27.6142 15.3506 27.6142 15.0698C27.6142 14.4895 27.6142 13.6565 27.5397 12.6269C27.4759 10.5396 27.3908 7.64736 27.3057 4.38072V4.32456H27.3695L29.0187 4.25903H29.0932V4.35264C29.2209 9.44448 29.306 13.853 29.3379 15.959C29.1006 15.9436 28.8623 15.9436 28.625 15.959C28.4515 15.972 28.2771 15.972 28.1037 15.959C27.9986 15.9517 27.8949 15.9328 27.7951 15.9029L27.6249 15.8654Z" fill="#263238"/>
<path d="M28.4873 4.30591L28.7639 15.9029L28.1468 15.8842L27.7744 4.31526L28.4873 4.30591Z" fill="#455A64"/>
<path d="M27.0078 15.7437C27.0078 15.7437 27.742 15.8281 28.6357 15.8375C29.5295 15.8468 30.2743 15.7343 30.2743 15.7718C30.1243 15.8247 29.9668 15.8594 29.8061 15.875C29.4191 15.9287 29.0276 15.9538 28.6357 15.95C28.2467 15.9493 27.8586 15.9179 27.476 15.8562C27.313 15.8466 27.1538 15.8084 27.0078 15.7437Z" fill="#263238"/>
<path d="M38.8183 20.0774C38.6597 19.8074 38.5519 19.5166 38.4991 19.2163C38.4021 18.9293 38.338 18.6346 38.3076 18.3364C38.4663 18.6064 38.5741 18.8972 38.6268 19.1975C38.7238 19.4845 38.788 19.7792 38.8183 20.0774Z" fill="#263238"/>
<path d="M37.0838 20.5453C36.9348 20.2645 36.8241 19.9692 36.7539 19.6655C36.6415 19.3623 36.5736 19.0478 36.5518 18.7295C36.7007 19.0103 36.8115 19.3056 36.8816 19.6093C37.0008 19.9109 37.0689 20.2263 37.0838 20.5453Z" fill="#263238"/>
<path d="M35.2115 20.9106C35.0797 20.608 34.9835 20.2944 34.9242 19.9746C34.8346 19.6682 34.7812 19.3546 34.7646 19.0386C34.908 19.3377 35.0046 19.6526 35.0519 19.9746C35.1538 20.2786 35.2075 20.5936 35.2115 20.9106Z" fill="#263238"/>
<path d="M33.0087 21.1164C32.8188 20.5056 32.7116 19.8773 32.6895 19.2444C32.7991 19.5491 32.8739 19.8626 32.9129 20.1804C32.9818 20.4886 33.014 20.8023 33.0087 21.1164Z" fill="#263238"/>
<path d="M30.6892 21.2099C30.6518 20.8988 30.6518 20.585 30.6892 20.2739C30.6843 19.9594 30.72 19.6453 30.7956 19.3379C30.8331 19.649 30.8331 19.9628 30.7956 20.2739C30.7996 20.5884 30.7639 20.9023 30.6892 21.2099Z" fill="#263238"/>
<path d="M28.7957 21.1633C28.7426 20.853 28.7426 20.5375 28.7957 20.2273C28.7932 19.9118 28.8361 19.5973 28.9233 19.2913C28.9767 19.6015 28.9767 19.917 28.9233 20.2273C28.9246 20.5427 28.8817 20.857 28.7957 21.1633Z" fill="#263238"/>
<path d="M26.7949 21.0977C26.7564 20.7847 26.778 20.4683 26.8587 20.1617C26.8892 19.8561 26.9717 19.5564 27.1035 19.2725C27.1054 19.5874 27.0661 19.9014 26.9864 20.2085C26.9554 20.5096 26.8912 20.8074 26.7949 21.0977Z" fill="#263238"/>
<path d="M24.4219 20.9572C24.4539 20.6385 24.5289 20.3243 24.6453 20.0212C24.7191 19.6979 24.837 19.3836 24.9964 19.0852C24.9708 19.4047 24.8957 19.7196 24.773 20.0212C24.6992 20.3445 24.5813 20.6588 24.4219 20.9572Z" fill="#263238"/>
<path d="M22.2627 20.8168C22.2954 20.499 22.3667 20.1852 22.4755 19.8808C22.5388 19.5564 22.6534 19.2413 22.816 18.9448C22.7844 19.2628 22.713 19.5767 22.6032 19.8808C22.54 20.2053 22.4254 20.5204 22.2627 20.8168Z" fill="#263238"/>
<path d="M19.7197 20.3863C19.768 20.0847 19.8573 19.7893 19.9857 19.5065C20.0822 19.2126 20.218 18.9298 20.3901 18.6641C20.246 19.2597 20.0209 19.838 19.7197 20.3863Z" fill="#263238"/>
<path d="M17.8145 19.7592C17.8557 19.4886 17.938 19.2242 18.0592 18.9729C18.133 18.7078 18.2552 18.4549 18.4209 18.2241C18.381 18.4949 18.2987 18.7595 18.1762 19.0104C18.1024 19.2755 17.9802 19.5284 17.8145 19.7592Z" fill="#263238"/>
</svg>
